# MagicaVoxel @ Ephtracy

# group
o 

# material
mtllib exitbutton nivel 2.mtl
usemtl palette

# normals
vn -1 0 0
vn 1 0 0
vn 0 0 1
vn 0 0 -1
vn 0 -1 0
vn 0 1 0

# texcoords
vt 0.228516 0.5
vt 0.732422 0.5
vt 0.748047 0.5
vt 0.849609 0.5
vt 0.873047 0.5
vt 0.876953 0.5
vt 0.880859 0.5
vt 0.884766 0.5
vt 0.888672 0.5
vt 0.892578 0.5
vt 0.919922 0.5

# verts
v 0 0 1.5
v 0 0 1.4
v 0 0 1.2
v 0 0 0.8
v 0 0 0.6
v 0 0 0.4
v 0 0 -0.5
v 0 0 -0.7
v 0 0 -0.8
v 0 0 -1.2
v 0 0 -1.3
v 0 0 -1.4
v 0 0 -1.5
v 0 0.1 1.4
v 0 0.1 1.2
v 0 0.1 0.8
v 0 0.1 0.6
v 0 0.1 0.4
v 0 0.1 -0.5
v 0 0.1 -0.7
v 0 0.1 -0.8
v 0 0.1 -1.2
v 0 0.1 -1.3
v 0 0.1 -1.4
v 0 0.1 -1.5
v 0 0.2 1.5
v 0 0.2 1.4
v 0 0.2 1.3
v 0 0.2 -1.3
v 0 0.2 -1.4
v 0 0.2 -1.5
v 0 0.3 1.2
v 0 0.3 1
v 0 0.3 0.9
v 0 0.3 0.6
v 0 0.3 0.5
v 0 0.3 0.4
v 0 0.3 0.3
v 0 0.3 0.1
v 0 0.3 0
v 0 0.3 -0.1
v 0 0.3 -0.4
v 0 0.3 -0.5
v 0 0.3 -0.7
v 0 0.3 -0.8
v 0 0.3 -0.9
v 0 0.3 -1.2
v 0 0.3 -1.4
v 0 0.3 -1.5
v 0 0.4 0.9
v 0 0.4 0.8
v 0 0.4 0.6
v 0 0.4 0.5
v 0 0.4 0.4
v 0 0.4 0.3
v 0 0.4 0.2
v 0 0.4 0.1
v 0 0.4 0
v 0 0.4 -0.1
v 0 0.4 -0.2
v 0 0.4 -0.3
v 0 0.4 -0.4
v 0 0.4 -0.5
v 0 0.5 1.5
v 0 0.5 1.4
v 0 0.5 -1.4
v 0 0.5 -1.5
v 0 0.6 1.5
v 0 0.6 1.4
v 0 0.6 0.4
v 0 0.6 0.3
v 0 0.6 0.2
v 0 0.6 0.1
v 0 0.6 0
v 0 0.7 0.9
v 0 0.7 0.8
v 0 0.7 0.7
v 0 0.7 -1.4
v 0 0.7 -1.5
v 0 0.8 1.5
v 0 0.8 1.4
v 0 0.8 0.9
v 0 0.8 0.8
v 0 0.8 0.7
v 0 0.8 0.4
v 0 0.8 0.3
v 0 0.8 0.2
v 0 0.8 0.1
v 0 0.8 0
v 0 0.9 1.5
v 0 0.9 1.4
v 0 1 0.8
v 0 1 0.6
v 0 1 0.5
v 0 1 0.4
v 0 1 0.3
v 0 1 0.2
v 0 1 0.1
v 0 1 0
v 0 1 -0.1
v 0 1 -0.2
v 0 1 -0.3
v 0 1 -0.4
v 0 1 -0.5
v 0 1 -0.7
v 0 1 -0.8
v 0 1 -0.9
v 0 1 -1
v 0 1 -1.1
v 0 1 -1.4
v 0 1 -1.5
v 0 1.1 0.9
v 0 1.1 0.7
v 0 1.1 0.6
v 0 1.1 0.5
v 0 1.1 0.4
v 0 1.1 0.3
v 0 1.1 0.1
v 0 1.1 0
v 0 1.1 -0.1
v 0 1.1 -0.2
v 0 1.1 -0.4
v 0 1.1 -0.5
v 0 1.1 -0.7
v 0 1.1 -0.9
v 0 1.1 -1
v 0 1.1 -1.1
v 0 1.2 1.5
v 0 1.2 1.4
v 0 1.2 1.2
v 0 1.2 1
v 0 1.2 0.7
v 0 1.2 0.6
v 0 1.2 0.5
v 0 1.2 -1.2
v 0 1.2 -1.4
v 0 1.2 -1.5
v 0 1.3 1.5
v 0 1.3 1.4
v 0 1.3 1.3
v 0 1.3 -1.3
v 0 1.4 1.5
v 0 1.4 1.4
v 0 1.4 1.3
v 0 1.4 1.2
v 0 1.4 0.8
v 0 1.4 0.1
v 0 1.4 -0.1
v 0 1.4 -0.2
v 0 1.4 -0.6
v 0 1.4 -0.8
v 0 1.4 -0.9
v 0 1.4 -1
v 0 1.4 -1.3
v 0 1.4 -1.4
v 0 1.4 -1.5
v 0 1.5 1.5
v 0 1.5 1.3
v 0 1.5 1.2
v 0 1.5 0.8
v 0 1.5 0.1
v 0 1.5 -0.1
v 0 1.5 -0.2
v 0 1.5 -0.6
v 0 1.5 -0.8
v 0 1.5 -0.9
v 0 1.5 -1
v 0 1.5 -1.3
v 0 1.5 -1.4
v 0 1.5 -1.5
v 0.1 0 1.5
v 0.1 0 1.4
v 0.1 0 1.2
v 0.1 0 0.8
v 0.1 0 0.6
v 0.1 0 0.4
v 0.1 0 -0.5
v 0.1 0 -0.7
v 0.1 0 -0.8
v 0.1 0 -1.2
v 0.1 0 -1.3
v 0.1 0 -1.4
v 0.1 0 -1.5
v 0.1 0.1 1.4
v 0.1 0.1 1.2
v 0.1 0.1 0.8
v 0.1 0.1 0.6
v 0.1 0.1 0.4
v 0.1 0.1 -0.5
v 0.1 0.1 -0.7
v 0.1 0.1 -0.8
v 0.1 0.1 -1.2
v 0.1 0.1 -1.3
v 0.1 0.1 -1.4
v 0.1 0.1 -1.5
v 0.1 0.2 1.5
v 0.1 0.2 1.4
v 0.1 0.2 1.3
v 0.1 0.2 -1.3
v 0.1 0.2 -1.4
v 0.1 0.2 -1.5
v 0.1 0.3 1.2
v 0.1 0.3 1
v 0.1 0.3 0.9
v 0.1 0.3 0.6
v 0.1 0.3 0.5
v 0.1 0.3 0.4
v 0.1 0.3 0.3
v 0.1 0.3 0.1
v 0.1 0.3 0
v 0.1 0.3 -0.1
v 0.1 0.3 -0.4
v 0.1 0.3 -0.5
v 0.1 0.3 -0.7
v 0.1 0.3 -0.8
v 0.1 0.3 -0.9
v 0.1 0.3 -1.2
v 0.1 0.3 -1.4
v 0.1 0.3 -1.5
v 0.1 0.4 0.9
v 0.1 0.4 0.8
v 0.1 0.4 0.6
v 0.1 0.4 0.5
v 0.1 0.4 0.4
v 0.1 0.4 0.3
v 0.1 0.4 0.2
v 0.1 0.4 0.1
v 0.1 0.4 0
v 0.1 0.4 -0.1
v 0.1 0.4 -0.2
v 0.1 0.4 -0.3
v 0.1 0.4 -0.4
v 0.1 0.4 -0.5
v 0.1 0.5 1.5
v 0.1 0.5 1.4
v 0.1 0.5 -1.4
v 0.1 0.5 -1.5
v 0.1 0.6 1.5
v 0.1 0.6 1.4
v 0.1 0.6 0.4
v 0.1 0.6 0.3
v 0.1 0.6 0.2
v 0.1 0.6 0.1
v 0.1 0.6 0
v 0.1 0.7 0.9
v 0.1 0.7 0.8
v 0.1 0.7 0.7
v 0.1 0.7 -1.4
v 0.1 0.7 -1.5
v 0.1 0.8 1.5
v 0.1 0.8 1.4
v 0.1 0.8 0.9
v 0.1 0.8 0.8
v 0.1 0.8 0.7
v 0.1 0.8 0.4
v 0.1 0.8 0.3
v 0.1 0.8 0.2
v 0.1 0.8 0.1
v 0.1 0.8 0
v 0.1 0.9 1.5
v 0.1 0.9 1.4
v 0.1 1 0.8
v 0.1 1 0.6
v 0.1 1 0.5
v 0.1 1 0.4
v 0.1 1 0.3
v 0.1 1 0.2
v 0.1 1 0.1
v 0.1 1 0
v 0.1 1 -0.1
v 0.1 1 -0.2
v 0.1 1 -0.3
v 0.1 1 -0.4
v 0.1 1 -0.5
v 0.1 1 -0.7
v 0.1 1 -0.8
v 0.1 1 -0.9
v 0.1 1 -1
v 0.1 1 -1.1
v 0.1 1 -1.4
v 0.1 1 -1.5
v 0.1 1.1 0.9
v 0.1 1.1 0.7
v 0.1 1.1 0.6
v 0.1 1.1 0.5
v 0.1 1.1 0.4
v 0.1 1.1 0.3
v 0.1 1.1 0.1
v 0.1 1.1 0
v 0.1 1.1 -0.1
v 0.1 1.1 -0.2
v 0.1 1.1 -0.4
v 0.1 1.1 -0.5
v 0.1 1.1 -0.7
v 0.1 1.1 -0.9
v 0.1 1.1 -1
v 0.1 1.1 -1.1
v 0.1 1.2 1.5
v 0.1 1.2 1.4
v 0.1 1.2 1.2
v 0.1 1.2 1
v 0.1 1.2 0.7
v 0.1 1.2 0.6
v 0.1 1.2 0.5
v 0.1 1.2 -1.2
v 0.1 1.2 -1.4
v 0.1 1.2 -1.5
v 0.1 1.3 1.5
v 0.1 1.3 1.4
v 0.1 1.3 1.3
v 0.1 1.3 -1.3
v 0.1 1.4 1.5
v 0.1 1.4 1.4
v 0.1 1.4 1.3
v 0.1 1.4 1.2
v 0.1 1.4 0.8
v 0.1 1.4 0.1
v 0.1 1.4 -0.1
v 0.1 1.4 -0.2
v 0.1 1.4 -0.6
v 0.1 1.4 -0.8
v 0.1 1.4 -0.9
v 0.1 1.4 -1
v 0.1 1.4 -1.3
v 0.1 1.4 -1.4
v 0.1 1.4 -1.5
v 0.1 1.5 1.5
v 0.1 1.5 1.3
v 0.1 1.5 1.2
v 0.1 1.5 0.8
v 0.1 1.5 0.1
v 0.1 1.5 -0.1
v 0.1 1.5 -0.2
v 0.1 1.5 -0.6
v 0.1 1.5 -0.8
v 0.1 1.5 -0.9
v 0.1 1.5 -1
v 0.1 1.5 -1.3
v 0.1 1.5 -1.4
v 0.1 1.5 -1.5
v 0 0 1.5
v 0 0.2 1.5
v 0 0.5 1.5
v 0 0.6 1.5
v 0 0.8 1.5
v 0 0.9 1.5
v 0 1.2 1.5
v 0 1.3 1.5
v 0 1.4 1.5
v 0 1.5 1.5
v 0.1 0 1.5
v 0.1 0.2 1.5
v 0.1 0.5 1.5
v 0.1 0.6 1.5
v 0.1 0.8 1.5
v 0.1 0.9 1.5
v 0.1 1.2 1.5
v 0.1 1.3 1.5
v 0.1 1.4 1.5
v 0.1 1.5 1.5
v 0 0 -1.5
v 0 0.1 -1.5
v 0 0.2 -1.5
v 0 0.3 -1.5
v 0 0.5 -1.5
v 0 0.7 -1.5
v 0 1 -1.5
v 0 1.2 -1.5
v 0 1.4 -1.5
v 0 1.5 -1.5
v 0.1 0 -1.5
v 0.1 0.1 -1.5
v 0.1 0.2 -1.5
v 0.1 0.3 -1.5
v 0.1 0.5 -1.5
v 0.1 0.7 -1.5
v 0.1 1 -1.5
v 0.1 1.2 -1.5
v 0.1 1.4 -1.5
v 0.1 1.5 -1.5
v 0 0 1.5
v 0.1 0 1.5
v 0 0 1.4
v 0.1 0 1.4
v 0 0 1.2
v 0.1 0 1.2
v 0 0 0.8
v 0.1 0 0.8
v 0 0 0.6
v 0.1 0 0.6
v 0 0 0.4
v 0.1 0 0.4
v 0 0 -0.5
v 0.1 0 -0.5
v 0 0 -0.7
v 0.1 0 -0.7
v 0 0 -0.8
v 0.1 0 -0.8
v 0 0 -1.2
v 0.1 0 -1.2
v 0 0 -1.3
v 0.1 0 -1.3
v 0 0 -1.4
v 0.1 0 -1.4
v 0 0 -1.5
v 0.1 0 -1.5
v 0 1.5 1.5
v 0.1 1.5 1.5
v 0 1.5 1.3
v 0.1 1.5 1.3
v 0 1.5 1.2
v 0.1 1.5 1.2
v 0 1.5 0.8
v 0.1 1.5 0.8
v 0 1.5 0.1
v 0.1 1.5 0.1
v 0 1.5 -0.1
v 0.1 1.5 -0.1
v 0 1.5 -0.2
v 0.1 1.5 -0.2
v 0 1.5 -0.6
v 0.1 1.5 -0.6
v 0 1.5 -0.8
v 0.1 1.5 -0.8
v 0 1.5 -0.9
v 0.1 1.5 -0.9
v 0 1.5 -1
v 0.1 1.5 -1
v 0 1.5 -1.3
v 0.1 1.5 -1.3
v 0 1.5 -1.4
v 0.1 1.5 -1.4
v 0 1.5 -1.5
v 0.1 1.5 -1.5

# faces
f 14/9/1 2/9/1 1/9/1
f 14/10/1 3/10/1 2/10/1
f 15/8/1 4/8/1 3/8/1
f 15/10/1 3/10/1 14/10/1
f 16/10/1 5/10/1 4/10/1
f 16/8/1 4/8/1 15/8/1
f 17/9/1 6/9/1 5/9/1
f 17/10/1 5/10/1 16/10/1
f 18/8/1 7/8/1 6/8/1
f 18/9/1 6/9/1 17/9/1
f 19/10/1 8/10/1 7/10/1
f 19/8/1 7/8/1 18/8/1
f 20/8/1 9/8/1 8/8/1
f 20/10/1 8/10/1 19/10/1
f 21/9/1 10/9/1 9/9/1
f 21/8/1 9/8/1 20/8/1
f 22/8/1 11/8/1 10/8/1
f 22/9/1 10/9/1 21/9/1
f 23/10/1 12/10/1 11/10/1
f 23/8/1 11/8/1 22/8/1
f 24/8/1 13/8/1 12/8/1
f 24/10/1 12/10/1 23/10/1
f 25/8/1 13/8/1 24/8/1
f 26/9/1 14/9/1 1/9/1
f 27/8/1 23/8/1 22/8/1
f 27/9/1 14/9/1 26/9/1
f 27/8/1 22/8/1 21/8/1
f 27/8/1 15/8/1 14/8/1
f 27/8/1 24/8/1 23/8/1
f 27/8/1 21/8/1 20/8/1
f 27/8/1 20/8/1 19/8/1
f 27/8/1 19/8/1 18/8/1
f 27/8/1 18/8/1 17/8/1
f 27/8/1 17/8/1 16/8/1
f 27/8/1 16/8/1 15/8/1
f 28/8/1 24/8/1 27/8/1
f 29/8/1 24/8/1 28/8/1
f 30/9/1 25/9/1 24/9/1
f 30/8/1 24/8/1 29/8/1
f 31/9/1 25/9/1 30/9/1
f 32/6/1 29/6/1 28/6/1
f 33/6/1 29/6/1 32/6/1
f 34/6/1 29/6/1 33/6/1
f 35/6/1 29/6/1 34/6/1
f 36/6/1 29/6/1 35/6/1
f 37/6/1 29/6/1 36/6/1
f 38/6/1 29/6/1 37/6/1
f 39/6/1 29/6/1 38/6/1
f 40/6/1 29/6/1 39/6/1
f 41/6/1 29/6/1 40/6/1
f 42/6/1 29/6/1 41/6/1
f 43/6/1 29/6/1 42/6/1
f 44/6/1 29/6/1 43/6/1
f 45/6/1 29/6/1 44/6/1
f 46/6/1 29/6/1 45/6/1
f 47/6/1 29/6/1 46/6/1
f 48/8/1 30/8/1 29/8/1
f 48/10/1 31/10/1 30/10/1
f 49/10/1 31/10/1 48/10/1
f 50/11/1 34/11/1 33/11/1
f 50/3/1 35/3/1 34/3/1
f 51/3/1 35/3/1 50/3/1
f 52/6/1 36/6/1 35/6/1
f 52/3/1 35/3/1 51/3/1
f 53/1/1 37/1/1 36/1/1
f 53/6/1 36/6/1 52/6/1
f 54/6/1 38/6/1 37/6/1
f 54/1/1 37/1/1 53/1/1
f 55/7/1 39/7/1 38/7/1
f 55/6/1 38/6/1 54/6/1
f 56/7/1 39/7/1 55/7/1
f 57/1/1 40/1/1 39/1/1
f 57/7/1 39/7/1 56/7/1
f 58/6/1 41/6/1 40/6/1
f 58/1/1 40/1/1 57/1/1
f 59/4/1 42/4/1 41/4/1
f 59/6/1 41/6/1 58/6/1
f 60/4/1 42/4/1 59/4/1
f 61/4/1 42/4/1 60/4/1
f 62/6/1 43/6/1 42/6/1
f 62/4/1 42/4/1 61/4/1
f 63/7/1 44/7/1 43/7/1
f 63/6/1 43/6/1 62/6/1
f 64/8/1 27/8/1 26/8/1
f 64/8/1 28/8/1 27/8/1
f 65/8/1 28/8/1 64/8/1
f 66/9/1 49/9/1 48/9/1
f 66/8/1 48/8/1 29/8/1
f 67/9/1 49/9/1 66/9/1
f 68/9/1 65/9/1 64/9/1
f 69/8/1 28/8/1 65/8/1
f 69/9/1 65/9/1 68/9/1
f 70/7/1 52/7/1 51/7/1
f 70/7/1 53/7/1 52/7/1
f 70/7/1 54/7/1 53/7/1
f 70/1/1 55/1/1 54/1/1
f 71/6/1 56/6/1 55/6/1
f 71/1/1 55/1/1 70/1/1
f 72/1/1 57/1/1 56/1/1
f 72/6/1 56/6/1 71/6/1
f 73/6/1 58/6/1 57/6/1
f 73/1/1 57/1/1 72/1/1
f 74/7/1 59/7/1 58/7/1
f 74/6/1 58/6/1 73/6/1
f 74/7/1 60/7/1 59/7/1
f 75/6/1 51/6/1 50/6/1
f 75/11/1 50/11/1 33/11/1
f 76/7/1 70/7/1 51/7/1
f 76/6/1 51/6/1 75/6/1
f 76/7/1 71/7/1 70/7/1
f 77/7/1 71/7/1 76/7/1
f 78/8/1 67/8/1 66/8/1
f 78/8/1 66/8/1 29/8/1
f 79/8/1 67/8/1 78/8/1
f 80/10/1 69/10/1 68/10/1
f 81/8/1 28/8/1 69/8/1
f 81/10/1 69/10/1 80/10/1
f 82/11/1 75/11/1 33/11/1
f 82/3/1 77/3/1 76/3/1
f 82/3/1 76/3/1 75/3/1
f 83/3/1 77/3/1 82/3/1
f 84/7/1 71/7/1 77/7/1
f 84/3/1 77/3/1 83/3/1
f 85/7/1 71/7/1 84/7/1
f 86/1/1 72/1/1 71/1/1
f 86/7/1 71/7/1 85/7/1
f 87/6/1 73/6/1 72/6/1
f 87/1/1 72/1/1 86/1/1
f 88/7/1 74/7/1 73/7/1
f 88/6/1 73/6/1 87/6/1
f 89/7/1 60/7/1 74/7/1
f 89/7/1 74/7/1 88/7/1
f 90/9/1 81/9/1 80/9/1
f 91/8/1 28/8/1 81/8/1
f 91/9/1 81/9/1 90/9/1
f 92/6/1 83/6/1 82/6/1
f 92/7/1 85/7/1 84/7/1
f 92/7/1 84/7/1 83/7/1
f 93/7/1 85/7/1 92/7/1
f 94/7/1 85/7/1 93/7/1
f 95/1/1 86/1/1 85/1/1
f 95/7/1 85/7/1 94/7/1
f 96/6/1 87/6/1 86/6/1
f 96/1/1 86/1/1 95/1/1
f 97/1/1 88/1/1 87/1/1
f 97/6/1 87/6/1 96/6/1
f 98/6/1 89/6/1 88/6/1
f 98/1/1 88/1/1 97/1/1
f 99/7/1 60/7/1 89/7/1
f 99/6/1 89/6/1 98/6/1
f 100/7/1 60/7/1 99/7/1
f 101/5/1 61/5/1 60/5/1
f 101/7/1 60/7/1 100/7/1
f 102/6/1 62/6/1 61/6/1
f 102/5/1 61/5/1 101/5/1
f 103/7/1 63/7/1 62/7/1
f 103/6/1 62/6/1 102/6/1
f 104/7/1 44/7/1 63/7/1
f 104/7/1 63/7/1 103/7/1
f 105/5/1 45/5/1 44/5/1
f 105/7/1 44/7/1 104/7/1
f 106/6/1 46/6/1 45/6/1
f 106/5/1 45/5/1 105/5/1
f 107/7/1 47/7/1 46/7/1
f 107/6/1 46/6/1 106/6/1
f 108/7/1 47/7/1 107/7/1
f 109/7/1 47/7/1 108/7/1
f 110/9/1 79/9/1 78/9/1
f 110/8/1 78/8/1 29/8/1
f 111/9/1 79/9/1 110/9/1
f 112/11/1 82/11/1 33/11/1
f 112/6/1 92/6/1 82/6/1
f 112/6/1 93/6/1 92/6/1
f 113/6/1 93/6/1 112/6/1
f 114/7/1 94/7/1 93/7/1
f 114/6/1 93/6/1 113/6/1
f 115/1/1 95/1/1 94/1/1
f 115/7/1 94/7/1 114/7/1
f 116/6/1 96/6/1 95/6/1
f 116/1/1 95/1/1 115/1/1
f 117/7/1 98/7/1 97/7/1
f 117/6/1 96/6/1 116/6/1
f 117/7/1 97/7/1 96/7/1
f 118/1/1 99/1/1 98/1/1
f 118/7/1 98/7/1 117/7/1
f 119/6/1 100/6/1 99/6/1
f 119/1/1 99/1/1 118/1/1
f 120/2/1 101/2/1 100/2/1
f 120/6/1 100/6/1 119/6/1
f 121/4/1 103/4/1 102/4/1
f 121/2/1 101/2/1 120/2/1
f 121/4/1 102/4/1 101/4/1
f 122/6/1 104/6/1 103/6/1
f 122/4/1 103/4/1 121/4/1
f 123/5/1 105/5/1 104/5/1
f 123/6/1 104/6/1 122/6/1
f 124/4/1 106/4/1 105/4/1
f 124/5/1 105/5/1 123/5/1
f 124/4/1 107/4/1 106/4/1
f 125/11/1 108/11/1 107/11/1
f 125/4/1 107/4/1 124/4/1
f 126/6/1 109/6/1 108/6/1
f 126/11/1 108/11/1 125/11/1
f 127/7/1 47/7/1 109/7/1
f 127/6/1 109/6/1 126/6/1
f 128/8/1 91/8/1 90/8/1
f 129/8/1 28/8/1 91/8/1
f 129/8/1 91/8/1 128/8/1
f 130/6/1 32/6/1 28/6/1
f 130/7/1 33/7/1 32/7/1
f 131/11/1 113/11/1 112/11/1
f 131/7/1 33/7/1 130/7/1
f 131/11/1 112/11/1 33/11/1
f 132/3/1 114/3/1 113/3/1
f 132/11/1 113/11/1 131/11/1
f 133/6/1 115/6/1 114/6/1
f 133/3/1 114/3/1 132/3/1
f 134/7/1 120/7/1 119/7/1
f 134/6/1 115/6/1 133/6/1
f 134/7/1 124/7/1 123/7/1
f 134/7/1 117/7/1 116/7/1
f 134/7/1 123/7/1 122/7/1
f 134/7/1 118/7/1 117/7/1
f 134/7/1 127/7/1 126/7/1
f 134/7/1 119/7/1 118/7/1
f 134/7/1 125/7/1 124/7/1
f 134/7/1 126/7/1 125/7/1
f 134/7/1 121/7/1 120/7/1
f 134/7/1 116/7/1 115/7/1
f 134/7/1 122/7/1 121/7/1
f 135/6/1 29/6/1 47/6/1
f 135/7/1 127/7/1 134/7/1
f 135/7/1 47/7/1 127/7/1
f 136/8/1 110/8/1 29/8/1
f 136/10/1 111/10/1 110/10/1
f 137/10/1 111/10/1 136/10/1
f 138/9/1 129/9/1 128/9/1
f 139/8/1 28/8/1 129/8/1
f 139/9/1 129/9/1 138/9/1
f 140/6/1 133/6/1 132/6/1
f 140/8/1 28/8/1 139/8/1
f 140/6/1 134/6/1 133/6/1
f 140/6/1 135/6/1 134/6/1
f 140/6/1 132/6/1 131/6/1
f 140/6/1 131/6/1 130/6/1
f 140/6/1 130/6/1 28/6/1
f 141/6/1 29/6/1 135/6/1
f 141/6/1 135/6/1 140/6/1
f 141/8/1 136/8/1 29/8/1
f 142/10/1 139/10/1 138/10/1
f 143/8/1 140/8/1 139/8/1
f 143/10/1 139/10/1 142/10/1
f 143/8/1 141/8/1 140/8/1
f 144/8/1 141/8/1 143/8/1
f 145/8/1 141/8/1 144/8/1
f 146/8/1 141/8/1 145/8/1
f 147/8/1 141/8/1 146/8/1
f 148/8/1 141/8/1 147/8/1
f 149/8/1 141/8/1 148/8/1
f 150/8/1 141/8/1 149/8/1
f 151/8/1 141/8/1 150/8/1
f 152/8/1 141/8/1 151/8/1
f 153/8/1 141/8/1 152/8/1
f 154/8/1 136/8/1 141/8/1
f 154/8/1 141/8/1 153/8/1
f 155/9/1 137/9/1 136/9/1
f 155/8/1 136/8/1 154/8/1
f 156/9/1 137/9/1 155/9/1
f 157/9/1 143/9/1 142/9/1
f 157/9/1 144/9/1 143/9/1
f 158/10/1 145/10/1 144/10/1
f 158/9/1 144/9/1 157/9/1
f 159/8/1 146/8/1 145/8/1
f 159/10/1 145/10/1 158/10/1
f 160/9/1 147/9/1 146/9/1
f 160/8/1 146/8/1 159/8/1
f 161/10/1 148/10/1 147/10/1
f 161/9/1 147/9/1 160/9/1
f 162/9/1 149/9/1 148/9/1
f 162/10/1 148/10/1 161/10/1
f 163/8/1 150/8/1 149/8/1
f 163/9/1 149/9/1 162/9/1
f 164/9/1 151/9/1 150/9/1
f 164/8/1 150/8/1 163/8/1
f 165/10/1 152/10/1 151/10/1
f 165/9/1 151/9/1 164/9/1
f 166/9/1 153/9/1 152/9/1
f 166/10/1 152/10/1 165/10/1
f 167/8/1 154/8/1 153/8/1
f 167/9/1 153/9/1 166/9/1
f 168/10/1 155/10/1 154/10/1
f 168/8/1 154/8/1 167/8/1
f 169/8/1 156/8/1 155/8/1
f 169/10/1 155/10/1 168/10/1
f 170/8/1 156/8/1 169/8/1
f 171/9/2 172/9/2 184/9/2
f 172/10/2 173/10/2 184/10/2
f 173/8/2 174/8/2 185/8/2
f 184/10/2 173/10/2 185/10/2
f 174/10/2 175/10/2 186/10/2
f 185/8/2 174/8/2 186/8/2
f 175/9/2 176/9/2 187/9/2
f 186/10/2 175/10/2 187/10/2
f 176/8/2 177/8/2 188/8/2
f 187/9/2 176/9/2 188/9/2
f 177/10/2 178/10/2 189/10/2
f 188/8/2 177/8/2 189/8/2
f 178/8/2 179/8/2 190/8/2
f 189/10/2 178/10/2 190/10/2
f 179/9/2 180/9/2 191/9/2
f 190/8/2 179/8/2 191/8/2
f 180/8/2 181/8/2 192/8/2
f 191/9/2 180/9/2 192/9/2
f 181/10/2 182/10/2 193/10/2
f 192/8/2 181/8/2 193/8/2
f 182/8/2 183/8/2 194/8/2
f 193/10/2 182/10/2 194/10/2
f 194/8/2 183/8/2 195/8/2
f 171/9/2 184/9/2 196/9/2
f 192/8/2 193/8/2 197/8/2
f 196/9/2 184/9/2 197/9/2
f 191/8/2 192/8/2 197/8/2
f 184/8/2 185/8/2 197/8/2
f 193/8/2 194/8/2 197/8/2
f 190/8/2 191/8/2 197/8/2
f 189/8/2 190/8/2 197/8/2
f 188/8/2 189/8/2 197/8/2
f 187/8/2 188/8/2 197/8/2
f 186/8/2 187/8/2 197/8/2
f 185/8/2 186/8/2 197/8/2
f 197/8/2 194/8/2 198/8/2
f 198/8/2 194/8/2 199/8/2
f 194/9/2 195/9/2 200/9/2
f 199/8/2 194/8/2 200/8/2
f 200/9/2 195/9/2 201/9/2
f 198/6/2 199/6/2 202/6/2
f 202/6/2 199/6/2 203/6/2
f 203/6/2 199/6/2 204/6/2
f 204/6/2 199/6/2 205/6/2
f 205/6/2 199/6/2 206/6/2
f 206/6/2 199/6/2 207/6/2
f 207/6/2 199/6/2 208/6/2
f 208/6/2 199/6/2 209/6/2
f 209/6/2 199/6/2 210/6/2
f 210/6/2 199/6/2 211/6/2
f 211/6/2 199/6/2 212/6/2
f 212/6/2 199/6/2 213/6/2
f 213/6/2 199/6/2 214/6/2
f 214/6/2 199/6/2 215/6/2
f 215/6/2 199/6/2 216/6/2
f 216/6/2 199/6/2 217/6/2
f 199/8/2 200/8/2 218/8/2
f 200/10/2 201/10/2 218/10/2
f 218/10/2 201/10/2 219/10/2
f 203/11/2 204/11/2 220/11/2
f 204/3/2 205/3/2 220/3/2
f 220/3/2 205/3/2 221/3/2
f 205/6/2 206/6/2 222/6/2
f 221/3/2 205/3/2 222/3/2
f 206/1/2 207/1/2 223/1/2
f 222/6/2 206/6/2 223/6/2
f 207/6/2 208/6/2 224/6/2
f 223/1/2 207/1/2 224/1/2
f 208/7/2 209/7/2 225/7/2
f 224/6/2 208/6/2 225/6/2
f 225/7/2 209/7/2 226/7/2
f 209/1/2 210/1/2 227/1/2
f 226/7/2 209/7/2 227/7/2
f 210/6/2 211/6/2 228/6/2
f 227/1/2 210/1/2 228/1/2
f 211/4/2 212/4/2 229/4/2
f 228/6/2 211/6/2 229/6/2
f 229/4/2 212/4/2 230/4/2
f 230/4/2 212/4/2 231/4/2
f 212/6/2 213/6/2 232/6/2
f 231/4/2 212/4/2 232/4/2
f 213/7/2 214/7/2 233/7/2
f 232/6/2 213/6/2 233/6/2
f 196/8/2 197/8/2 234/8/2
f 197/8/2 198/8/2 234/8/2
f 234/8/2 198/8/2 235/8/2
f 218/9/2 219/9/2 236/9/2
f 199/8/2 218/8/2 236/8/2
f 236/9/2 219/9/2 237/9/2
f 234/9/2 235/9/2 238/9/2
f 235/8/2 198/8/2 239/8/2
f 238/9/2 235/9/2 239/9/2
f 221/7/2 222/7/2 240/7/2
f 222/7/2 223/7/2 240/7/2
f 223/7/2 224/7/2 240/7/2
f 224/1/2 225/1/2 240/1/2
f 225/6/2 226/6/2 241/6/2
f 240/1/2 225/1/2 241/1/2
f 226/1/2 227/1/2 242/1/2
f 241/6/2 226/6/2 242/6/2
f 227/6/2 228/6/2 243/6/2
f 242/1/2 227/1/2 243/1/2
f 228/7/2 229/7/2 244/7/2
f 243/6/2 228/6/2 244/6/2
f 229/7/2 230/7/2 244/7/2
f 220/6/2 221/6/2 245/6/2
f 203/11/2 220/11/2 245/11/2
f 221/7/2 240/7/2 246/7/2
f 245/6/2 221/6/2 246/6/2
f 240/7/2 241/7/2 246/7/2
f 246/7/2 241/7/2 247/7/2
f 236/8/2 237/8/2 248/8/2
f 199/8/2 236/8/2 248/8/2
f 248/8/2 237/8/2 249/8/2
f 238/10/2 239/10/2 250/10/2
f 239/8/2 198/8/2 251/8/2
f 250/10/2 239/10/2 251/10/2
f 203/11/2 245/11/2 252/11/2
f 246/3/2 247/3/2 252/3/2
f 245/3/2 246/3/2 252/3/2
f 252/3/2 247/3/2 253/3/2
f 247/7/2 241/7/2 254/7/2
f 253/3/2 247/3/2 254/3/2
f 254/7/2 241/7/2 255/7/2
f 241/1/2 242/1/2 256/1/2
f 255/7/2 241/7/2 256/7/2
f 242/6/2 243/6/2 257/6/2
f 256/1/2 242/1/2 257/1/2
f 243/7/2 244/7/2 258/7/2
f 257/6/2 243/6/2 258/6/2
f 244/7/2 230/7/2 259/7/2
f 258/7/2 244/7/2 259/7/2
f 250/9/2 251/9/2 260/9/2
f 251/8/2 198/8/2 261/8/2
f 260/9/2 251/9/2 261/9/2
f 252/6/2 253/6/2 262/6/2
f 254/7/2 255/7/2 262/7/2
f 253/7/2 254/7/2 262/7/2
f 262/7/2 255/7/2 263/7/2
f 263/7/2 255/7/2 264/7/2
f 255/1/2 256/1/2 265/1/2
f 264/7/2 255/7/2 265/7/2
f 256/6/2 257/6/2 266/6/2
f 265/1/2 256/1/2 266/1/2
f 257/1/2 258/1/2 267/1/2
f 266/6/2 257/6/2 267/6/2
f 258/6/2 259/6/2 268/6/2
f 267/1/2 258/1/2 268/1/2
f 259/7/2 230/7/2 269/7/2
f 268/6/2 259/6/2 269/6/2
f 269/7/2 230/7/2 270/7/2
f 230/5/2 231/5/2 271/5/2
f 270/7/2 230/7/2 271/7/2
f 231/6/2 232/6/2 272/6/2
f 271/5/2 231/5/2 272/5/2
f 232/7/2 233/7/2 273/7/2
f 272/6/2 232/6/2 273/6/2
f 233/7/2 214/7/2 274/7/2
f 273/7/2 233/7/2 274/7/2
f 214/5/2 215/5/2 275/5/2
f 274/7/2 214/7/2 275/7/2
f 215/6/2 216/6/2 276/6/2
f 275/5/2 215/5/2 276/5/2
f 216/7/2 217/7/2 277/7/2
f 276/6/2 216/6/2 277/6/2
f 277/7/2 217/7/2 278/7/2
f 278/7/2 217/7/2 279/7/2
f 248/9/2 249/9/2 280/9/2
f 199/8/2 248/8/2 280/8/2
f 280/9/2 249/9/2 281/9/2
f 203/11/2 252/11/2 282/11/2
f 252/6/2 262/6/2 282/6/2
f 262/6/2 263/6/2 282/6/2
f 282/6/2 263/6/2 283/6/2
f 263/7/2 264/7/2 284/7/2
f 283/6/2 263/6/2 284/6/2
f 264/1/2 265/1/2 285/1/2
f 284/7/2 264/7/2 285/7/2
f 265/6/2 266/6/2 286/6/2
f 285/1/2 265/1/2 286/1/2
f 267/7/2 268/7/2 287/7/2
f 286/6/2 266/6/2 287/6/2
f 266/7/2 267/7/2 287/7/2
f 268/1/2 269/1/2 288/1/2
f 287/7/2 268/7/2 288/7/2
f 269/6/2 270/6/2 289/6/2
f 288/1/2 269/1/2 289/1/2
f 270/2/2 271/2/2 290/2/2
f 289/6/2 270/6/2 290/6/2
f 272/4/2 273/4/2 291/4/2
f 290/2/2 271/2/2 291/2/2
f 271/4/2 272/4/2 291/4/2
f 273/6/2 274/6/2 292/6/2
f 291/4/2 273/4/2 292/4/2
f 274/5/2 275/5/2 293/5/2
f 292/6/2 274/6/2 293/6/2
f 275/4/2 276/4/2 294/4/2
f 293/5/2 275/5/2 294/5/2
f 276/4/2 277/4/2 294/4/2
f 277/11/2 278/11/2 295/11/2
f 294/4/2 277/4/2 295/4/2
f 278/6/2 279/6/2 296/6/2
f 295/11/2 278/11/2 296/11/2
f 279/7/2 217/7/2 297/7/2
f 296/6/2 279/6/2 297/6/2
f 260/8/2 261/8/2 298/8/2
f 261/8/2 198/8/2 299/8/2
f 298/8/2 261/8/2 299/8/2
f 198/6/2 202/6/2 300/6/2
f 202/7/2 203/7/2 300/7/2
f 282/11/2 283/11/2 301/11/2
f 300/7/2 203/7/2 301/7/2
f 203/11/2 282/11/2 301/11/2
f 283/3/2 284/3/2 302/3/2
f 301/11/2 283/11/2 302/11/2
f 284/6/2 285/6/2 303/6/2
f 302/3/2 284/3/2 303/3/2
f 289/7/2 290/7/2 304/7/2
f 303/6/2 285/6/2 304/6/2
f 293/7/2 294/7/2 304/7/2
f 286/7/2 287/7/2 304/7/2
f 292/7/2 293/7/2 304/7/2
f 287/7/2 288/7/2 304/7/2
f 296/7/2 297/7/2 304/7/2
f 288/7/2 289/7/2 304/7/2
f 294/7/2 295/7/2 304/7/2
f 295/7/2 296/7/2 304/7/2
f 290/7/2 291/7/2 304/7/2
f 285/7/2 286/7/2 304/7/2
f 291/7/2 292/7/2 304/7/2
f 217/6/2 199/6/2 305/6/2
f 304/7/2 297/7/2 305/7/2
f 297/7/2 217/7/2 305/7/2
f 199/8/2 280/8/2 306/8/2
f 280/10/2 281/10/2 306/10/2
f 306/10/2 281/10/2 307/10/2
f 298/9/2 299/9/2 308/9/2
f 299/8/2 198/8/2 309/8/2
f 308/9/2 299/9/2 309/9/2
f 302/6/2 303/6/2 310/6/2
f 309/8/2 198/8/2 310/8/2
f 303/6/2 304/6/2 310/6/2
f 304/6/2 305/6/2 310/6/2
f 301/6/2 302/6/2 310/6/2
f 300/6/2 301/6/2 310/6/2
f 198/6/2 300/6/2 310/6/2
f 305/6/2 199/6/2 311/6/2
f 310/6/2 305/6/2 311/6/2
f 199/8/2 306/8/2 311/8/2
f 308/10/2 309/10/2 312/10/2
f 309/8/2 310/8/2 313/8/2
f 312/10/2 309/10/2 313/10/2
f 310/8/2 311/8/2 313/8/2
f 313/8/2 311/8/2 314/8/2
f 314/8/2 311/8/2 315/8/2
f 315/8/2 311/8/2 316/8/2
f 316/8/2 311/8/2 317/8/2
f 317/8/2 311/8/2 318/8/2
f 318/8/2 311/8/2 319/8/2
f 319/8/2 311/8/2 320/8/2
f 320/8/2 311/8/2 321/8/2
f 321/8/2 311/8/2 322/8/2
f 322/8/2 311/8/2 323/8/2
f 311/8/2 306/8/2 324/8/2
f 323/8/2 311/8/2 324/8/2
f 306/9/2 307/9/2 325/9/2
f 324/8/2 306/8/2 325/8/2
f 325/9/2 307/9/2 326/9/2
f 312/9/2 313/9/2 327/9/2
f 313/9/2 314/9/2 327/9/2
f 314/10/2 315/10/2 328/10/2
f 327/9/2 314/9/2 328/9/2
f 315/8/2 316/8/2 329/8/2
f 328/10/2 315/10/2 329/10/2
f 316/9/2 317/9/2 330/9/2
f 329/8/2 316/8/2 330/8/2
f 317/10/2 318/10/2 331/10/2
f 330/9/2 317/9/2 331/9/2
f 318/9/2 319/9/2 332/9/2
f 331/10/2 318/10/2 332/10/2
f 319/8/2 320/8/2 333/8/2
f 332/9/2 319/9/2 333/9/2
f 320/9/2 321/9/2 334/9/2
f 333/8/2 320/8/2 334/8/2
f 321/10/2 322/10/2 335/10/2
f 334/9/2 321/9/2 335/9/2
f 322/9/2 323/9/2 336/9/2
f 335/10/2 322/10/2 336/10/2
f 323/8/2 324/8/2 337/8/2
f 336/9/2 323/9/2 337/9/2
f 324/10/2 325/10/2 338/10/2
f 337/8/2 324/8/2 338/8/2
f 325/8/2 326/8/2 339/8/2
f 338/10/2 325/10/2 339/10/2
f 339/8/2 326/8/2 340/8/2
f 351/9/3 342/9/3 341/9/3
f 352/8/3 343/8/3 342/8/3
f 352/9/3 342/9/3 351/9/3
f 353/9/3 344/9/3 343/9/3
f 353/8/3 343/8/3 352/8/3
f 354/10/3 345/10/3 344/10/3
f 354/9/3 344/9/3 353/9/3
f 355/9/3 346/9/3 345/9/3
f 355/10/3 345/10/3 354/10/3
f 356/8/3 347/8/3 346/8/3
f 356/9/3 346/9/3 355/9/3
f 357/9/3 348/9/3 347/9/3
f 357/8/3 347/8/3 356/8/3
f 358/10/3 349/10/3 348/10/3
f 358/9/3 348/9/3 357/9/3
f 359/9/3 350/9/3 349/9/3
f 359/10/3 349/10/3 358/10/3
f 360/9/3 350/9/3 359/9/3
f 361/8/4 362/8/4 371/8/4
f 362/9/4 363/9/4 372/9/4
f 371/8/4 362/8/4 372/8/4
f 363/10/4 364/10/4 373/10/4
f 372/9/4 363/9/4 373/9/4
f 364/9/4 365/9/4 374/9/4
f 373/10/4 364/10/4 374/10/4
f 365/8/4 366/8/4 375/8/4
f 374/9/4 365/9/4 375/9/4
f 366/9/4 367/9/4 376/9/4
f 375/8/4 366/8/4 376/8/4
f 367/10/4 368/10/4 377/10/4
f 376/9/4 367/9/4 377/9/4
f 368/9/4 369/9/4 378/9/4
f 377/10/4 368/10/4 378/10/4
f 369/8/4 370/8/4 379/8/4
f 378/9/4 369/9/4 379/9/4
f 379/8/4 370/8/4 380/8/4
f 383/9/5 382/9/5 381/9/5
f 384/9/5 382/9/5 383/9/5
f 385/10/5 384/10/5 383/10/5
f 386/10/5 384/10/5 385/10/5
f 387/8/5 386/8/5 385/8/5
f 388/8/5 386/8/5 387/8/5
f 389/10/5 388/10/5 387/10/5
f 390/10/5 388/10/5 389/10/5
f 391/9/5 390/9/5 389/9/5
f 392/9/5 390/9/5 391/9/5
f 393/8/5 392/8/5 391/8/5
f 394/8/5 392/8/5 393/8/5
f 395/10/5 394/10/5 393/10/5
f 396/10/5 394/10/5 395/10/5
f 397/8/5 396/8/5 395/8/5
f 398/8/5 396/8/5 397/8/5
f 399/9/5 398/9/5 397/9/5
f 400/9/5 398/9/5 399/9/5
f 401/8/5 400/8/5 399/8/5
f 402/8/5 400/8/5 401/8/5
f 403/10/5 402/10/5 401/10/5
f 404/10/5 402/10/5 403/10/5
f 405/8/5 404/8/5 403/8/5
f 406/8/5 404/8/5 405/8/5
f 407/9/6 408/9/6 409/9/6
f 409/9/6 408/9/6 410/9/6
f 409/10/6 410/10/6 411/10/6
f 411/10/6 410/10/6 412/10/6
f 411/8/6 412/8/6 413/8/6
f 413/8/6 412/8/6 414/8/6
f 413/9/6 414/9/6 415/9/6
f 415/9/6 414/9/6 416/9/6
f 415/10/6 416/10/6 417/10/6
f 417/10/6 416/10/6 418/10/6
f 417/9/6 418/9/6 419/9/6
f 419/9/6 418/9/6 420/9/6
f 419/8/6 420/8/6 421/8/6
f 421/8/6 420/8/6 422/8/6
f 421/9/6 422/9/6 423/9/6
f 423/9/6 422/9/6 424/9/6
f 423/10/6 424/10/6 425/10/6
f 425/10/6 424/10/6 426/10/6
f 425/9/6 426/9/6 427/9/6
f 427/9/6 426/9/6 428/9/6
f 427/8/6 428/8/6 429/8/6
f 429/8/6 428/8/6 430/8/6
f 429/10/6 430/10/6 431/10/6
f 431/10/6 430/10/6 432/10/6
f 431/8/6 432/8/6 433/8/6
f 433/8/6 432/8/6 434/8/6
