# MagicaVoxel @ Ephtracy

# group
o 

# material
mtllib playbutton nivel 2.mtl
usemtl palette

# normals
vn -1 0 0
vn 1 0 0
vn 0 0 1
vn 0 0 -1
vn 0 -1 0
vn 0 1 0

# texcoords
vt 0.876953 0.5
vt 0.880859 0.5
vt 0.884766 0.5
vt 0.888672 0.5
vt 0.892578 0.5
vt 0.919922 0.5

# verts
v 0 0 1.5
v 0 0 1.4
v 0 0 1.2
v 0 0 0.8
v 0 0 0.6
v 0 0 0.4
v 0 0 -0.5
v 0 0 -0.7
v 0 0 -0.8
v 0 0 -1.2
v 0 0 -1.3
v 0 0 -1.4
v 0 0 -1.5
v 0 0.1 1.4
v 0 0.1 1.2
v 0 0.1 0.8
v 0 0.1 0.6
v 0 0.1 0.4
v 0 0.1 -0.5
v 0 0.1 -0.7
v 0 0.1 -0.8
v 0 0.1 -1.2
v 0 0.1 -1.3
v 0 0.1 -1.4
v 0 0.1 -1.5
v 0 0.2 1.5
v 0 0.2 1.4
v 0 0.2 1.3
v 0 0.2 -1.3
v 0 0.2 -1.4
v 0 0.2 -1.5
v 0 0.3 1.2
v 0 0.3 1
v 0 0.3 0.9
v 0 0.3 0.8
v 0 0.3 0.5
v 0 0.3 0.1
v 0 0.3 0
v 0 0.3 -0.1
v 0 0.3 -0.2
v 0 0.3 -0.3
v 0 0.3 -0.4
v 0 0.3 -0.5
v 0 0.3 -0.7
v 0 0.3 -0.8
v 0 0.3 -0.9
v 0 0.3 -1.2
v 0 0.3 -1.4
v 0 0.3 -1.5
v 0 0.4 0.4
v 0 0.4 0.3
v 0 0.4 0.1
v 0 0.4 0
v 0 0.5 1.5
v 0 0.5 1.4
v 0 0.5 -1.4
v 0 0.5 -1.5
v 0 0.6 1.5
v 0 0.6 1.4
v 0 0.6 -0.1
v 0 0.6 -0.2
v 0 0.6 -0.3
v 0 0.7 -0.1
v 0 0.7 -0.2
v 0 0.7 -0.3
v 0 0.7 -1.4
v 0 0.7 -1.5
v 0 0.8 1.5
v 0 0.8 1.4
v 0 0.8 0.9
v 0 0.8 0.8
v 0 0.8 0.7
v 0 0.8 0.6
v 0 0.9 1.5
v 0 0.9 1.4
v 0 0.9 0.9
v 0 0.9 0.8
v 0 0.9 0.7
v 0 0.9 0.6
v 0 0.9 0.5
v 0 0.9 -0.2
v 0 0.9 -0.3
v 0 0.9 -0.6
v 0 0.9 -0.7
v 0 0.9 -0.8
v 0 0.9 -0.9
v 0 0.9 -1
v 0 1 0.8
v 0 1 0.7
v 0 1 0
v 0 1 -0.1
v 0 1 -0.3
v 0 1 -0.4
v 0 1 -0.5
v 0 1 -0.6
v 0 1 -0.7
v 0 1 -0.8
v 0 1 -0.9
v 0 1 -1
v 0 1 -1.1
v 0 1 -1.4
v 0 1 -1.5
v 0 1.1 0.9
v 0 1.1 0.7
v 0 1.1 0.6
v 0 1.1 0.5
v 0 1.1 0.4
v 0 1.1 0.3
v 0 1.1 -0.1
v 0 1.1 -0.3
v 0 1.1 -0.4
v 0 1.1 -0.5
v 0 1.1 -0.6
v 0 1.1 -0.7
v 0 1.1 -0.9
v 0 1.1 -1
v 0 1.1 -1.1
v 0 1.2 1.5
v 0 1.2 1.4
v 0 1.2 1.2
v 0 1.2 1
v 0 1.2 0.7
v 0 1.2 0.6
v 0 1.2 -1.2
v 0 1.2 -1.4
v 0 1.2 -1.5
v 0 1.3 1.5
v 0 1.3 1.4
v 0 1.3 1.3
v 0 1.3 -1.3
v 0 1.4 1.5
v 0 1.4 1.4
v 0 1.4 1.3
v 0 1.4 1.2
v 0 1.4 0.8
v 0 1.4 0.1
v 0 1.4 -0.1
v 0 1.4 -0.2
v 0 1.4 -0.6
v 0 1.4 -0.8
v 0 1.4 -0.9
v 0 1.4 -1
v 0 1.4 -1.3
v 0 1.4 -1.4
v 0 1.4 -1.5
v 0 1.5 1.5
v 0 1.5 1.3
v 0 1.5 1.2
v 0 1.5 0.8
v 0 1.5 0.1
v 0 1.5 -0.1
v 0 1.5 -0.2
v 0 1.5 -0.6
v 0 1.5 -0.8
v 0 1.5 -0.9
v 0 1.5 -1
v 0 1.5 -1.3
v 0 1.5 -1.4
v 0 1.5 -1.5
v 0.1 0 1.5
v 0.1 0 1.4
v 0.1 0 1.2
v 0.1 0 0.8
v 0.1 0 0.6
v 0.1 0 0.4
v 0.1 0 -0.5
v 0.1 0 -0.7
v 0.1 0 -0.8
v 0.1 0 -1.2
v 0.1 0 -1.3
v 0.1 0 -1.4
v 0.1 0 -1.5
v 0.1 0.1 1.4
v 0.1 0.1 1.2
v 0.1 0.1 0.8
v 0.1 0.1 0.6
v 0.1 0.1 0.4
v 0.1 0.1 -0.5
v 0.1 0.1 -0.7
v 0.1 0.1 -0.8
v 0.1 0.1 -1.2
v 0.1 0.1 -1.3
v 0.1 0.1 -1.4
v 0.1 0.1 -1.5
v 0.1 0.2 1.5
v 0.1 0.2 1.4
v 0.1 0.2 1.3
v 0.1 0.2 -1.3
v 0.1 0.2 -1.4
v 0.1 0.2 -1.5
v 0.1 0.3 1.2
v 0.1 0.3 1
v 0.1 0.3 0.9
v 0.1 0.3 0.8
v 0.1 0.3 0.5
v 0.1 0.3 0.1
v 0.1 0.3 0
v 0.1 0.3 -0.1
v 0.1 0.3 -0.2
v 0.1 0.3 -0.3
v 0.1 0.3 -0.4
v 0.1 0.3 -0.5
v 0.1 0.3 -0.7
v 0.1 0.3 -0.8
v 0.1 0.3 -0.9
v 0.1 0.3 -1.2
v 0.1 0.3 -1.4
v 0.1 0.3 -1.5
v 0.1 0.4 0.4
v 0.1 0.4 0.3
v 0.1 0.4 0.1
v 0.1 0.4 0
v 0.1 0.5 1.5
v 0.1 0.5 1.4
v 0.1 0.5 -1.4
v 0.1 0.5 -1.5
v 0.1 0.6 1.5
v 0.1 0.6 1.4
v 0.1 0.6 -0.1
v 0.1 0.6 -0.2
v 0.1 0.6 -0.3
v 0.1 0.7 -0.1
v 0.1 0.7 -0.2
v 0.1 0.7 -0.3
v 0.1 0.7 -1.4
v 0.1 0.7 -1.5
v 0.1 0.8 1.5
v 0.1 0.8 1.4
v 0.1 0.8 0.9
v 0.1 0.8 0.8
v 0.1 0.8 0.7
v 0.1 0.8 0.6
v 0.1 0.9 1.5
v 0.1 0.9 1.4
v 0.1 0.9 0.9
v 0.1 0.9 0.8
v 0.1 0.9 0.7
v 0.1 0.9 0.6
v 0.1 0.9 0.5
v 0.1 0.9 -0.2
v 0.1 0.9 -0.3
v 0.1 0.9 -0.6
v 0.1 0.9 -0.7
v 0.1 0.9 -0.8
v 0.1 0.9 -0.9
v 0.1 0.9 -1
v 0.1 1 0.8
v 0.1 1 0.7
v 0.1 1 0
v 0.1 1 -0.1
v 0.1 1 -0.3
v 0.1 1 -0.4
v 0.1 1 -0.5
v 0.1 1 -0.6
v 0.1 1 -0.7
v 0.1 1 -0.8
v 0.1 1 -0.9
v 0.1 1 -1
v 0.1 1 -1.1
v 0.1 1 -1.4
v 0.1 1 -1.5
v 0.1 1.1 0.9
v 0.1 1.1 0.7
v 0.1 1.1 0.6
v 0.1 1.1 0.5
v 0.1 1.1 0.4
v 0.1 1.1 0.3
v 0.1 1.1 -0.1
v 0.1 1.1 -0.3
v 0.1 1.1 -0.4
v 0.1 1.1 -0.5
v 0.1 1.1 -0.6
v 0.1 1.1 -0.7
v 0.1 1.1 -0.9
v 0.1 1.1 -1
v 0.1 1.1 -1.1
v 0.1 1.2 1.5
v 0.1 1.2 1.4
v 0.1 1.2 1.2
v 0.1 1.2 1
v 0.1 1.2 0.7
v 0.1 1.2 0.6
v 0.1 1.2 -1.2
v 0.1 1.2 -1.4
v 0.1 1.2 -1.5
v 0.1 1.3 1.5
v 0.1 1.3 1.4
v 0.1 1.3 1.3
v 0.1 1.3 -1.3
v 0.1 1.4 1.5
v 0.1 1.4 1.4
v 0.1 1.4 1.3
v 0.1 1.4 1.2
v 0.1 1.4 0.8
v 0.1 1.4 0.1
v 0.1 1.4 -0.1
v 0.1 1.4 -0.2
v 0.1 1.4 -0.6
v 0.1 1.4 -0.8
v 0.1 1.4 -0.9
v 0.1 1.4 -1
v 0.1 1.4 -1.3
v 0.1 1.4 -1.4
v 0.1 1.4 -1.5
v 0.1 1.5 1.5
v 0.1 1.5 1.3
v 0.1 1.5 1.2
v 0.1 1.5 0.8
v 0.1 1.5 0.1
v 0.1 1.5 -0.1
v 0.1 1.5 -0.2
v 0.1 1.5 -0.6
v 0.1 1.5 -0.8
v 0.1 1.5 -0.9
v 0.1 1.5 -1
v 0.1 1.5 -1.3
v 0.1 1.5 -1.4
v 0.1 1.5 -1.5
v 0 0 1.5
v 0 0.2 1.5
v 0 0.5 1.5
v 0 0.6 1.5
v 0 0.8 1.5
v 0 0.9 1.5
v 0 1.2 1.5
v 0 1.3 1.5
v 0 1.4 1.5
v 0 1.5 1.5
v 0.1 0 1.5
v 0.1 0.2 1.5
v 0.1 0.5 1.5
v 0.1 0.6 1.5
v 0.1 0.8 1.5
v 0.1 0.9 1.5
v 0.1 1.2 1.5
v 0.1 1.3 1.5
v 0.1 1.4 1.5
v 0.1 1.5 1.5
v 0 0 -1.5
v 0 0.1 -1.5
v 0 0.2 -1.5
v 0 0.3 -1.5
v 0 0.5 -1.5
v 0 0.7 -1.5
v 0 1 -1.5
v 0 1.2 -1.5
v 0 1.4 -1.5
v 0 1.5 -1.5
v 0.1 0 -1.5
v 0.1 0.1 -1.5
v 0.1 0.2 -1.5
v 0.1 0.3 -1.5
v 0.1 0.5 -1.5
v 0.1 0.7 -1.5
v 0.1 1 -1.5
v 0.1 1.2 -1.5
v 0.1 1.4 -1.5
v 0.1 1.5 -1.5
v 0 0 1.5
v 0.1 0 1.5
v 0 0 1.4
v 0.1 0 1.4
v 0 0 1.2
v 0.1 0 1.2
v 0 0 0.8
v 0.1 0 0.8
v 0 0 0.6
v 0.1 0 0.6
v 0 0 0.4
v 0.1 0 0.4
v 0 0 -0.5
v 0.1 0 -0.5
v 0 0 -0.7
v 0.1 0 -0.7
v 0 0 -0.8
v 0.1 0 -0.8
v 0 0 -1.2
v 0.1 0 -1.2
v 0 0 -1.3
v 0.1 0 -1.3
v 0 0 -1.4
v 0.1 0 -1.4
v 0 0 -1.5
v 0.1 0 -1.5
v 0 1.5 1.5
v 0.1 1.5 1.5
v 0 1.5 1.3
v 0.1 1.5 1.3
v 0 1.5 1.2
v 0.1 1.5 1.2
v 0 1.5 0.8
v 0.1 1.5 0.8
v 0 1.5 0.1
v 0.1 1.5 0.1
v 0 1.5 -0.1
v 0.1 1.5 -0.1
v 0 1.5 -0.2
v 0.1 1.5 -0.2
v 0 1.5 -0.6
v 0.1 1.5 -0.6
v 0 1.5 -0.8
v 0.1 1.5 -0.8
v 0 1.5 -0.9
v 0.1 1.5 -0.9
v 0 1.5 -1
v 0.1 1.5 -1
v 0 1.5 -1.3
v 0.1 1.5 -1.3
v 0 1.5 -1.4
v 0.1 1.5 -1.4
v 0 1.5 -1.5
v 0.1 1.5 -1.5

# faces
f 14/4/1 2/4/1 1/4/1
f 14/5/1 3/5/1 2/5/1
f 15/3/1 4/3/1 3/3/1
f 15/5/1 3/5/1 14/5/1
f 16/5/1 5/5/1 4/5/1
f 16/3/1 4/3/1 15/3/1
f 17/4/1 6/4/1 5/4/1
f 17/5/1 5/5/1 16/5/1
f 18/3/1 7/3/1 6/3/1
f 18/4/1 6/4/1 17/4/1
f 19/5/1 8/5/1 7/5/1
f 19/3/1 7/3/1 18/3/1
f 20/3/1 9/3/1 8/3/1
f 20/5/1 8/5/1 19/5/1
f 21/4/1 10/4/1 9/4/1
f 21/3/1 9/3/1 20/3/1
f 22/3/1 11/3/1 10/3/1
f 22/4/1 10/4/1 21/4/1
f 23/5/1 12/5/1 11/5/1
f 23/3/1 11/3/1 22/3/1
f 24/3/1 13/3/1 12/3/1
f 24/5/1 12/5/1 23/5/1
f 25/3/1 13/3/1 24/3/1
f 26/4/1 14/4/1 1/4/1
f 27/3/1 23/3/1 22/3/1
f 27/4/1 14/4/1 26/4/1
f 27/3/1 22/3/1 21/3/1
f 27/3/1 15/3/1 14/3/1
f 27/3/1 24/3/1 23/3/1
f 27/3/1 21/3/1 20/3/1
f 27/3/1 20/3/1 19/3/1
f 27/3/1 19/3/1 18/3/1
f 27/3/1 18/3/1 17/3/1
f 27/3/1 17/3/1 16/3/1
f 27/3/1 16/3/1 15/3/1
f 28/3/1 24/3/1 27/3/1
f 29/3/1 24/3/1 28/3/1
f 30/4/1 25/4/1 24/4/1
f 30/3/1 24/3/1 29/3/1
f 31/4/1 25/4/1 30/4/1
f 32/1/1 29/1/1 28/1/1
f 33/1/1 29/1/1 32/1/1
f 34/1/1 29/1/1 33/1/1
f 35/1/1 29/1/1 34/1/1
f 36/1/1 29/1/1 35/1/1
f 37/1/1 29/1/1 36/1/1
f 38/1/1 29/1/1 37/1/1
f 39/1/1 29/1/1 38/1/1
f 40/1/1 29/1/1 39/1/1
f 41/1/1 29/1/1 40/1/1
f 42/1/1 29/1/1 41/1/1
f 43/1/1 29/1/1 42/1/1
f 44/1/1 29/1/1 43/1/1
f 45/1/1 29/1/1 44/1/1
f 46/1/1 29/1/1 45/1/1
f 47/1/1 29/1/1 46/1/1
f 48/3/1 30/3/1 29/3/1
f 48/5/1 31/5/1 30/5/1
f 49/5/1 31/5/1 48/5/1
f 50/6/1 37/6/1 36/6/1
f 51/6/1 37/6/1 50/6/1
f 52/1/1 38/1/1 37/1/1
f 52/6/1 37/6/1 51/6/1
f 53/6/1 39/6/1 38/6/1
f 53/1/1 38/1/1 52/1/1
f 54/3/1 27/3/1 26/3/1
f 54/3/1 28/3/1 27/3/1
f 55/3/1 28/3/1 54/3/1
f 56/3/1 48/3/1 29/3/1
f 56/4/1 49/4/1 48/4/1
f 57/4/1 49/4/1 56/4/1
f 58/4/1 55/4/1 54/4/1
f 59/3/1 28/3/1 55/3/1
f 59/4/1 55/4/1 58/4/1
f 60/6/1 39/6/1 53/6/1
f 60/1/1 40/1/1 39/1/1
f 61/2/1 41/2/1 40/2/1
f 61/1/1 40/1/1 60/1/1
f 62/6/1 42/6/1 41/6/1
f 62/2/1 41/2/1 61/2/1
f 63/6/1 60/6/1 53/6/1
f 63/6/1 61/6/1 60/6/1
f 63/6/1 62/6/1 61/6/1
f 64/6/1 62/6/1 63/6/1
f 65/6/1 42/6/1 62/6/1
f 65/6/1 62/6/1 64/6/1
f 66/3/1 57/3/1 56/3/1
f 66/3/1 56/3/1 29/3/1
f 67/3/1 57/3/1 66/3/1
f 68/5/1 59/5/1 58/5/1
f 69/3/1 28/3/1 59/3/1
f 69/5/1 59/5/1 68/5/1
f 70/6/1 34/6/1 33/6/1
f 70/1/1 35/1/1 34/1/1
f 71/2/1 36/2/1 35/2/1
f 71/1/1 35/1/1 70/1/1
f 72/2/1 36/2/1 71/2/1
f 73/2/1 36/2/1 72/2/1
f 74/4/1 69/4/1 68/4/1
f 75/3/1 28/3/1 69/3/1
f 75/4/1 69/4/1 74/4/1
f 76/6/1 70/6/1 33/6/1
f 76/6/1 71/6/1 70/6/1
f 76/6/1 72/6/1 71/6/1
f 77/6/1 72/6/1 76/6/1
f 78/1/1 73/1/1 72/1/1
f 78/6/1 72/6/1 77/6/1
f 79/2/1 36/2/1 73/2/1
f 79/1/1 73/1/1 78/1/1
f 80/6/1 50/6/1 36/6/1
f 80/2/1 36/2/1 79/2/1
f 81/1/1 64/1/1 63/1/1
f 81/2/1 65/2/1 64/2/1
f 82/6/1 42/6/1 65/6/1
f 82/2/1 65/2/1 81/2/1
f 83/2/1 44/2/1 43/2/1
f 84/6/1 45/6/1 44/6/1
f 84/2/1 44/2/1 83/2/1
f 85/1/1 46/1/1 45/1/1
f 85/6/1 45/6/1 84/6/1
f 86/2/1 47/2/1 46/2/1
f 86/1/1 46/1/1 85/1/1
f 87/2/1 47/2/1 86/2/1
f 88/2/1 78/2/1 77/2/1
f 88/1/1 77/1/1 76/1/1
f 89/6/1 79/6/1 78/6/1
f 89/2/1 78/2/1 88/2/1
f 90/2/1 53/2/1 52/2/1
f 90/2/1 52/2/1 51/2/1
f 90/6/1 63/6/1 53/6/1
f 91/1/1 81/1/1 63/1/1
f 91/6/1 63/6/1 90/6/1
f 91/1/1 82/1/1 81/1/1
f 92/6/1 42/6/1 82/6/1
f 92/1/1 82/1/1 91/1/1
f 93/1/1 43/1/1 42/1/1
f 93/6/1 42/6/1 92/6/1
f 94/2/1 83/2/1 43/2/1
f 94/1/1 43/1/1 93/1/1
f 95/6/1 84/6/1 83/6/1
f 95/2/1 83/2/1 94/2/1
f 96/1/1 85/1/1 84/1/1
f 96/6/1 84/6/1 95/6/1
f 97/6/1 86/6/1 85/6/1
f 97/1/1 85/1/1 96/1/1
f 98/1/1 87/1/1 86/1/1
f 98/6/1 86/6/1 97/6/1
f 99/2/1 47/2/1 87/2/1
f 99/1/1 87/1/1 98/1/1
f 100/2/1 47/2/1 99/2/1
f 101/3/1 66/3/1 29/3/1
f 101/4/1 67/4/1 66/4/1
f 102/4/1 67/4/1 101/4/1
f 103/1/1 89/1/1 88/1/1
f 103/1/1 88/1/1 76/1/1
f 103/6/1 76/6/1 33/6/1
f 104/6/1 79/6/1 89/6/1
f 104/1/1 89/1/1 103/1/1
f 105/1/1 80/1/1 79/1/1
f 105/6/1 79/6/1 104/6/1
f 106/6/1 50/6/1 80/6/1
f 106/1/1 80/1/1 105/1/1
f 107/1/1 51/1/1 50/1/1
f 107/6/1 50/6/1 106/6/1
f 108/2/1 90/2/1 51/2/1
f 108/1/1 51/1/1 107/1/1
f 108/2/1 91/2/1 90/2/1
f 109/6/1 92/6/1 91/6/1
f 109/2/1 91/2/1 108/2/1
f 110/1/1 93/1/1 92/1/1
f 110/6/1 92/6/1 109/6/1
f 111/2/1 94/2/1 93/2/1
f 111/1/1 93/1/1 110/1/1
f 112/6/1 95/6/1 94/6/1
f 112/2/1 94/2/1 111/2/1
f 113/1/1 96/1/1 95/1/1
f 113/6/1 95/6/1 112/6/1
f 114/2/1 98/2/1 97/2/1
f 114/1/1 96/1/1 113/1/1
f 114/2/1 97/2/1 96/2/1
f 115/6/1 99/6/1 98/6/1
f 115/2/1 98/2/1 114/2/1
f 116/1/1 100/1/1 99/1/1
f 116/6/1 99/6/1 115/6/1
f 117/2/1 47/2/1 100/2/1
f 117/1/1 100/1/1 116/1/1
f 118/3/1 75/3/1 74/3/1
f 119/3/1 28/3/1 75/3/1
f 119/3/1 75/3/1 118/3/1
f 120/1/1 32/1/1 28/1/1
f 120/2/1 33/2/1 32/2/1
f 121/6/1 103/6/1 33/6/1
f 121/2/1 33/2/1 120/2/1
f 121/6/1 104/6/1 103/6/1
f 122/1/1 105/1/1 104/1/1
f 122/6/1 104/6/1 121/6/1
f 123/2/1 111/2/1 110/2/1
f 123/1/1 105/1/1 122/1/1
f 123/2/1 113/2/1 112/2/1
f 123/2/1 106/2/1 105/2/1
f 123/2/1 107/2/1 106/2/1
f 123/2/1 115/2/1 114/2/1
f 123/2/1 116/2/1 115/2/1
f 123/2/1 112/2/1 111/2/1
f 123/2/1 117/2/1 116/2/1
f 123/2/1 108/2/1 107/2/1
f 123/2/1 114/2/1 113/2/1
f 123/2/1 109/2/1 108/2/1
f 123/2/1 110/2/1 109/2/1
f 124/1/1 29/1/1 47/1/1
f 124/2/1 117/2/1 123/2/1
f 124/2/1 47/2/1 117/2/1
f 125/3/1 101/3/1 29/3/1
f 125/5/1 102/5/1 101/5/1
f 126/5/1 102/5/1 125/5/1
f 127/4/1 119/4/1 118/4/1
f 128/3/1 28/3/1 119/3/1
f 128/4/1 119/4/1 127/4/1
f 129/1/1 120/1/1 28/1/1
f 129/3/1 28/3/1 128/3/1
f 129/1/1 123/1/1 122/1/1
f 129/1/1 122/1/1 121/1/1
f 129/1/1 121/1/1 120/1/1
f 129/1/1 124/1/1 123/1/1
f 130/3/1 125/3/1 29/3/1
f 130/1/1 124/1/1 129/1/1
f 130/1/1 29/1/1 124/1/1
f 131/5/1 128/5/1 127/5/1
f 132/3/1 129/3/1 128/3/1
f 132/5/1 128/5/1 131/5/1
f 132/3/1 130/3/1 129/3/1
f 133/3/1 130/3/1 132/3/1
f 134/3/1 130/3/1 133/3/1
f 135/3/1 130/3/1 134/3/1
f 136/3/1 130/3/1 135/3/1
f 137/3/1 130/3/1 136/3/1
f 138/3/1 130/3/1 137/3/1
f 139/3/1 130/3/1 138/3/1
f 140/3/1 130/3/1 139/3/1
f 141/3/1 130/3/1 140/3/1
f 142/3/1 130/3/1 141/3/1
f 143/3/1 125/3/1 130/3/1
f 143/3/1 130/3/1 142/3/1
f 144/4/1 126/4/1 125/4/1
f 144/3/1 125/3/1 143/3/1
f 145/4/1 126/4/1 144/4/1
f 146/4/1 132/4/1 131/4/1
f 146/4/1 133/4/1 132/4/1
f 147/5/1 134/5/1 133/5/1
f 147/4/1 133/4/1 146/4/1
f 148/3/1 135/3/1 134/3/1
f 148/5/1 134/5/1 147/5/1
f 149/4/1 136/4/1 135/4/1
f 149/3/1 135/3/1 148/3/1
f 150/5/1 137/5/1 136/5/1
f 150/4/1 136/4/1 149/4/1
f 151/4/1 138/4/1 137/4/1
f 151/5/1 137/5/1 150/5/1
f 152/3/1 139/3/1 138/3/1
f 152/4/1 138/4/1 151/4/1
f 153/4/1 140/4/1 139/4/1
f 153/3/1 139/3/1 152/3/1
f 154/5/1 141/5/1 140/5/1
f 154/4/1 140/4/1 153/4/1
f 155/4/1 142/4/1 141/4/1
f 155/5/1 141/5/1 154/5/1
f 156/3/1 143/3/1 142/3/1
f 156/4/1 142/4/1 155/4/1
f 157/5/1 144/5/1 143/5/1
f 157/3/1 143/3/1 156/3/1
f 158/3/1 145/3/1 144/3/1
f 158/5/1 144/5/1 157/5/1
f 159/3/1 145/3/1 158/3/1
f 160/4/2 161/4/2 173/4/2
f 161/5/2 162/5/2 173/5/2
f 162/3/2 163/3/2 174/3/2
f 173/5/2 162/5/2 174/5/2
f 163/5/2 164/5/2 175/5/2
f 174/3/2 163/3/2 175/3/2
f 164/4/2 165/4/2 176/4/2
f 175/5/2 164/5/2 176/5/2
f 165/3/2 166/3/2 177/3/2
f 176/4/2 165/4/2 177/4/2
f 166/5/2 167/5/2 178/5/2
f 177/3/2 166/3/2 178/3/2
f 167/3/2 168/3/2 179/3/2
f 178/5/2 167/5/2 179/5/2
f 168/4/2 169/4/2 180/4/2
f 179/3/2 168/3/2 180/3/2
f 169/3/2 170/3/2 181/3/2
f 180/4/2 169/4/2 181/4/2
f 170/5/2 171/5/2 182/5/2
f 181/3/2 170/3/2 182/3/2
f 171/3/2 172/3/2 183/3/2
f 182/5/2 171/5/2 183/5/2
f 183/3/2 172/3/2 184/3/2
f 160/4/2 173/4/2 185/4/2
f 181/3/2 182/3/2 186/3/2
f 185/4/2 173/4/2 186/4/2
f 180/3/2 181/3/2 186/3/2
f 173/3/2 174/3/2 186/3/2
f 182/3/2 183/3/2 186/3/2
f 179/3/2 180/3/2 186/3/2
f 178/3/2 179/3/2 186/3/2
f 177/3/2 178/3/2 186/3/2
f 176/3/2 177/3/2 186/3/2
f 175/3/2 176/3/2 186/3/2
f 174/3/2 175/3/2 186/3/2
f 186/3/2 183/3/2 187/3/2
f 187/3/2 183/3/2 188/3/2
f 183/4/2 184/4/2 189/4/2
f 188/3/2 183/3/2 189/3/2
f 189/4/2 184/4/2 190/4/2
f 187/1/2 188/1/2 191/1/2
f 191/1/2 188/1/2 192/1/2
f 192/1/2 188/1/2 193/1/2
f 193/1/2 188/1/2 194/1/2
f 194/1/2 188/1/2 195/1/2
f 195/1/2 188/1/2 196/1/2
f 196/1/2 188/1/2 197/1/2
f 197/1/2 188/1/2 198/1/2
f 198/1/2 188/1/2 199/1/2
f 199/1/2 188/1/2 200/1/2
f 200/1/2 188/1/2 201/1/2
f 201/1/2 188/1/2 202/1/2
f 202/1/2 188/1/2 203/1/2
f 203/1/2 188/1/2 204/1/2
f 204/1/2 188/1/2 205/1/2
f 205/1/2 188/1/2 206/1/2
f 188/3/2 189/3/2 207/3/2
f 189/5/2 190/5/2 207/5/2
f 207/5/2 190/5/2 208/5/2
f 195/6/2 196/6/2 209/6/2
f 209/6/2 196/6/2 210/6/2
f 196/1/2 197/1/2 211/1/2
f 210/6/2 196/6/2 211/6/2
f 197/6/2 198/6/2 212/6/2
f 211/1/2 197/1/2 212/1/2
f 185/3/2 186/3/2 213/3/2
f 186/3/2 187/3/2 213/3/2
f 213/3/2 187/3/2 214/3/2
f 188/3/2 207/3/2 215/3/2
f 207/4/2 208/4/2 215/4/2
f 215/4/2 208/4/2 216/4/2
f 213/4/2 214/4/2 217/4/2
f 214/3/2 187/3/2 218/3/2
f 217/4/2 214/4/2 218/4/2
f 212/6/2 198/6/2 219/6/2
f 198/1/2 199/1/2 219/1/2
f 199/2/2 200/2/2 220/2/2
f 219/1/2 199/1/2 220/1/2
f 200/6/2 201/6/2 221/6/2
f 220/2/2 200/2/2 221/2/2
f 212/6/2 219/6/2 222/6/2
f 219/6/2 220/6/2 222/6/2
f 220/6/2 221/6/2 222/6/2
f 222/6/2 221/6/2 223/6/2
f 221/6/2 201/6/2 224/6/2
f 223/6/2 221/6/2 224/6/2
f 215/3/2 216/3/2 225/3/2
f 188/3/2 215/3/2 225/3/2
f 225/3/2 216/3/2 226/3/2
f 217/5/2 218/5/2 227/5/2
f 218/3/2 187/3/2 228/3/2
f 227/5/2 218/5/2 228/5/2
f 192/6/2 193/6/2 229/6/2
f 193/1/2 194/1/2 229/1/2
f 194/2/2 195/2/2 230/2/2
f 229/1/2 194/1/2 230/1/2
f 230/2/2 195/2/2 231/2/2
f 231/2/2 195/2/2 232/2/2
f 227/4/2 228/4/2 233/4/2
f 228/3/2 187/3/2 234/3/2
f 233/4/2 228/4/2 234/4/2
f 192/6/2 229/6/2 235/6/2
f 229/6/2 230/6/2 235/6/2
f 230/6/2 231/6/2 235/6/2
f 235/6/2 231/6/2 236/6/2
f 231/1/2 232/1/2 237/1/2
f 236/6/2 231/6/2 237/6/2
f 232/2/2 195/2/2 238/2/2
f 237/1/2 232/1/2 238/1/2
f 195/6/2 209/6/2 239/6/2
f 238/2/2 195/2/2 239/2/2
f 222/1/2 223/1/2 240/1/2
f 223/2/2 224/2/2 240/2/2
f 224/6/2 201/6/2 241/6/2
f 240/2/2 224/2/2 241/2/2
f 202/2/2 203/2/2 242/2/2
f 203/6/2 204/6/2 243/6/2
f 242/2/2 203/2/2 243/2/2
f 204/1/2 205/1/2 244/1/2
f 243/6/2 204/6/2 244/6/2
f 205/2/2 206/2/2 245/2/2
f 244/1/2 205/1/2 245/1/2
f 245/2/2 206/2/2 246/2/2
f 236/2/2 237/2/2 247/2/2
f 235/1/2 236/1/2 247/1/2
f 237/6/2 238/6/2 248/6/2
f 247/2/2 237/2/2 248/2/2
f 211/2/2 212/2/2 249/2/2
f 210/2/2 211/2/2 249/2/2
f 212/6/2 222/6/2 249/6/2
f 222/1/2 240/1/2 250/1/2
f 249/6/2 222/6/2 250/6/2
f 240/1/2 241/1/2 250/1/2
f 241/6/2 201/6/2 251/6/2
f 250/1/2 241/1/2 251/1/2
f 201/1/2 202/1/2 252/1/2
f 251/6/2 201/6/2 252/6/2
f 202/2/2 242/2/2 253/2/2
f 252/1/2 202/1/2 253/1/2
f 242/6/2 243/6/2 254/6/2
f 253/2/2 242/2/2 254/2/2
f 243/1/2 244/1/2 255/1/2
f 254/6/2 243/6/2 255/6/2
f 244/6/2 245/6/2 256/6/2
f 255/1/2 244/1/2 256/1/2
f 245/1/2 246/1/2 257/1/2
f 256/6/2 245/6/2 257/6/2
f 246/2/2 206/2/2 258/2/2
f 257/1/2 246/1/2 258/1/2
f 258/2/2 206/2/2 259/2/2
f 188/3/2 225/3/2 260/3/2
f 225/4/2 226/4/2 260/4/2
f 260/4/2 226/4/2 261/4/2
f 247/1/2 248/1/2 262/1/2
f 235/1/2 247/1/2 262/1/2
f 192/6/2 235/6/2 262/6/2
f 248/6/2 238/6/2 263/6/2
f 262/1/2 248/1/2 263/1/2
f 238/1/2 239/1/2 264/1/2
f 263/6/2 238/6/2 264/6/2
f 239/6/2 209/6/2 265/6/2
f 264/1/2 239/1/2 265/1/2
f 209/1/2 210/1/2 266/1/2
f 265/6/2 209/6/2 266/6/2
f 210/2/2 249/2/2 267/2/2
f 266/1/2 210/1/2 267/1/2
f 249/2/2 250/2/2 267/2/2
f 250/6/2 251/6/2 268/6/2
f 267/2/2 250/2/2 268/2/2
f 251/1/2 252/1/2 269/1/2
f 268/6/2 251/6/2 269/6/2
f 252/2/2 253/2/2 270/2/2
f 269/1/2 252/1/2 270/1/2
f 253/6/2 254/6/2 271/6/2
f 270/2/2 253/2/2 271/2/2
f 254/1/2 255/1/2 272/1/2
f 271/6/2 254/6/2 272/6/2
f 256/2/2 257/2/2 273/2/2
f 272/1/2 255/1/2 273/1/2
f 255/2/2 256/2/2 273/2/2
f 257/6/2 258/6/2 274/6/2
f 273/2/2 257/2/2 274/2/2
f 258/1/2 259/1/2 275/1/2
f 274/6/2 258/6/2 275/6/2
f 259/2/2 206/2/2 276/2/2
f 275/1/2 259/1/2 276/1/2
f 233/3/2 234/3/2 277/3/2
f 234/3/2 187/3/2 278/3/2
f 277/3/2 234/3/2 278/3/2
f 187/1/2 191/1/2 279/1/2
f 191/2/2 192/2/2 279/2/2
f 192/6/2 262/6/2 280/6/2
f 279/2/2 192/2/2 280/2/2
f 262/6/2 263/6/2 280/6/2
f 263/1/2 264/1/2 281/1/2
f 280/6/2 263/6/2 281/6/2
f 269/2/2 270/2/2 282/2/2
f 281/1/2 264/1/2 282/1/2
f 271/2/2 272/2/2 282/2/2
f 264/2/2 265/2/2 282/2/2
f 265/2/2 266/2/2 282/2/2
f 273/2/2 274/2/2 282/2/2
f 274/2/2 275/2/2 282/2/2
f 270/2/2 271/2/2 282/2/2
f 275/2/2 276/2/2 282/2/2
f 266/2/2 267/2/2 282/2/2
f 272/2/2 273/2/2 282/2/2
f 267/2/2 268/2/2 282/2/2
f 268/2/2 269/2/2 282/2/2
f 206/1/2 188/1/2 283/1/2
f 282/2/2 276/2/2 283/2/2
f 276/2/2 206/2/2 283/2/2
f 188/3/2 260/3/2 284/3/2
f 260/5/2 261/5/2 284/5/2
f 284/5/2 261/5/2 285/5/2
f 277/4/2 278/4/2 286/4/2
f 278/3/2 187/3/2 287/3/2
f 286/4/2 278/4/2 287/4/2
f 187/1/2 279/1/2 288/1/2
f 287/3/2 187/3/2 288/3/2
f 281/1/2 282/1/2 288/1/2
f 280/1/2 281/1/2 288/1/2
f 279/1/2 280/1/2 288/1/2
f 282/1/2 283/1/2 288/1/2
f 188/3/2 284/3/2 289/3/2
f 288/1/2 283/1/2 289/1/2
f 283/1/2 188/1/2 289/1/2
f 286/5/2 287/5/2 290/5/2
f 287/3/2 288/3/2 291/3/2
f 290/5/2 287/5/2 291/5/2
f 288/3/2 289/3/2 291/3/2
f 291/3/2 289/3/2 292/3/2
f 292/3/2 289/3/2 293/3/2
f 293/3/2 289/3/2 294/3/2
f 294/3/2 289/3/2 295/3/2
f 295/3/2 289/3/2 296/3/2
f 296/3/2 289/3/2 297/3/2
f 297/3/2 289/3/2 298/3/2
f 298/3/2 289/3/2 299/3/2
f 299/3/2 289/3/2 300/3/2
f 300/3/2 289/3/2 301/3/2
f 289/3/2 284/3/2 302/3/2
f 301/3/2 289/3/2 302/3/2
f 284/4/2 285/4/2 303/4/2
f 302/3/2 284/3/2 303/3/2
f 303/4/2 285/4/2 304/4/2
f 290/4/2 291/4/2 305/4/2
f 291/4/2 292/4/2 305/4/2
f 292/5/2 293/5/2 306/5/2
f 305/4/2 292/4/2 306/4/2
f 293/3/2 294/3/2 307/3/2
f 306/5/2 293/5/2 307/5/2
f 294/4/2 295/4/2 308/4/2
f 307/3/2 294/3/2 308/3/2
f 295/5/2 296/5/2 309/5/2
f 308/4/2 295/4/2 309/4/2
f 296/4/2 297/4/2 310/4/2
f 309/5/2 296/5/2 310/5/2
f 297/3/2 298/3/2 311/3/2
f 310/4/2 297/4/2 311/4/2
f 298/4/2 299/4/2 312/4/2
f 311/3/2 298/3/2 312/3/2
f 299/5/2 300/5/2 313/5/2
f 312/4/2 299/4/2 313/4/2
f 300/4/2 301/4/2 314/4/2
f 313/5/2 300/5/2 314/5/2
f 301/3/2 302/3/2 315/3/2
f 314/4/2 301/4/2 315/4/2
f 302/5/2 303/5/2 316/5/2
f 315/3/2 302/3/2 316/3/2
f 303/3/2 304/3/2 317/3/2
f 316/5/2 303/5/2 317/5/2
f 317/3/2 304/3/2 318/3/2
f 329/4/3 320/4/3 319/4/3
f 330/3/3 321/3/3 320/3/3
f 330/4/3 320/4/3 329/4/3
f 331/4/3 322/4/3 321/4/3
f 331/3/3 321/3/3 330/3/3
f 332/5/3 323/5/3 322/5/3
f 332/4/3 322/4/3 331/4/3
f 333/4/3 324/4/3 323/4/3
f 333/5/3 323/5/3 332/5/3
f 334/3/3 325/3/3 324/3/3
f 334/4/3 324/4/3 333/4/3
f 335/4/3 326/4/3 325/4/3
f 335/3/3 325/3/3 334/3/3
f 336/5/3 327/5/3 326/5/3
f 336/4/3 326/4/3 335/4/3
f 337/4/3 328/4/3 327/4/3
f 337/5/3 327/5/3 336/5/3
f 338/4/3 328/4/3 337/4/3
f 339/3/4 340/3/4 349/3/4
f 340/4/4 341/4/4 350/4/4
f 349/3/4 340/3/4 350/3/4
f 341/5/4 342/5/4 351/5/4
f 350/4/4 341/4/4 351/4/4
f 342/4/4 343/4/4 352/4/4
f 351/5/4 342/5/4 352/5/4
f 343/3/4 344/3/4 353/3/4
f 352/4/4 343/4/4 353/4/4
f 344/4/4 345/4/4 354/4/4
f 353/3/4 344/3/4 354/3/4
f 345/5/4 346/5/4 355/5/4
f 354/4/4 345/4/4 355/4/4
f 346/4/4 347/4/4 356/4/4
f 355/5/4 346/5/4 356/5/4
f 347/3/4 348/3/4 357/3/4
f 356/4/4 347/4/4 357/4/4
f 357/3/4 348/3/4 358/3/4
f 361/4/5 360/4/5 359/4/5
f 362/4/5 360/4/5 361/4/5
f 363/5/5 362/5/5 361/5/5
f 364/5/5 362/5/5 363/5/5
f 365/3/5 364/3/5 363/3/5
f 366/3/5 364/3/5 365/3/5
f 367/5/5 366/5/5 365/5/5
f 368/5/5 366/5/5 367/5/5
f 369/4/5 368/4/5 367/4/5
f 370/4/5 368/4/5 369/4/5
f 371/3/5 370/3/5 369/3/5
f 372/3/5 370/3/5 371/3/5
f 373/5/5 372/5/5 371/5/5
f 374/5/5 372/5/5 373/5/5
f 375/3/5 374/3/5 373/3/5
f 376/3/5 374/3/5 375/3/5
f 377/4/5 376/4/5 375/4/5
f 378/4/5 376/4/5 377/4/5
f 379/3/5 378/3/5 377/3/5
f 380/3/5 378/3/5 379/3/5
f 381/5/5 380/5/5 379/5/5
f 382/5/5 380/5/5 381/5/5
f 383/3/5 382/3/5 381/3/5
f 384/3/5 382/3/5 383/3/5
f 385/4/6 386/4/6 387/4/6
f 387/4/6 386/4/6 388/4/6
f 387/5/6 388/5/6 389/5/6
f 389/5/6 388/5/6 390/5/6
f 389/3/6 390/3/6 391/3/6
f 391/3/6 390/3/6 392/3/6
f 391/4/6 392/4/6 393/4/6
f 393/4/6 392/4/6 394/4/6
f 393/5/6 394/5/6 395/5/6
f 395/5/6 394/5/6 396/5/6
f 395/4/6 396/4/6 397/4/6
f 397/4/6 396/4/6 398/4/6
f 397/3/6 398/3/6 399/3/6
f 399/3/6 398/3/6 400/3/6
f 399/4/6 400/4/6 401/4/6
f 401/4/6 400/4/6 402/4/6
f 401/5/6 402/5/6 403/5/6
f 403/5/6 402/5/6 404/5/6
f 403/4/6 404/4/6 405/4/6
f 405/4/6 404/4/6 406/4/6
f 405/3/6 406/3/6 407/3/6
f 407/3/6 406/3/6 408/3/6
f 407/5/6 408/5/6 409/5/6
f 409/5/6 408/5/6 410/5/6
f 409/3/6 410/3/6 411/3/6
f 411/3/6 410/3/6 412/3/6
