# MagicaVoxel @ Ephtracy

# group
o 

# material
mtllib palo2.mtl
usemtl palette

# normals
vn -1 0 0
vn 1 0 0
vn 0 0 1
vn 0 0 -1
vn 0 -1 0
vn 0 1 0

# texcoords
vt 0.876953 0.5
vt 0.884766 0.5

# verts
v -0.9 0 0.1
v -0.9 0 0
v -0.9 0.1 0.2
v -0.9 0.1 0.1
v -0.9 0.1 0
v -0.9 0.2 0.2
v -0.9 0.2 0.1
v -0.7 0.1 0.1
v -0.7 0.1 0
v -0.7 0.2 0.1
v -0.7 0.2 0
v -0.6 0 0
v -0.6 0 -0.1
v -0.6 0.1 0
v -0.6 0.1 -0.1
v -0.2 0 0
v -0.2 0 -0.1
v -0.2 0.1 0
v -0.2 0.1 -0.1
v 0 0.1 0
v 0 0.1 -0.1
v 0 0.2 0
v 0 0.2 -0.1
v 0.1 0 0
v 0.1 0 -0.1
v 0.1 0.1 0
v 0.1 0.1 -0.1
v 0.3 0 0.1
v 0.3 0 0
v 0.3 0.1 0.1
v 0.3 0.1 0
v 0.6 0 0
v 0.6 0 -0.1
v 0.6 0.1 0
v 0.6 0.1 -0.1
v -0.8 0.1 0.2
v -0.8 0.1 0.1
v -0.8 0.2 0.2
v -0.8 0.2 0.1
v -0.4 0 0
v -0.4 0 -0.1
v -0.4 0.1 0
v -0.4 0.1 -0.1
v 0 0 0
v 0 0 -0.1
v 0 0.1 0.1
v 0 0.1 0
v 0 0.1 -0.1
v 0 0.2 0.1
v 0 0.2 0
v 0.2 0 0.1
v 0.2 0 0
v 0.2 0.1 0.1
v 0.2 0.1 0
v 0.4 0 0
v 0.4 0 -0.1
v 0.4 0.1 0
v 0.4 0.1 -0.1
v 0.5 0 0.1
v 0.5 0 0
v 0.5 0.1 0.1
v 0.5 0.1 0
v 0.9 0 0
v 0.9 0 -0.1
v 0.9 0.2 0
v 0.9 0.2 -0.1
v -0.9 0.1 0.2
v -0.9 0.2 0.2
v -0.8 0.1 0.2
v -0.8 0.2 0.2
v -0.9 0 0.1
v -0.9 0.1 0.1
v -0.8 0.1 0.1
v -0.7 0.1 0.1
v -0.7 0.2 0.1
v -0.3 0 0.1
v -0.3 0.1 0.1
v -0.3 0.2 0.1
v -0.1 0 0.1
v -0.1 0.1 0.1
v 0 0.1 0.1
v 0 0.2 0.1
v 0.2 0 0.1
v 0.2 0.1 0.1
v 0.3 0 0.1
v 0.3 0.1 0.1
v 0.5 0 0.1
v 0.5 0.1 0.1
v 0 0.1 0
v 0 0.2 0
v 0.2 0 0
v 0.2 0.1 0
v 0.3 0 0
v 0.3 0.1 0
v 0.5 0.1 0
v 0.6 0 0
v 0.6 0.1 0
v 0.6 0.2 0
v 0.7 0 0
v 0.7 0.1 0
v 0.9 0 0
v 0.9 0.2 0
v -0.9 0.1 0.1
v -0.9 0.2 0.1
v -0.8 0.1 0.1
v -0.8 0.2 0.1
v -0.9 0 0
v -0.9 0.1 0
v -0.7 0.1 0
v -0.7 0.2 0
v -0.6 0 0
v -0.6 0.1 0
v -0.4 0 0
v -0.4 0.1 0
v -0.3 0 0
v -0.3 0.1 0
v -0.3 0.2 0
v -0.2 0 0
v -0.2 0.1 0
v -0.1 0.1 0
v 0 0 0
v 0 0.1 0
v 0 0.2 0
v 0.1 0 0
v 0.1 0.1 0
v 0.4 0 0
v 0.4 0.1 0
v 0.5 0 0
v 0.5 0.1 0
v -0.6 0 -0.1
v -0.6 0.1 -0.1
v -0.4 0 -0.1
v -0.4 0.1 -0.1
v -0.2 0 -0.1
v -0.2 0.1 -0.1
v -0.1 0 -0.1
v -0.1 0.1 -0.1
v 0 0 -0.1
v 0 0.1 -0.1
v 0 0.2 -0.1
v 0.1 0 -0.1
v 0.1 0.1 -0.1
v 0.4 0 -0.1
v 0.4 0.1 -0.1
v 0.6 0 -0.1
v 0.6 0.1 -0.1
v 0.6 0.2 -0.1
v 0.7 0 -0.1
v 0.7 0.1 -0.1
v 0.9 0 -0.1
v 0.9 0.2 -0.1
v -0.9 0 0.1
v -0.3 0 0.1
v -0.1 0 0.1
v 0.2 0 0.1
v 0.3 0 0.1
v 0.5 0 0.1
v -0.9 0 0
v -0.6 0 0
v -0.4 0 0
v -0.3 0 0
v -0.2 0 0
v 0 0 0
v 0.1 0 0
v 0.2 0 0
v 0.3 0 0
v 0.4 0 0
v 0.5 0 0
v 0.6 0 0
v 0.7 0 0
v 0.9 0 0
v -0.6 0 -0.1
v -0.4 0 -0.1
v -0.2 0 -0.1
v -0.1 0 -0.1
v 0 0 -0.1
v 0.1 0 -0.1
v 0.4 0 -0.1
v 0.6 0 -0.1
v 0.7 0 -0.1
v 0.9 0 -0.1
v -0.9 0.1 0.2
v -0.8 0.1 0.2
v -0.9 0.1 0.1
v -0.8 0.1 0.1
v 0 0.1 0
v 0.1 0.1 0
v 0.4 0.1 0
v 0.5 0.1 0
v 0.6 0.1 0
v 0 0.1 -0.1
v 0.1 0.1 -0.1
v 0.4 0.1 -0.1
v 0.6 0.1 -0.1
v -0.9 0.1 0.1
v -0.8 0.1 0.1
v -0.7 0.1 0.1
v 0 0.1 0.1
v 0.2 0.1 0.1
v 0.3 0.1 0.1
v 0.5 0.1 0.1
v -0.9 0.1 0
v -0.7 0.1 0
v -0.6 0.1 0
v -0.4 0.1 0
v -0.2 0.1 0
v -0.1 0.1 0
v 0 0.1 0
v 0.2 0.1 0
v 0.3 0.1 0
v 0.5 0.1 0
v -0.6 0.1 -0.1
v -0.4 0.1 -0.1
v -0.2 0.1 -0.1
v -0.1 0.1 -0.1
v 0 0.1 -0.1
v -0.9 0.2 0.2
v -0.8 0.2 0.2
v -0.9 0.2 0.1
v -0.8 0.2 0.1
v -0.7 0.2 0.1
v -0.3 0.2 0.1
v 0 0.2 0.1
v -0.7 0.2 0
v -0.3 0.2 0
v 0 0.2 0
v 0.6 0.2 0
v 0.9 0.2 0
v 0 0.2 -0.1
v 0.6 0.2 -0.1
v 0.9 0.2 -0.1

# faces
f 4/1/1 2/1/1 1/1/1
f 5/1/1 2/1/1 4/1/1
f 6/1/1 4/1/1 3/1/1
f 7/1/1 4/1/1 6/1/1
f 10/2/1 9/2/1 8/2/1
f 11/2/1 9/2/1 10/2/1
f 14/1/1 13/1/1 12/1/1
f 15/1/1 13/1/1 14/1/1
f 18/2/1 17/2/1 16/2/1
f 19/2/1 17/2/1 18/2/1
f 22/2/1 21/2/1 20/2/1
f 23/2/1 21/2/1 22/2/1
f 26/1/1 25/1/1 24/1/1
f 27/1/1 25/1/1 26/1/1
f 30/2/1 29/2/1 28/2/1
f 31/2/1 29/2/1 30/2/1
f 34/2/1 33/2/1 32/2/1
f 35/2/1 33/2/1 34/2/1
f 36/1/2 37/1/2 38/1/2
f 38/1/2 37/1/2 39/1/2
f 40/1/2 41/1/2 42/1/2
f 42/1/2 41/1/2 43/1/2
f 44/1/2 45/1/2 47/1/2
f 47/1/2 45/1/2 48/1/2
f 46/1/2 47/1/2 49/1/2
f 49/1/2 47/1/2 50/1/2
f 51/1/2 52/1/2 53/1/2
f 53/1/2 52/1/2 54/1/2
f 55/1/2 56/1/2 57/1/2
f 57/1/2 56/1/2 58/1/2
f 59/2/2 60/2/2 61/2/2
f 61/2/2 60/2/2 62/2/2
f 63/1/2 64/1/2 65/1/2
f 65/1/2 64/1/2 66/1/2
f 69/1/3 68/1/3 67/1/3
f 70/1/3 68/1/3 69/1/3
f 73/1/3 72/1/3 71/1/3
f 74/1/3 73/1/3 71/1/3
f 76/1/3 74/1/3 71/1/3
f 77/2/3 75/2/3 74/2/3
f 77/1/3 74/1/3 76/1/3
f 78/2/3 75/2/3 77/2/3
f 79/2/3 77/2/3 76/2/3
f 80/1/3 78/1/3 77/1/3
f 80/2/3 77/2/3 79/2/3
f 81/1/3 80/1/3 79/1/3
f 81/1/3 78/1/3 80/1/3
f 82/1/3 78/1/3 81/1/3
f 83/1/3 81/1/3 79/1/3
f 84/1/3 81/1/3 83/1/3
f 87/2/3 86/2/3 85/2/3
f 88/2/3 86/2/3 87/2/3
f 92/2/3 90/2/3 89/2/3
f 93/1/3 92/1/3 91/1/3
f 94/2/3 90/2/3 92/2/3
f 94/1/3 92/1/3 93/1/3
f 95/2/3 90/2/3 94/2/3
f 97/2/3 90/2/3 95/2/3
f 98/2/3 90/2/3 97/2/3
f 99/2/3 97/2/3 96/2/3
f 100/1/3 98/1/3 97/1/3
f 100/2/3 97/2/3 99/2/3
f 101/1/3 100/1/3 99/1/3
f 102/1/3 98/1/3 100/1/3
f 102/1/3 100/1/3 101/1/3
f 103/1/4 104/1/4 105/1/4
f 105/1/4 104/1/4 106/1/4
f 107/1/4 108/1/4 109/1/4
f 107/1/4 109/1/4 111/1/4
f 109/2/4 110/2/4 112/2/4
f 111/1/4 109/1/4 112/1/4
f 112/2/4 110/2/4 114/2/4
f 113/1/4 114/1/4 115/1/4
f 114/2/4 110/2/4 116/2/4
f 115/1/4 114/1/4 116/1/4
f 116/2/4 110/2/4 117/2/4
f 115/2/4 116/2/4 118/2/4
f 116/1/4 117/1/4 119/1/4
f 118/2/4 116/2/4 119/2/4
f 119/1/4 117/1/4 120/1/4
f 120/1/4 117/1/4 122/1/4
f 122/1/4 117/1/4 123/1/4
f 121/1/4 122/1/4 124/1/4
f 124/1/4 122/1/4 125/1/4
f 126/2/4 127/2/4 128/2/4
f 128/2/4 127/2/4 129/2/4
f 130/1/4 131/1/4 132/1/4
f 132/1/4 131/1/4 133/1/4
f 134/2/4 135/2/4 136/2/4
f 136/2/4 135/2/4 137/2/4
f 136/1/4 137/1/4 138/1/4
f 138/1/4 137/1/4 139/1/4
f 139/2/4 140/2/4 142/2/4
f 141/1/4 142/1/4 143/1/4
f 142/2/4 140/2/4 144/2/4
f 143/1/4 142/1/4 144/1/4
f 144/2/4 140/2/4 146/2/4
f 146/2/4 140/2/4 147/2/4
f 145/2/4 146/2/4 148/2/4
f 146/1/4 147/1/4 149/1/4
f 148/2/4 146/2/4 149/2/4
f 148/1/4 149/1/4 150/1/4
f 149/1/4 147/1/4 151/1/4
f 150/1/4 149/1/4 151/1/4
f 158/1/5 153/1/5 152/1/5
f 159/1/5 153/1/5 158/1/5
f 160/1/5 153/1/5 159/1/5
f 161/2/5 154/2/5 153/2/5
f 161/1/5 153/1/5 160/1/5
f 162/2/5 154/2/5 161/2/5
f 163/1/5 155/1/5 154/1/5
f 164/1/5 155/1/5 163/1/5
f 165/1/5 155/1/5 164/1/5
f 166/2/5 157/2/5 156/2/5
f 167/2/5 157/2/5 166/2/5
f 168/2/5 157/2/5 167/2/5
f 172/1/5 160/1/5 159/1/5
f 173/1/5 160/1/5 172/1/5
f 174/2/5 154/2/5 162/2/5
f 175/1/5 163/1/5 154/1/5
f 175/2/5 154/2/5 174/2/5
f 176/1/5 163/1/5 175/1/5
f 177/1/5 165/1/5 164/1/5
f 177/1/5 167/1/5 166/1/5
f 177/1/5 166/1/5 165/1/5
f 178/1/5 167/1/5 177/1/5
f 179/2/5 170/2/5 169/2/5
f 180/1/5 171/1/5 170/1/5
f 180/2/5 170/2/5 179/2/5
f 181/1/5 171/1/5 180/1/5
f 184/1/5 183/1/5 182/1/5
f 185/1/5 183/1/5 184/1/5
f 191/2/5 187/2/5 186/2/5
f 192/2/5 187/2/5 191/2/5
f 193/2/5 190/2/5 189/2/5
f 193/2/5 189/2/5 188/2/5
f 194/2/5 190/2/5 193/2/5
f 195/1/6 196/1/6 202/1/6
f 196/1/6 197/1/6 202/1/6
f 202/1/6 197/1/6 203/1/6
f 198/1/6 199/1/6 208/1/6
f 208/1/6 199/1/6 209/1/6
f 200/2/6 201/2/6 210/2/6
f 210/2/6 201/2/6 211/2/6
f 204/1/6 205/1/6 212/1/6
f 212/1/6 205/1/6 213/1/6
f 206/2/6 207/2/6 214/2/6
f 207/1/6 208/1/6 215/1/6
f 214/2/6 207/2/6 215/2/6
f 215/1/6 208/1/6 216/1/6
f 217/1/6 218/1/6 219/1/6
f 219/1/6 218/1/6 220/1/6
f 221/2/6 222/2/6 224/2/6
f 222/1/6 223/1/6 225/1/6
f 224/2/6 222/2/6 225/2/6
f 225/1/6 223/1/6 226/1/6
f 226/2/6 227/2/6 229/2/6
f 227/1/6 228/1/6 230/1/6
f 229/2/6 227/2/6 230/2/6
f 230/1/6 228/1/6 231/1/6
