# MagicaVoxel @ Ephtracy

# group
o 

# material
mtllib palo1.mtl
usemtl palette

# normals
vn -1 0 0
vn 1 0 0
vn 0 0 1
vn 0 0 -1
vn 0 -1 0
vn 0 1 0

# texcoords
vt 0.876953 0.5
vt 0.888672 0.5

# verts
v -0.9 0 -0.1
v -0.9 0 -0.2
v -0.9 0.1 -0.1
v -0.9 0.1 -0.2
v -0.9 0.1 -0.3
v -0.9 0.2 -0.2
v -0.9 0.2 -0.3
v -0.8 0.1 -0.1
v -0.8 0.1 -0.2
v -0.8 0.2 -0.1
v -0.8 0.2 -0.2
v -0.7 0.1 0
v -0.7 0.1 -0.1
v -0.7 0.2 0
v -0.7 0.2 -0.1
v -0.6 0 -0.1
v -0.6 0 -0.2
v -0.6 0.1 -0.1
v -0.6 0.1 -0.2
v -0.3 0.1 0
v -0.3 0.1 -0.1
v -0.3 0.2 0
v -0.3 0.2 -0.1
v -0.1 0.1 -0.1
v -0.1 0.1 -0.2
v -0.1 0.2 -0.1
v -0.1 0.2 -0.2
v 0 0.1 0.1
v 0 0.1 0
v 0 0.2 0.1
v 0 0.2 0
v 0.1 0 0
v 0.1 0 -0.1
v 0.1 0.1 0
v 0.1 0.1 -0.1
v 0.2 0.1 0.1
v 0.2 0.1 0
v 0.2 0.2 0.1
v 0.2 0.2 0
v 0.5 0.1 0
v 0.5 0.1 -0.1
v 0.5 0.2 0
v 0.5 0.2 -0.1
v 0.6 0 0
v 0.6 0 -0.1
v 0.6 0.1 0
v 0.6 0.1 -0.1
v 0.7 0 0.1
v 0.7 0 0
v 0.7 0.1 0.1
v 0.7 0.1 0
v 0.8 0 0
v 0.8 0 -0.1
v 0.8 0.1 0
v 0.8 0.1 -0.1
v -0.7 0 -0.1
v -0.7 0 -0.2
v -0.7 0.1 -0.1
v -0.7 0.1 -0.2
v -0.6 0.1 -0.2
v -0.6 0.1 -0.3
v -0.6 0.2 -0.2
v -0.6 0.2 -0.3
v -0.4 0.1 0
v -0.4 0.1 -0.1
v -0.4 0.2 0
v -0.4 0.2 -0.1
v -0.3 0 -0.1
v -0.3 0 -0.2
v -0.3 0.1 -0.1
v -0.3 0.1 -0.2
v -0.2 0.1 -0.1
v -0.2 0.1 -0.2
v -0.2 0.2 -0.1
v -0.2 0.2 -0.2
v 0.1 0.1 0.1
v 0.1 0.1 0
v 0.1 0.2 0.1
v 0.1 0.2 0
v 0.2 0.1 -0.1
v 0.2 0.1 -0.2
v 0.2 0.2 -0.1
v 0.2 0.2 -0.2
v 0.3 0.1 0
v 0.3 0.1 -0.1
v 0.3 0.2 0
v 0.3 0.2 -0.1
v 0.4 0 0
v 0.4 0 -0.1
v 0.4 0.1 0
v 0.4 0.1 -0.1
v 0.6 0.1 0
v 0.6 0.1 -0.1
v 0.6 0.2 0
v 0.6 0.2 -0.1
v 0.7 0 0
v 0.7 0 -0.1
v 0.7 0.1 0
v 0.7 0.1 -0.1
v 0.9 0 0.1
v 0.9 0 -0.1
v 0.9 0.1 0
v 0.9 0.1 -0.1
v 0.9 0.2 0.1
v 0.9 0.2 0
v 0 0.1 0.1
v 0 0.2 0.1
v 0.1 0.1 0.1
v 0.1 0.2 0.1
v 0.2 0.1 0.1
v 0.2 0.2 0.1
v 0.3 0.1 0.1
v 0.3 0.2 0.1
v 0.4 0.1 0.1
v 0.4 0.2 0.1
v 0.7 0 0.1
v 0.7 0.1 0.1
v 0.7 0.2 0.1
v 0.8 0.1 0.1
v 0.8 0.2 0.1
v 0.9 0 0.1
v 0.9 0.2 0.1
v -0.7 0.1 0
v -0.7 0.2 0
v -0.6 0.1 0
v -0.6 0.2 0
v -0.5 0.1 0
v -0.5 0.2 0
v -0.4 0.1 0
v -0.4 0.2 0
v -0.3 0.1 0
v -0.3 0.2 0
v -0.2 0.1 0
v -0.2 0.2 0
v 0 0.1 0
v 0 0.2 0
v 0.1 0 0
v 0.1 0.1 0
v 0.1 0.2 0
v 0.2 0.1 0
v 0.2 0.2 0
v 0.3 0 0
v 0.3 0.1 0
v 0.4 0 0
v 0.4 0.1 0
v 0.6 0 0
v 0.6 0.1 0
v 0.7 0 0
v 0.7 0.1 0
v -0.9 0 -0.1
v -0.9 0.1 -0.1
v -0.8 0.1 -0.1
v -0.8 0.2 -0.1
v -0.7 0 -0.1
v -0.7 0.1 -0.1
v -0.7 0.2 -0.1
v -0.6 0 -0.1
v -0.6 0.1 -0.1
v -0.5 0.1 -0.1
v -0.4 0.1 -0.1
v -0.4 0.2 -0.1
v -0.3 0 -0.1
v -0.3 0.1 -0.1
v -0.3 0.2 -0.1
v -0.9 0.1 -0.2
v -0.9 0.2 -0.2
v -0.8 0.1 -0.2
v -0.8 0.2 -0.2
v 0.3 0.1 0
v 0.3 0.2 0
v 0.4 0.1 0
v 0.4 0.2 0
v 0.5 0.1 0
v 0.5 0.2 0
v 0.6 0.1 0
v 0.6 0.2 0
v 0.7 0 0
v 0.7 0.1 0
v 0.7 0.2 0
v 0.8 0 0
v 0.8 0.1 0
v 0.8 0.2 0
v 0.9 0.1 0
v 0.9 0.2 0
v -0.2 0.1 -0.1
v -0.2 0.2 -0.1
v -0.1 0.1 -0.1
v -0.1 0.2 -0.1
v 0.1 0 -0.1
v 0.1 0.1 -0.1
v 0.2 0.1 -0.1
v 0.2 0.2 -0.1
v 0.3 0 -0.1
v 0.3 0.1 -0.1
v 0.3 0.2 -0.1
v 0.4 0 -0.1
v 0.4 0.1 -0.1
v 0.5 0.1 -0.1
v 0.5 0.2 -0.1
v 0.6 0 -0.1
v 0.6 0.1 -0.1
v 0.6 0.2 -0.1
v 0.7 0 -0.1
v 0.7 0.1 -0.1
v 0.8 0 -0.1
v 0.8 0.1 -0.1
v 0.9 0 -0.1
v 0.9 0.1 -0.1
v -0.9 0 -0.2
v -0.9 0.1 -0.2
v -0.7 0 -0.2
v -0.7 0.1 -0.2
v -0.6 0 -0.2
v -0.6 0.1 -0.2
v -0.6 0.2 -0.2
v -0.5 0.1 -0.2
v -0.5 0.2 -0.2
v -0.3 0 -0.2
v -0.3 0.1 -0.2
v -0.3 0.2 -0.2
v -0.2 0.1 -0.2
v -0.2 0.2 -0.2
v -0.1 0.1 -0.2
v -0.1 0.2 -0.2
v 0.2 0.1 -0.2
v 0.2 0.2 -0.2
v -0.9 0.1 -0.3
v -0.9 0.2 -0.3
v -0.7 0.1 -0.3
v -0.7 0.2 -0.3
v -0.6 0.1 -0.3
v -0.6 0.2 -0.3
v 0.7 0 0.1
v 0.9 0 0.1
v 0.1 0 0
v 0.3 0 0
v 0.4 0 0
v 0.6 0 0
v 0.7 0 0
v 0.8 0 0
v -0.9 0 -0.1
v -0.7 0 -0.1
v -0.6 0 -0.1
v -0.3 0 -0.1
v 0.1 0 -0.1
v 0.3 0 -0.1
v 0.4 0 -0.1
v 0.6 0 -0.1
v 0.7 0 -0.1
v 0.8 0 -0.1
v 0.9 0 -0.1
v -0.9 0 -0.2
v -0.7 0 -0.2
v -0.6 0 -0.2
v -0.3 0 -0.2
v 0 0.1 0.1
v 0.1 0.1 0.1
v 0.2 0.1 0.1
v 0.3 0.1 0.1
v 0.4 0.1 0.1
v 0.7 0.1 0.1
v -0.7 0.1 0
v -0.6 0.1 0
v -0.5 0.1 0
v -0.4 0.1 0
v -0.3 0.1 0
v -0.2 0.1 0
v 0 0.1 0
v 0.1 0.1 0
v 0.2 0.1 0
v 0.3 0.1 0
v 0.4 0.1 0
v 0.5 0.1 0
v 0.6 0.1 0
v 0.7 0.1 0
v -0.7 0.1 -0.1
v -0.6 0.1 -0.1
v -0.5 0.1 -0.1
v -0.4 0.1 -0.1
v -0.3 0.1 -0.1
v -0.2 0.1 -0.1
v -0.1 0.1 -0.1
v 0 0.1 -0.1
v 0.1 0.1 -0.1
v 0.2 0.1 -0.1
v 0.5 0.1 -0.1
v 0.6 0.1 -0.1
v -0.9 0.1 -0.2
v -0.7 0.1 -0.2
v -0.6 0.1 -0.2
v -0.3 0.1 -0.2
v -0.2 0.1 -0.2
v -0.1 0.1 -0.2
v 0.2 0.1 -0.2
v -0.9 0.1 -0.3
v -0.7 0.1 -0.3
v -0.6 0.1 -0.3
v 0.3 0.1 0
v 0.4 0.1 0
v 0.6 0.1 0
v 0.7 0.1 0
v 0.8 0.1 0
v 0.9 0.1 0
v -0.9 0.1 -0.1
v -0.8 0.1 -0.1
v 0.3 0.1 -0.1
v 0.4 0.1 -0.1
v 0.6 0.1 -0.1
v 0.7 0.1 -0.1
v 0.8 0.1 -0.1
v 0.9 0.1 -0.1
v -0.9 0.1 -0.2
v -0.8 0.1 -0.2
v 0 0.2 0.1
v 0.1 0.2 0.1
v 0.2 0.2 0.1
v 0.3 0.2 0.1
v 0.4 0.2 0.1
v 0.7 0.2 0.1
v 0.8 0.2 0.1
v 0.9 0.2 0.1
v -0.7 0.2 0
v -0.6 0.2 0
v -0.5 0.2 0
v -0.4 0.2 0
v -0.3 0.2 0
v -0.2 0.2 0
v 0 0.2 0
v 0.1 0.2 0
v 0.2 0.2 0
v 0.3 0.2 0
v 0.4 0.2 0
v 0.5 0.2 0
v 0.6 0.2 0
v 0.7 0.2 0
v 0.8 0.2 0
v 0.9 0.2 0
v -0.8 0.2 -0.1
v -0.7 0.2 -0.1
v -0.4 0.2 -0.1
v -0.3 0.2 -0.1
v -0.2 0.2 -0.1
v -0.1 0.2 -0.1
v 0 0.2 -0.1
v 0.2 0.2 -0.1
v 0.3 0.2 -0.1
v 0.5 0.2 -0.1
v 0.6 0.2 -0.1
v -0.9 0.2 -0.2
v -0.8 0.2 -0.2
v -0.7 0.2 -0.2
v -0.6 0.2 -0.2
v -0.5 0.2 -0.2
v -0.3 0.2 -0.2
v -0.2 0.2 -0.2
v -0.1 0.2 -0.2
v 0.2 0.2 -0.2
v -0.9 0.2 -0.3
v -0.7 0.2 -0.3
v -0.6 0.2 -0.3

# faces
f 3/1/1 2/1/1 1/1/1
f 4/1/1 2/1/1 3/1/1
f 6/1/1 5/1/1 4/1/1
f 7/1/1 5/1/1 6/1/1
f 10/2/1 9/2/1 8/2/1
f 11/2/1 9/2/1 10/2/1
f 14/1/1 13/1/1 12/1/1
f 15/1/1 13/1/1 14/1/1
f 18/1/1 17/1/1 16/1/1
f 19/1/1 17/1/1 18/1/1
f 22/1/1 21/1/1 20/1/1
f 23/1/1 21/1/1 22/1/1
f 26/1/1 25/1/1 24/1/1
f 27/1/1 25/1/1 26/1/1
f 30/1/1 29/1/1 28/1/1
f 31/1/1 29/1/1 30/1/1
f 34/1/1 33/1/1 32/1/1
f 35/1/1 33/1/1 34/1/1
f 38/1/1 37/1/1 36/1/1
f 39/1/1 37/1/1 38/1/1
f 42/2/1 41/2/1 40/2/1
f 43/2/1 41/2/1 42/2/1
f 46/1/1 45/1/1 44/1/1
f 47/1/1 45/1/1 46/1/1
f 50/1/1 49/1/1 48/1/1
f 51/1/1 49/1/1 50/1/1
f 54/1/1 53/1/1 52/1/1
f 55/1/1 53/1/1 54/1/1
f 56/1/2 57/1/2 58/1/2
f 58/1/2 57/1/2 59/1/2
f 60/2/2 61/2/2 62/2/2
f 62/2/2 61/2/2 63/2/2
f 64/1/2 65/1/2 66/1/2
f 66/1/2 65/1/2 67/1/2
f 68/1/2 69/1/2 70/1/2
f 70/1/2 69/1/2 71/1/2
f 72/2/2 73/2/2 74/2/2
f 74/2/2 73/2/2 75/2/2
f 76/1/2 77/1/2 78/1/2
f 78/1/2 77/1/2 79/1/2
f 80/1/2 81/1/2 82/1/2
f 82/1/2 81/1/2 83/1/2
f 84/2/2 85/2/2 86/2/2
f 86/2/2 85/2/2 87/2/2
f 88/2/2 89/2/2 90/2/2
f 90/2/2 89/2/2 91/2/2
f 92/2/2 93/2/2 94/2/2
f 94/2/2 93/2/2 95/2/2
f 96/1/2 97/1/2 98/1/2
f 98/1/2 97/1/2 99/1/2
f 100/1/2 101/1/2 102/1/2
f 102/1/2 101/1/2 103/1/2
f 100/1/2 102/1/2 104/1/2
f 104/1/2 102/1/2 105/1/2
f 108/1/3 107/1/3 106/1/3
f 109/1/3 107/1/3 108/1/3
f 112/1/3 111/1/3 110/1/3
f 113/1/3 111/1/3 112/1/3
f 114/2/3 113/2/3 112/2/3
f 115/2/3 113/2/3 114/2/3
f 117/1/3 115/1/3 114/1/3
f 118/1/3 115/1/3 117/1/3
f 119/1/3 117/1/3 116/1/3
f 119/2/3 118/2/3 117/2/3
f 120/2/3 118/2/3 119/2/3
f 121/1/3 119/1/3 116/1/3
f 121/1/3 120/1/3 119/1/3
f 122/1/3 120/1/3 121/1/3
f 125/1/3 124/1/3 123/1/3
f 126/1/3 124/1/3 125/1/3
f 127/2/3 126/2/3 125/2/3
f 128/2/3 126/2/3 127/2/3
f 129/1/3 128/1/3 127/1/3
f 130/1/3 128/1/3 129/1/3
f 133/1/3 132/1/3 131/1/3
f 134/1/3 132/1/3 133/1/3
f 135/2/3 134/2/3 133/2/3
f 136/2/3 134/2/3 135/2/3
f 140/1/3 138/1/3 137/1/3
f 140/1/3 139/1/3 138/1/3
f 141/1/3 139/1/3 140/1/3
f 142/1/3 140/1/3 137/1/3
f 143/1/3 140/1/3 142/1/3
f 144/2/3 143/2/3 142/2/3
f 145/2/3 143/2/3 144/2/3
f 148/1/3 147/1/3 146/1/3
f 149/1/3 147/1/3 148/1/3
f 152/1/3 151/1/3 150/1/3
f 154/1/3 152/1/3 150/1/3
f 155/2/3 153/2/3 152/2/3
f 155/1/3 152/1/3 154/1/3
f 156/2/3 153/2/3 155/2/3
f 159/1/3 158/1/3 157/1/3
f 160/1/3 159/1/3 157/1/3
f 162/1/3 160/1/3 157/1/3
f 162/1/3 161/1/3 160/1/3
f 163/1/3 161/1/3 162/1/3
f 164/1/3 161/1/3 163/1/3
f 167/1/3 166/1/3 165/1/3
f 168/1/3 166/1/3 167/1/3
f 169/2/4 170/2/4 171/2/4
f 171/2/4 170/2/4 172/2/4
f 171/1/4 172/1/4 173/1/4
f 173/1/4 172/1/4 174/1/4
f 175/1/4 176/1/4 178/1/4
f 178/1/4 176/1/4 179/1/4
f 177/1/4 178/1/4 180/1/4
f 178/2/4 179/2/4 181/2/4
f 180/1/4 178/1/4 181/1/4
f 181/2/4 179/2/4 182/2/4
f 181/1/4 182/1/4 183/1/4
f 183/1/4 182/1/4 184/1/4
f 185/2/4 186/2/4 187/2/4
f 187/2/4 186/2/4 188/2/4
f 189/1/4 190/1/4 191/1/4
f 189/1/4 191/1/4 193/1/4
f 191/2/4 192/2/4 194/2/4
f 193/1/4 191/1/4 194/1/4
f 194/2/4 192/2/4 195/2/4
f 193/2/4 194/2/4 196/2/4
f 196/2/4 194/2/4 197/2/4
f 198/2/4 199/2/4 201/2/4
f 201/2/4 199/2/4 202/2/4
f 200/1/4 201/1/4 203/1/4
f 203/1/4 201/1/4 204/1/4
f 205/1/4 206/1/4 207/1/4
f 207/1/4 206/1/4 208/1/4
f 209/1/4 210/1/4 211/1/4
f 211/1/4 210/1/4 212/1/4
f 213/1/4 214/1/4 216/1/4
f 214/2/4 215/2/4 216/2/4
f 216/2/4 215/2/4 217/2/4
f 213/1/4 216/1/4 218/1/4
f 216/1/4 217/1/4 218/1/4
f 218/1/4 217/1/4 219/1/4
f 219/1/4 217/1/4 220/1/4
f 219/2/4 220/2/4 221/2/4
f 221/2/4 220/2/4 222/2/4
f 223/1/4 224/1/4 225/1/4
f 225/1/4 224/1/4 226/1/4
f 227/1/4 228/1/4 229/1/4
f 229/1/4 228/1/4 230/1/4
f 229/2/4 230/2/4 231/2/4
f 231/2/4 230/2/4 232/2/4
f 239/1/5 234/1/5 233/1/5
f 240/1/5 234/1/5 239/1/5
f 245/1/5 236/1/5 235/1/5
f 246/2/5 237/2/5 236/2/5
f 246/1/5 236/1/5 245/1/5
f 247/2/5 237/2/5 246/2/5
f 248/1/5 239/1/5 238/1/5
f 249/1/5 239/1/5 248/1/5
f 250/1/5 234/1/5 240/1/5
f 251/1/5 234/1/5 250/1/5
f 252/1/5 242/1/5 241/1/5
f 253/1/5 242/1/5 252/1/5
f 254/1/5 244/1/5 243/1/5
f 255/1/5 244/1/5 254/1/5
f 268/1/5 257/1/5 256/1/5
f 269/1/5 257/1/5 268/1/5
f 270/1/5 259/1/5 258/1/5
f 271/2/5 260/2/5 259/2/5
f 271/1/5 259/1/5 270/1/5
f 272/1/5 261/1/5 260/1/5
f 272/2/5 260/2/5 271/2/5
f 273/1/5 261/1/5 272/1/5
f 274/1/5 261/1/5 273/1/5
f 275/1/5 261/1/5 274/1/5
f 276/1/5 263/1/5 262/1/5
f 277/2/5 264/2/5 263/2/5
f 277/1/5 263/1/5 276/1/5
f 278/1/5 265/1/5 264/1/5
f 278/2/5 264/2/5 277/2/5
f 279/1/5 265/1/5 278/1/5
f 280/1/5 267/1/5 266/1/5
f 281/2/5 268/2/5 267/2/5
f 281/1/5 267/1/5 280/1/5
f 282/2/5 268/2/5 281/2/5
f 283/1/5 269/1/5 268/1/5
f 283/2/5 268/2/5 282/2/5
f 284/1/5 269/1/5 283/1/5
f 286/2/5 274/2/5 273/2/5
f 287/2/5 274/2/5 286/2/5
f 289/1/5 277/1/5 276/1/5
f 290/1/5 277/1/5 289/1/5
f 291/2/5 281/2/5 280/2/5
f 292/2/5 281/2/5 291/2/5
f 293/1/5 285/1/5 284/1/5
f 293/1/5 283/1/5 282/1/5
f 293/1/5 284/1/5 283/1/5
f 294/1/5 285/1/5 293/1/5
f 295/1/5 289/1/5 288/1/5
f 296/2/5 290/2/5 289/2/5
f 296/1/5 289/1/5 295/1/5
f 297/2/5 290/2/5 296/2/5
f 298/2/6 299/2/6 306/2/6
f 306/2/6 299/2/6 307/2/6
f 300/1/6 301/1/6 308/1/6
f 308/1/6 301/1/6 309/1/6
f 302/1/6 303/1/6 310/1/6
f 310/1/6 303/1/6 311/1/6
f 304/1/6 305/1/6 312/1/6
f 312/1/6 305/1/6 313/1/6
f 314/1/6 315/1/6 328/1/6
f 328/1/6 315/1/6 329/1/6
f 316/1/6 317/1/6 330/1/6
f 317/2/6 318/2/6 331/2/6
f 330/1/6 317/1/6 331/1/6
f 318/1/6 319/1/6 332/1/6
f 331/2/6 318/2/6 332/2/6
f 332/1/6 319/1/6 333/1/6
f 333/1/6 319/1/6 334/1/6
f 319/2/6 320/2/6 335/2/6
f 334/1/6 319/1/6 335/1/6
f 320/1/6 321/1/6 336/1/6
f 335/2/6 320/2/6 336/2/6
f 336/1/6 321/1/6 337/1/6
f 322/1/6 323/1/6 339/1/6
f 324/1/6 325/1/6 340/1/6
f 326/1/6 327/1/6 341/1/6
f 327/2/6 328/2/6 342/2/6
f 341/1/6 327/1/6 342/1/6
f 342/2/6 328/2/6 343/2/6
f 328/1/6 329/1/6 344/1/6
f 343/2/6 328/2/6 344/2/6
f 329/1/6 330/1/6 344/1/6
f 330/2/6 331/2/6 345/2/6
f 344/1/6 330/1/6 345/1/6
f 345/2/6 331/2/6 346/2/6
f 333/2/6 334/2/6 347/2/6
f 347/2/6 334/2/6 348/2/6
f 338/2/6 339/2/6 350/2/6
f 339/1/6 323/1/6 351/1/6
f 350/2/6 339/2/6 351/2/6
f 323/2/6 324/2/6 352/2/6
f 351/1/6 323/1/6 352/1/6
f 324/1/6 340/1/6 353/1/6
f 352/2/6 324/2/6 353/2/6
f 340/1/6 341/1/6 353/1/6
f 341/2/6 342/2/6 354/2/6
f 353/1/6 341/1/6 354/1/6
f 354/2/6 342/2/6 355/2/6
f 343/1/6 344/1/6 356/1/6
f 344/1/6 345/1/6 356/1/6
f 356/1/6 345/1/6 357/1/6
f 350/1/6 351/1/6 358/1/6
f 349/1/6 350/1/6 358/1/6
f 351/2/6 352/2/6 359/2/6
f 358/1/6 351/1/6 359/1/6
f 359/2/6 352/2/6 360/2/6
