# MagicaVoxel @ Ephtracy

# group
o 

# material
mtllib palo3.mtl
usemtl palette

# normals
vn -1 0 0
vn 1 0 0
vn 0 0 1
vn 0 0 -1
vn 0 -1 0
vn 0 1 0

# texcoords
vt 0.876953 0.5
vt 0.884766 0.5

# verts
v -0.9 0 0.1
v -0.9 0 -0.1
v -0.9 0.1 0.1
v -0.9 0.1 0
v -0.9 0.1 -0.1
v -0.9 0.2 0.1
v -0.9 0.2 0
v -0.7 0.1 0
v -0.7 0.1 -0.1
v -0.7 0.2 0
v -0.7 0.2 -0.1
v 0 0 0.1
v 0 0 0
v 0 0.1 0.1
v 0 0.1 0
v 0.4 0 -0.1
v 0.4 0 -0.2
v 0.4 0.1 -0.1
v 0.4 0.1 -0.2
v 0.6 0 0
v 0.6 0 -0.1
v 0.6 0.1 0
v 0.6 0.1 -0.1
v -0.8 0.1 0.1
v -0.8 0.1 0
v -0.8 0.2 0.1
v -0.8 0.2 0
v -0.5 0 0.1
v -0.5 0 0
v -0.5 0.1 0.1
v -0.5 0.1 0
v 0 0.1 0
v 0 0.1 -0.1
v 0 0.2 0
v 0 0.2 -0.1
v 0.4 0 0
v 0.4 0 -0.1
v 0.4 0.1 0
v 0.4 0.1 -0.1
v 0.7 0 0
v 0.7 0 -0.1
v 0.7 0.1 0
v 0.7 0.1 -0.1
v 0.9 0 0.1
v 0.9 0 0
v 0.9 0 -0.1
v 0.9 0 -0.2
v 0.9 0.1 0.1
v 0.9 0.1 0
v 0.9 0.1 -0.1
v 0.9 0.1 -0.2
v -0.9 0 0.1
v -0.9 0.1 0.1
v -0.9 0.2 0.1
v -0.8 0 0.1
v -0.8 0.1 0.1
v -0.8 0.2 0.1
v -0.5 0 0.1
v -0.5 0.1 0.1
v 0 0 0.1
v 0 0.1 0.1
v 0.7 0 0.1
v 0.7 0.1 0.1
v 0.9 0 0.1
v 0.9 0.1 0.1
v -0.7 0.1 0
v -0.7 0.2 0
v -0.5 0 0
v -0.5 0.1 0
v -0.5 0.2 0
v 0 0 0
v 0 0.1 0
v 0 0.2 0
v 0.4 0 -0.1
v 0.4 0.1 -0.1
v 0.6 0 -0.1
v 0.6 0.1 -0.1
v 0.7 0 -0.1
v 0.7 0.1 -0.1
v 0.9 0 -0.1
v 0.9 0.1 -0.1
v -0.9 0.1 0
v -0.9 0.2 0
v -0.8 0.1 0
v -0.8 0.2 0
v 0.4 0 0
v 0.4 0.1 0
v 0.6 0 0
v 0.6 0.1 0
v 0.7 0 0
v 0.7 0.1 0
v 0.9 0 0
v 0.9 0.1 0
v -0.9 0 -0.1
v -0.9 0.1 -0.1
v -0.7 0 -0.1
v -0.7 0.1 -0.1
v -0.7 0.2 -0.1
v -0.5 0 -0.1
v -0.5 0.1 -0.1
v -0.5 0.2 -0.1
v 0 0 -0.1
v 0 0.1 -0.1
v 0 0.2 -0.1
v 0.4 0 -0.1
v 0.4 0.1 -0.1
v 0.4 0 -0.2
v 0.4 0.1 -0.2
v 0.7 0 -0.2
v 0.7 0.1 -0.2
v 0.9 0 -0.2
v 0.9 0.1 -0.2
v -0.9 0 0.1
v -0.8 0 0.1
v -0.5 0 0.1
v 0 0 0.1
v 0.7 0 0.1
v 0.9 0 0.1
v -0.8 0 0
v -0.7 0 0
v -0.5 0 0
v 0 0 0
v 0.4 0 0
v 0.6 0 0
v 0.7 0 0
v 0.9 0 0
v -0.9 0 -0.1
v -0.7 0 -0.1
v -0.5 0 -0.1
v 0 0 -0.1
v 0.4 0 -0.1
v 0.6 0 -0.1
v 0.7 0 -0.1
v 0.9 0 -0.1
v 0.4 0 -0.2
v 0.7 0 -0.2
v 0.9 0 -0.2
v -0.8 0.1 0.1
v -0.5 0.1 0.1
v 0 0.1 0.1
v 0.7 0.1 0.1
v 0.9 0.1 0.1
v -0.9 0.1 0
v -0.8 0.1 0
v -0.7 0.1 0
v -0.5 0.1 0
v 0 0.1 0
v 0.4 0.1 0
v 0.6 0.1 0
v 0.7 0.1 0
v 0.9 0.1 0
v -0.9 0.1 -0.1
v -0.7 0.1 -0.1
v 0 0.1 -0.1
v 0.4 0.1 -0.1
v 0.6 0.1 -0.1
v 0.7 0.1 -0.1
v 0.9 0.1 -0.1
v 0.4 0.1 -0.2
v 0.7 0.1 -0.2
v 0.9 0.1 -0.2
v -0.9 0.2 0.1
v -0.8 0.2 0.1
v -0.9 0.2 0
v -0.8 0.2 0
v -0.7 0.2 0
v -0.5 0.2 0
v 0 0.2 0
v -0.7 0.2 -0.1
v -0.5 0.2 -0.1
v 0 0.2 -0.1

# faces
f 3/2/1 2/2/1 1/2/1
f 4/2/1 2/2/1 3/2/1
f 5/2/1 2/2/1 4/2/1
f 6/1/1 4/1/1 3/1/1
f 7/1/1 4/1/1 6/1/1
f 10/2/1 9/2/1 8/2/1
f 11/2/1 9/2/1 10/2/1
f 14/1/1 13/1/1 12/1/1
f 15/1/1 13/1/1 14/1/1
f 18/1/1 17/1/1 16/1/1
f 19/1/1 17/1/1 18/1/1
f 22/1/1 21/1/1 20/1/1
f 23/1/1 21/1/1 22/1/1
f 24/1/2 25/1/2 26/1/2
f 26/1/2 25/1/2 27/1/2
f 28/1/2 29/1/2 30/1/2
f 30/1/2 29/1/2 31/1/2
f 32/1/2 33/1/2 34/1/2
f 34/1/2 33/1/2 35/1/2
f 36/1/2 37/1/2 38/1/2
f 38/1/2 37/1/2 39/1/2
f 40/1/2 41/1/2 42/1/2
f 42/1/2 41/1/2 43/1/2
f 44/2/2 45/2/2 48/2/2
f 48/2/2 45/2/2 49/2/2
f 46/2/2 47/2/2 50/2/2
f 50/2/2 47/2/2 51/2/2
f 55/2/3 53/2/3 52/2/3
f 56/1/3 54/1/3 53/1/3
f 56/2/3 53/2/3 55/2/3
f 57/1/3 54/1/3 56/1/3
f 58/1/3 56/1/3 55/1/3
f 59/1/3 56/1/3 58/1/3
f 62/1/3 61/1/3 60/1/3
f 63/1/3 61/1/3 62/1/3
f 64/2/3 63/2/3 62/2/3
f 65/2/3 63/2/3 64/2/3
f 69/2/3 67/2/3 66/2/3
f 70/2/3 67/2/3 69/2/3
f 71/2/3 69/2/3 68/2/3
f 72/1/3 70/1/3 69/1/3
f 72/2/3 69/2/3 71/2/3
f 73/1/3 70/1/3 72/1/3
f 76/1/3 75/1/3 74/1/3
f 77/1/3 75/1/3 76/1/3
f 80/2/3 79/2/3 78/2/3
f 81/2/3 79/2/3 80/2/3
f 82/1/4 83/1/4 84/1/4
f 84/1/4 83/1/4 85/1/4
f 86/1/4 87/1/4 88/1/4
f 88/1/4 87/1/4 89/1/4
f 90/2/4 91/2/4 92/2/4
f 92/2/4 91/2/4 93/2/4
f 94/2/4 95/2/4 96/2/4
f 96/2/4 95/2/4 97/2/4
f 96/1/4 97/1/4 99/1/4
f 97/2/4 98/2/4 100/2/4
f 99/1/4 97/1/4 100/1/4
f 100/2/4 98/2/4 101/2/4
f 99/2/4 100/2/4 102/2/4
f 100/1/4 101/1/4 103/1/4
f 102/2/4 100/2/4 103/2/4
f 103/1/4 101/1/4 104/1/4
f 102/1/4 103/1/4 105/1/4
f 105/1/4 103/1/4 106/1/4
f 107/1/4 108/1/4 109/1/4
f 109/1/4 108/1/4 110/1/4
f 109/2/4 110/2/4 111/2/4
f 111/2/4 110/2/4 112/2/4
f 119/2/5 114/2/5 113/2/5
f 119/1/5 115/1/5 114/1/5
f 120/1/5 115/1/5 119/1/5
f 121/1/5 115/1/5 120/1/5
f 122/1/5 117/1/5 116/1/5
f 123/1/5 117/1/5 122/1/5
f 124/1/5 117/1/5 123/1/5
f 125/2/5 118/2/5 117/2/5
f 125/1/5 117/1/5 124/1/5
f 126/2/5 118/2/5 125/2/5
f 127/2/5 119/2/5 113/2/5
f 127/2/5 120/2/5 119/2/5
f 128/1/5 121/1/5 120/1/5
f 128/2/5 120/2/5 127/2/5
f 129/2/5 122/2/5 121/2/5
f 129/1/5 121/1/5 128/1/5
f 130/1/5 123/1/5 122/1/5
f 130/2/5 122/2/5 129/2/5
f 131/1/5 123/1/5 130/1/5
f 132/1/5 125/1/5 124/1/5
f 133/1/5 125/1/5 132/1/5
f 135/1/5 133/1/5 132/1/5
f 135/1/5 132/1/5 131/1/5
f 136/2/5 134/2/5 133/2/5
f 136/1/5 133/1/5 135/1/5
f 137/2/5 134/2/5 136/2/5
f 138/1/6 139/1/6 144/1/6
f 144/1/6 139/1/6 145/1/6
f 145/1/6 139/1/6 146/1/6
f 140/1/6 141/1/6 147/1/6
f 147/1/6 141/1/6 148/1/6
f 148/1/6 141/1/6 149/1/6
f 141/2/6 142/2/6 150/2/6
f 149/1/6 141/1/6 150/1/6
f 150/2/6 142/2/6 151/2/6
f 143/2/6 144/2/6 152/2/6
f 144/2/6 145/2/6 152/2/6
f 152/2/6 145/2/6 153/2/6
f 147/1/6 148/1/6 154/1/6
f 154/1/6 148/1/6 155/1/6
f 149/1/6 150/1/6 156/1/6
f 156/1/6 150/1/6 157/1/6
f 156/1/6 157/1/6 159/1/6
f 155/1/6 156/1/6 159/1/6
f 157/2/6 158/2/6 160/2/6
f 159/1/6 157/1/6 160/1/6
f 160/2/6 158/2/6 161/2/6
f 162/1/6 163/1/6 164/1/6
f 164/1/6 163/1/6 165/1/6
f 166/2/6 167/2/6 169/2/6
f 167/1/6 168/1/6 170/1/6
f 169/2/6 167/2/6 170/2/6
f 170/1/6 168/1/6 171/1/6
