# MagicaVoxel @ Ephtracy

# group
o 

# material
mtllib 64.mtl
usemtl palette

# normals
vn -1 0 0
vn 1 0 0
vn 0 0 1
vn 0 0 -1
vn 0 -1 0
vn 0 1 0

# texcoords
vt 0.0644531 0.5
vt 0.189453 0.5
vt 0.376953 0.5
vt 0.712891 0.5
vt 0.841797 0.5

# verts
v -3.2 0 3.2
v -3.2 0 3.1
v -3.2 0 -3.2
v -3.2 0.1 3.1
v -3.2 0.1 -3.2
v -3.2 6.4 3.2
v -3.2 6.4 3.1
v -3.2 6.4 -3.2
v -3.1 0.1 3.1
v -3.1 0.1 -3.2
v -3.1 6.4 3.1
v -3.1 6.4 -3.2
v 3.2 0 3.2
v 3.2 0 3.1
v 3.2 0 -3.2
v 3.2 0.1 3.2
v 3.2 0.1 3.1
v 3.2 0.1 -3.2
v 3.2 6.4 3.2
v 3.2 6.4 3.1
v -3.2 0 3.2
v -3.2 6.4 3.2
v -3.1 0.1 3.2
v -3.1 6.4 3.2
v 3.2 0 3.2
v 3.2 0.1 3.2
v 3.2 6.4 3.2
v -3.1 0.1 3.1
v -3.1 6.4 3.1
v 3.2 0.1 3.1
v 3.2 6.4 3.1
v -3.2 0 -3.2
v -3.2 0.1 -3.2
v -3.2 6.4 -3.2
v -3.1 0 -3.2
v -3.1 0.1 -3.2
v -3.1 6.4 -3.2
v 3.2 0 -3.2
v 3.2 0.1 -3.2
v -3.2 0 3.2
v 3.2 0 3.2
v -3.2 0 3.1
v -3.1 0 3.1
v 3.2 0 3.1
v -3.2 0 -3.2
v -3.1 0 -3.2
v 3.2 0 -3.2
v -3.1 0.1 3.1
v 3.2 0.1 3.1
v -3.1 0.1 -3.2
v 3.2 0.1 -3.2
v -3.2 6.4 3.2
v -3.1 6.4 3.2
v 3.2 6.4 3.2
v -3.2 6.4 3.1
v -3.1 6.4 3.1
v 3.2 6.4 3.1
v -3.2 6.4 -3.2
v -3.1 6.4 -3.2

# faces
f 4/5/1 2/5/1 1/5/1
f 4/4/1 3/4/1 2/4/1
f 5/4/1 3/4/1 4/4/1
f 6/5/1 4/5/1 1/5/1
f 7/1/1 5/1/1 4/1/1
f 7/5/1 4/5/1 6/5/1
f 8/1/1 5/1/1 7/1/1
f 9/1/2 10/1/2 11/1/2
f 11/1/2 10/1/2 12/1/2
f 13/5/2 14/5/2 16/5/2
f 14/2/2 15/2/2 17/2/2
f 16/5/2 14/5/2 17/5/2
f 17/2/2 15/2/2 18/2/2
f 16/3/2 17/3/2 19/3/2
f 19/3/2 17/3/2 20/3/2
f 23/5/3 22/5/3 21/5/3
f 24/5/3 22/5/3 23/5/3
f 25/5/3 23/5/3 21/5/3
f 26/3/3 24/3/3 23/3/3
f 26/5/3 23/5/3 25/5/3
f 27/3/3 24/3/3 26/3/3
f 28/3/4 29/3/4 30/3/4
f 30/3/4 29/3/4 31/3/4
f 32/4/4 33/4/4 35/4/4
f 33/1/4 34/1/4 36/1/4
f 35/4/4 33/4/4 36/4/4
f 36/1/4 34/1/4 37/1/4
f 35/2/4 36/2/4 38/2/4
f 38/2/4 36/2/4 39/2/4
f 42/5/5 41/5/5 40/5/5
f 43/5/5 41/5/5 42/5/5
f 44/5/5 41/5/5 43/5/5
f 45/4/5 43/4/5 42/4/5
f 46/2/5 44/2/5 43/2/5
f 46/4/5 43/4/5 45/4/5
f 47/2/5 44/2/5 46/2/5
f 48/2/6 49/2/6 50/2/6
f 50/2/6 49/2/6 51/2/6
f 52/5/6 53/5/6 55/5/6
f 53/3/6 54/3/6 56/3/6
f 55/5/6 53/5/6 56/5/6
f 56/3/6 54/3/6 57/3/6
f 55/1/6 56/1/6 58/1/6
f 58/1/6 56/1/6 59/1/6
