# MagicaVoxel @ Ephtracy

# group
o 

# material
mtllib Rock machine.mtl
usemtl palette

# normals
vn -1 0 0
vn 1 0 0
vn 0 0 1
vn 0 0 -1
vn 0 -1 0
vn 0 1 0

# texcoords
vt 0.00585938 0.5
vt 0.0175781 0.5
vt 0.0332031 0.5
vt 0.0410156 0.5
vt 0.0488281 0.5
vt 0.0527344 0.5

# verts
v -0.7 0 0.6
v -0.7 0 -0.8
v -0.7 0.1 0.6
v -0.7 0.1 0.5
v -0.7 1.1 0.8
v -0.7 1.1 0.6
v -0.7 1.2 0.8
v -0.7 1.2 0.6
v -0.7 1.3 0.6
v -0.7 1.3 0.5
v -0.7 1.7 0.6
v -0.7 1.7 -0.8
v -0.6 1.7 0.1
v -0.6 1.7 -0.1
v -0.6 1.8 0.1
v -0.6 1.8 -0.1
v -0.5 1.5 0.7
v -0.5 1.5 0.6
v -0.5 1.6 0.7
v -0.5 1.6 0.6
v -0.5 1.7 0.2
v -0.5 1.7 0.1
v -0.5 1.7 -0.1
v -0.5 1.7 -0.2
v -0.5 1.8 0.2
v -0.5 1.8 0.1
v -0.5 1.8 -0.1
v -0.5 1.8 -0.2
v -0.4 1.7 -0.2
v -0.4 1.7 -0.4
v -0.4 1.8 -0.2
v -0.4 1.8 -0.4
v -0.3 1.7 -0.4
v -0.3 1.7 -0.5
v -0.3 1.8 -0.4
v -0.3 1.8 -0.5
v -0.2 1.7 0.2
v -0.2 1.7 0.1
v -0.2 1.8 0.2
v -0.2 1.8 0.1
v 0 1.7 -0.4
v 0 1.7 -0.5
v 0 1.8 -0.4
v 0 1.8 -0.5
v 0.1 1.7 0.2
v 0.1 1.7 0.1
v 0.1 1.7 -0.5
v 0.1 1.7 -0.6
v 0.1 1.8 0.2
v 0.1 1.8 0.1
v 0.1 1.8 -0.5
v 0.1 1.8 -0.6
v 0.2 1.7 0.3
v 0.2 1.7 0.2
v 0.2 1.8 0.3
v 0.2 1.8 0.2
v 0.4 1.5 0.7
v 0.4 1.5 0.6
v 0.4 1.6 0.7
v 0.4 1.6 0.6
v 0.6 1.1 0.7
v 0.6 1.1 0.6
v 0.6 1.2 0.7
v 0.6 1.2 0.6
v -0.6 1.1 0.7
v -0.6 1.1 0.6
v -0.6 1.2 0.7
v -0.6 1.2 0.6
v -0.4 1.5 0.7
v -0.4 1.5 0.6
v -0.4 1.6 0.7
v -0.4 1.6 0.6
v -0.3 1.7 0.2
v -0.3 1.7 0.1
v -0.3 1.8 0.2
v -0.3 1.8 0.1
v -0.1 1.7 -0.4
v -0.1 1.7 -0.5
v -0.1 1.8 -0.4
v -0.1 1.8 -0.5
v 0 1.7 0.2
v 0 1.7 0.1
v 0 1.8 0.2
v 0 1.8 0.1
v 0.3 1.7 -0.5
v 0.3 1.7 -0.6
v 0.3 1.8 -0.5
v 0.3 1.8 -0.6
v 0.4 1.7 0.3
v 0.4 1.7 0.2
v 0.4 1.7 -0.2
v 0.4 1.7 -0.3
v 0.4 1.8 0.3
v 0.4 1.8 0.2
v 0.4 1.8 -0.2
v 0.4 1.8 -0.3
v 0.5 1.5 0.7
v 0.5 1.5 0.6
v 0.5 1.6 0.7
v 0.5 1.6 0.6
v 0.5 1.7 0.2
v 0.5 1.7 0
v 0.5 1.7 -0.2
v 0.5 1.7 -0.3
v 0.5 1.7 -0.5
v 0.5 1.8 0.2
v 0.5 1.8 0
v 0.5 1.8 -0.2
v 0.5 1.8 -0.3
v 0.5 1.8 -0.5
v 0.7 0 0.6
v 0.7 0 -0.8
v 0.7 0.1 0.6
v 0.7 0.1 0.5
v 0.7 1.1 0.8
v 0.7 1.1 0.6
v 0.7 1.2 0.8
v 0.7 1.2 0.6
v 0.7 1.3 0.6
v 0.7 1.3 0.5
v 0.7 1.7 0.6
v 0.7 1.7 -0.8
v -0.7 1.1 0.8
v -0.7 1.2 0.8
v 0.7 1.1 0.8
v 0.7 1.2 0.8
v -0.5 1.5 0.7
v -0.5 1.6 0.7
v -0.4 1.5 0.7
v -0.4 1.6 0.7
v 0.4 1.5 0.7
v 0.4 1.6 0.7
v 0.5 1.5 0.7
v 0.5 1.6 0.7
v -0.7 0 0.6
v -0.7 0.1 0.6
v -0.7 1.1 0.6
v -0.7 1.2 0.6
v -0.7 1.3 0.6
v -0.7 1.7 0.6
v -0.6 1.1 0.6
v -0.6 1.2 0.6
v -0.5 0.3 0.6
v -0.5 1 0.6
v -0.5 1.5 0.6
v -0.5 1.6 0.6
v -0.4 1.5 0.6
v -0.4 1.6 0.6
v -0.3 1.4 0.6
v -0.3 1.6 0.6
v 0.3 1.4 0.6
v 0.3 1.6 0.6
v 0.4 1.5 0.6
v 0.4 1.6 0.6
v 0.5 0.3 0.6
v 0.5 1 0.6
v 0.5 1.5 0.6
v 0.5 1.6 0.6
v 0.6 1.1 0.6
v 0.6 1.2 0.6
v 0.7 0 0.6
v 0.7 0.1 0.6
v 0.7 1.1 0.6
v 0.7 1.2 0.6
v 0.7 1.3 0.6
v 0.7 1.7 0.6
v 0.2 1.7 0.3
v 0.2 1.8 0.3
v 0.4 1.7 0.3
v 0.4 1.8 0.3
v -0.5 1.7 0.2
v -0.5 1.8 0.2
v -0.4 1.7 0.2
v -0.4 1.8 0.2
v -0.3 1.7 0.2
v -0.3 1.8 0.2
v -0.2 1.7 0.2
v -0.2 1.8 0.2
v 0 1.7 0.2
v 0 1.8 0.2
v 0.1 1.7 0.2
v 0.1 1.8 0.2
v 0.2 1.7 0.2
v 0.2 1.8 0.2
v 0.4 1.7 0.2
v 0.4 1.8 0.2
v 0.5 1.7 0.2
v 0.5 1.8 0.2
v -0.6 1.7 0.1
v -0.6 1.8 0.1
v -0.5 1.7 0.1
v -0.5 1.8 0.1
v -0.3 1.7 0.1
v -0.3 1.8 0.1
v -0.2 1.7 0.1
v -0.2 1.8 0.1
v 0 1.7 0.1
v 0 1.8 0.1
v 0.1 1.7 0.1
v 0.1 1.8 0.1
v 0.4 1.7 -0.3
v 0.4 1.8 -0.3
v 0.5 1.7 -0.3
v 0.5 1.8 -0.3
v -0.6 1.1 0.7
v -0.6 1.2 0.7
v 0.6 1.1 0.7
v 0.6 1.2 0.7
v -0.6 1.7 -0.1
v -0.6 1.8 -0.1
v -0.5 1.7 -0.1
v -0.5 1.8 -0.1
v -0.5 1.7 -0.2
v -0.5 1.8 -0.2
v -0.4 1.7 -0.2
v -0.4 1.8 -0.2
v 0.4 1.7 -0.2
v 0.4 1.8 -0.2
v 0.5 1.7 -0.2
v 0.5 1.8 -0.2
v -0.4 1.7 -0.4
v -0.4 1.8 -0.4
v -0.3 1.7 -0.4
v -0.3 1.8 -0.4
v -0.1 1.7 -0.4
v -0.1 1.8 -0.4
v 0 1.7 -0.4
v 0 1.8 -0.4
v -0.3 1.7 -0.5
v -0.3 1.8 -0.5
v -0.1 1.7 -0.5
v -0.1 1.8 -0.5
v 0 1.7 -0.5
v 0 1.8 -0.5
v 0.1 1.7 -0.5
v 0.1 1.8 -0.5
v 0.3 1.7 -0.5
v 0.3 1.8 -0.5
v 0.4 1.7 -0.5
v 0.4 1.8 -0.5
v 0.5 1.7 -0.5
v 0.5 1.8 -0.5
v 0.1 1.7 -0.6
v 0.1 1.8 -0.6
v 0.3 1.7 -0.6
v 0.3 1.8 -0.6
v -0.7 0 -0.8
v -0.7 1.7 -0.8
v 0.7 0 -0.8
v 0.7 1.7 -0.8
v -0.7 0 0.6
v 0.7 0 0.6
v -0.7 0 -0.8
v 0.7 0 -0.8
v -0.7 1.1 0.8
v 0.7 1.1 0.8
v -0.6 1.1 0.7
v 0.6 1.1 0.7
v -0.7 1.1 0.6
v -0.6 1.1 0.6
v 0.6 1.1 0.6
v 0.7 1.1 0.6
v -0.5 1.5 0.7
v -0.4 1.5 0.7
v 0.4 1.5 0.7
v 0.5 1.5 0.7
v -0.5 1.5 0.6
v -0.4 1.5 0.6
v 0.4 1.5 0.6
v 0.5 1.5 0.6
v -0.7 1.2 0.8
v 0.7 1.2 0.8
v -0.6 1.2 0.7
v 0.6 1.2 0.7
v -0.7 1.2 0.6
v -0.6 1.2 0.6
v 0.6 1.2 0.6
v 0.7 1.2 0.6
v -0.5 1.6 0.7
v -0.4 1.6 0.7
v 0.4 1.6 0.7
v 0.5 1.6 0.7
v -0.5 1.6 0.6
v -0.4 1.6 0.6
v 0.4 1.6 0.6
v 0.5 1.6 0.6
v -0.7 1.7 0.6
v 0.7 1.7 0.6
v 0.2 1.7 0.3
v 0.4 1.7 0.3
v -0.5 1.7 0.2
v -0.4 1.7 0.2
v -0.3 1.7 0.2
v -0.2 1.7 0.2
v 0 1.7 0.2
v 0.1 1.7 0.2
v 0.2 1.7 0.2
v 0.4 1.7 0.2
v 0.5 1.7 0.2
v -0.6 1.7 0.1
v -0.5 1.7 0.1
v -0.3 1.7 0.1
v -0.2 1.7 0.1
v 0 1.7 0.1
v 0.1 1.7 0.1
v 0.5 1.7 0
v -0.6 1.7 -0.1
v -0.5 1.7 -0.1
v -0.5 1.7 -0.2
v -0.4 1.7 -0.2
v 0.4 1.7 -0.2
v 0.5 1.7 -0.2
v 0.4 1.7 -0.3
v 0.5 1.7 -0.3
v -0.4 1.7 -0.4
v -0.3 1.7 -0.4
v -0.1 1.7 -0.4
v 0 1.7 -0.4
v -0.3 1.7 -0.5
v -0.1 1.7 -0.5
v 0 1.7 -0.5
v 0.1 1.7 -0.5
v 0.3 1.7 -0.5
v 0.4 1.7 -0.5
v 0.5 1.7 -0.5
v 0.1 1.7 -0.6
v 0.3 1.7 -0.6
v -0.7 1.7 -0.8
v 0.7 1.7 -0.8
v 0.2 1.8 0.3
v 0.4 1.8 0.3
v -0.5 1.8 0.2
v -0.4 1.8 0.2
v -0.3 1.8 0.2
v -0.2 1.8 0.2
v 0 1.8 0.2
v 0.1 1.8 0.2
v 0.2 1.8 0.2
v 0.3 1.8 0.2
v 0.4 1.8 0.2
v 0.5 1.8 0.2
v -0.6 1.8 0.1
v -0.5 1.8 0.1
v -0.4 1.8 0.1
v -0.3 1.8 0.1
v -0.2 1.8 0.1
v 0 1.8 0.1
v 0.1 1.8 0.1
v 0.2 1.8 0.1
v 0.3 1.8 0.1
v 0 1.8 0
v 0.1 1.8 0
v 0.2 1.8 0
v 0.3 1.8 0
v 0.4 1.8 0
v 0.5 1.8 0
v -0.6 1.8 -0.1
v -0.5 1.8 -0.1
v -0.3 1.8 -0.1
v -0.2 1.8 -0.1
v -0.1 1.8 -0.1
v -0.5 1.8 -0.2
v -0.4 1.8 -0.2
v -0.2 1.8 -0.2
v -0.1 1.8 -0.2
v 0 1.8 -0.2
v 0.1 1.8 -0.2
v 0.2 1.8 -0.2
v 0.3 1.8 -0.2
v 0.4 1.8 -0.2
v 0.5 1.8 -0.2
v -0.3 1.8 -0.3
v -0.2 1.8 -0.3
v -0.1 1.8 -0.3
v 0 1.8 -0.3
v 0.2 1.8 -0.3
v 0.3 1.8 -0.3
v 0.4 1.8 -0.3
v 0.5 1.8 -0.3
v -0.4 1.8 -0.4
v -0.3 1.8 -0.4
v -0.2 1.8 -0.4
v -0.1 1.8 -0.4
v 0 1.8 -0.4
v 0.1 1.8 -0.4
v -0.3 1.8 -0.5
v -0.1 1.8 -0.5
v 0 1.8 -0.5
v 0.1 1.8 -0.5
v 0.3 1.8 -0.5
v 0.4 1.8 -0.5
v 0.5 1.8 -0.5
v 0.1 1.8 -0.6
v 0.3 1.8 -0.6

# faces
f 3/1/1 2/1/1 1/1/1
f 4/1/1 2/1/1 3/1/1
f 6/3/1 4/3/1 3/3/1
f 7/4/1 6/4/1 5/4/1
f 8/3/1 4/3/1 6/3/1
f 8/4/1 6/4/1 7/4/1
f 9/3/1 4/3/1 8/3/1
f 10/1/1 2/1/1 4/1/1
f 10/3/1 4/3/1 9/3/1
f 11/1/1 10/1/1 9/1/1
f 12/1/1 2/1/1 10/1/1
f 12/1/1 10/1/1 11/1/1
f 15/3/1 14/3/1 13/3/1
f 16/3/1 14/3/1 15/3/1
f 19/6/1 18/6/1 17/6/1
f 20/6/1 18/6/1 19/6/1
f 25/3/1 22/3/1 21/3/1
f 26/3/1 22/3/1 25/3/1
f 27/3/1 24/3/1 23/3/1
f 28/3/1 24/3/1 27/3/1
f 31/3/1 30/3/1 29/3/1
f 32/3/1 30/3/1 31/3/1
f 35/3/1 34/3/1 33/3/1
f 36/3/1 34/3/1 35/3/1
f 39/5/1 38/5/1 37/5/1
f 40/5/1 38/5/1 39/5/1
f 43/3/1 42/3/1 41/3/1
f 44/3/1 42/3/1 43/3/1
f 49/5/1 46/5/1 45/5/1
f 50/5/1 46/5/1 49/5/1
f 51/3/1 48/3/1 47/3/1
f 52/3/1 48/3/1 51/3/1
f 55/5/1 54/5/1 53/5/1
f 56/5/1 54/5/1 55/5/1
f 59/6/1 58/6/1 57/6/1
f 60/6/1 58/6/1 59/6/1
f 63/4/1 62/4/1 61/4/1
f 64/4/1 62/4/1 63/4/1
f 65/4/2 66/4/2 67/4/2
f 67/4/2 66/4/2 68/4/2
f 69/6/2 70/6/2 71/6/2
f 71/6/2 70/6/2 72/6/2
f 73/5/2 74/5/2 75/5/2
f 75/5/2 74/5/2 76/5/2
f 77/3/2 78/3/2 79/3/2
f 79/3/2 78/3/2 80/3/2
f 81/5/2 82/5/2 83/5/2
f 83/5/2 82/5/2 84/5/2
f 85/3/2 86/3/2 87/3/2
f 87/3/2 86/3/2 88/3/2
f 89/5/2 90/5/2 93/5/2
f 93/5/2 90/5/2 94/5/2
f 91/3/2 92/3/2 95/3/2
f 95/3/2 92/3/2 96/3/2
f 97/6/2 98/6/2 99/6/2
f 99/6/2 98/6/2 100/6/2
f 101/5/2 102/5/2 106/5/2
f 102/4/2 103/4/2 107/4/2
f 106/5/2 102/5/2 107/5/2
f 107/4/2 103/4/2 108/4/2
f 104/3/2 105/3/2 109/3/2
f 109/3/2 105/3/2 110/3/2
f 111/1/2 112/1/2 113/1/2
f 113/1/2 112/1/2 114/1/2
f 113/3/2 114/3/2 116/3/2
f 115/4/2 116/4/2 117/4/2
f 116/3/2 114/3/2 118/3/2
f 117/4/2 116/4/2 118/4/2
f 118/3/2 114/3/2 119/3/2
f 114/1/2 112/1/2 120/1/2
f 119/3/2 114/3/2 120/3/2
f 119/1/2 120/1/2 121/1/2
f 120/1/2 112/1/2 122/1/2
f 121/1/2 120/1/2 122/1/2
f 125/4/3 124/4/3 123/4/3
f 126/4/3 124/4/3 125/4/3
f 129/6/3 128/6/3 127/6/3
f 130/6/3 128/6/3 129/6/3
f 133/6/3 132/6/3 131/6/3
f 134/6/3 132/6/3 133/6/3
f 141/3/3 137/3/3 136/3/3
f 142/3/3 139/3/3 138/3/3
f 143/3/3 141/3/3 136/3/3
f 143/3/3 142/3/3 141/3/3
f 144/3/3 142/3/3 143/3/3
f 145/1/3 140/1/3 139/1/3
f 146/1/3 140/1/3 145/1/3
f 147/1/3 145/1/3 139/1/3
f 148/1/3 140/1/3 146/1/3
f 149/1/3 147/1/3 139/1/3
f 149/1/3 148/1/3 147/1/3
f 150/1/3 140/1/3 148/1/3
f 150/1/3 148/1/3 149/1/3
f 151/1/3 149/1/3 139/1/3
f 151/6/3 150/6/3 149/6/3
f 152/1/3 140/1/3 150/1/3
f 152/6/3 150/6/3 151/6/3
f 153/1/3 152/1/3 151/1/3
f 154/1/3 140/1/3 152/1/3
f 154/1/3 152/1/3 153/1/3
f 155/3/3 143/3/3 136/3/3
f 155/2/3 144/2/3 143/2/3
f 156/3/3 142/3/3 144/3/3
f 156/2/3 144/2/3 155/2/3
f 157/1/3 153/1/3 151/1/3
f 158/1/3 140/1/3 154/1/3
f 159/3/3 142/3/3 156/3/3
f 159/3/3 156/3/3 155/3/3
f 160/3/3 139/3/3 142/3/3
f 160/3/3 142/3/3 159/3/3
f 161/1/3 136/1/3 135/1/3
f 162/3/3 155/3/3 136/3/3
f 162/1/3 136/1/3 161/1/3
f 162/3/3 159/3/3 155/3/3
f 163/3/3 159/3/3 162/3/3
f 164/3/3 139/3/3 160/3/3
f 165/1/3 157/1/3 151/1/3
f 165/3/3 139/3/3 164/3/3
f 165/1/3 158/1/3 157/1/3
f 165/1/3 151/1/3 139/1/3
f 166/1/3 140/1/3 158/1/3
f 166/1/3 158/1/3 165/1/3
f 169/5/3 168/5/3 167/5/3
f 170/5/3 168/5/3 169/5/3
f 173/3/3 172/3/3 171/3/3
f 174/3/3 172/3/3 173/3/3
f 175/5/3 174/5/3 173/5/3
f 176/5/3 174/5/3 175/5/3
f 179/5/3 178/5/3 177/5/3
f 180/5/3 178/5/3 179/5/3
f 183/5/3 182/5/3 181/5/3
f 184/5/3 182/5/3 183/5/3
f 187/5/3 186/5/3 185/5/3
f 188/5/3 186/5/3 187/5/3
f 191/3/3 190/3/3 189/3/3
f 192/3/3 190/3/3 191/3/3
f 195/5/3 194/5/3 193/5/3
f 196/5/3 194/5/3 195/5/3
f 199/5/3 198/5/3 197/5/3
f 200/5/3 198/5/3 199/5/3
f 203/3/3 202/3/3 201/3/3
f 204/3/3 202/3/3 203/3/3
f 205/4/4 206/4/4 207/4/4
f 207/4/4 206/4/4 208/4/4
f 209/3/4 210/3/4 211/3/4
f 211/3/4 210/3/4 212/3/4
f 213/3/4 214/3/4 215/3/4
f 215/3/4 214/3/4 216/3/4
f 217/4/4 218/4/4 219/4/4
f 219/4/4 218/4/4 220/4/4
f 221/3/4 222/3/4 223/3/4
f 223/3/4 222/3/4 224/3/4
f 225/4/4 226/4/4 227/4/4
f 227/4/4 226/4/4 228/4/4
f 229/3/4 230/3/4 231/3/4
f 231/3/4 230/3/4 232/3/4
f 233/3/4 234/3/4 235/3/4
f 235/3/4 234/3/4 236/3/4
f 237/4/4 238/4/4 239/4/4
f 239/4/4 238/4/4 240/4/4
f 239/3/4 240/3/4 241/3/4
f 241/3/4 240/3/4 242/3/4
f 243/3/4 244/3/4 245/3/4
f 245/3/4 244/3/4 246/3/4
f 247/1/4 248/1/4 249/1/4
f 249/1/4 248/1/4 250/1/4
f 253/1/5 252/1/5 251/1/5
f 254/1/5 252/1/5 253/1/5
f 257/4/5 256/4/5 255/4/5
f 258/4/5 256/4/5 257/4/5
f 259/4/5 257/4/5 255/4/5
f 260/4/5 257/4/5 259/4/5
f 261/4/5 256/4/5 258/4/5
f 262/4/5 256/4/5 261/4/5
f 267/6/5 264/6/5 263/6/5
f 268/6/5 264/6/5 267/6/5
f 269/6/5 266/6/5 265/6/5
f 270/6/5 266/6/5 269/6/5
f 271/4/6 272/4/6 273/4/6
f 273/4/6 272/4/6 274/4/6
f 271/4/6 273/4/6 275/4/6
f 275/4/6 273/4/6 276/4/6
f 274/4/6 272/4/6 277/4/6
f 277/4/6 272/4/6 278/4/6
f 279/6/6 280/6/6 283/6/6
f 283/6/6 280/6/6 284/6/6
f 281/6/6 282/6/6 285/6/6
f 285/6/6 282/6/6 286/6/6
f 287/1/6 288/1/6 289/1/6
f 289/1/6 288/1/6 290/1/6
f 287/1/6 289/1/6 291/1/6
f 291/1/6 289/1/6 292/1/6
f 292/1/6 289/1/6 293/1/6
f 293/1/6 289/1/6 294/1/6
f 294/1/6 289/1/6 295/1/6
f 295/1/6 289/1/6 296/1/6
f 296/1/6 289/1/6 297/1/6
f 290/1/6 288/1/6 298/1/6
f 298/1/6 288/1/6 299/1/6
f 287/1/6 291/1/6 300/1/6
f 300/1/6 291/1/6 301/1/6
f 293/1/6 294/1/6 302/1/6
f 302/1/6 294/1/6 303/1/6
f 295/1/6 296/1/6 304/1/6
f 304/1/6 296/1/6 305/1/6
f 299/1/6 288/1/6 306/1/6
f 287/1/6 300/1/6 307/1/6
f 307/1/6 308/1/6 309/1/6
f 306/1/6 288/1/6 312/1/6
f 311/1/6 312/1/6 313/1/6
f 312/1/6 288/1/6 314/1/6
f 313/1/6 312/1/6 314/1/6
f 309/1/6 310/1/6 315/1/6
f 315/1/6 316/1/6 319/1/6
f 317/1/6 318/1/6 320/1/6
f 320/1/6 318/1/6 321/1/6
f 314/1/6 288/1/6 325/1/6
f 319/1/6 320/1/6 326/1/6
f 320/1/6 321/1/6 326/1/6
f 321/1/6 322/1/6 326/1/6
f 323/1/6 324/1/6 327/1/6
f 324/1/6 325/1/6 327/1/6
f 319/1/6 326/1/6 328/1/6
f 326/1/6 327/1/6 328/1/6
f 287/1/6 307/1/6 328/1/6
f 307/1/6 309/1/6 328/1/6
f 309/1/6 315/1/6 328/1/6
f 315/1/6 319/1/6 328/1/6
f 327/1/6 325/1/6 329/1/6
f 328/1/6 327/1/6 329/1/6
f 325/1/6 288/1/6 329/1/6
f 330/5/6 331/5/6 338/5/6
f 338/5/6 331/5/6 339/5/6
f 339/5/6 331/5/6 340/5/6
f 332/3/6 333/3/6 343/3/6
f 333/5/6 334/5/6 344/5/6
f 343/3/6 333/3/6 344/3/6
f 344/5/6 334/5/6 345/5/6
f 335/5/6 336/5/6 346/5/6
f 346/5/6 336/5/6 347/5/6
f 337/5/6 338/5/6 348/5/6
f 338/3/6 339/3/6 349/3/6
f 348/5/6 338/5/6 349/5/6
f 339/4/6 340/4/6 350/4/6
f 349/3/6 339/3/6 350/3/6
f 346/4/6 347/4/6 351/4/6
f 347/5/6 348/5/6 351/5/6
f 348/3/6 349/3/6 352/3/6
f 351/5/6 348/5/6 352/5/6
f 349/4/6 350/4/6 353/4/6
f 352/3/6 349/3/6 353/3/6
f 350/4/6 340/4/6 354/4/6
f 353/4/6 350/4/6 354/4/6
f 340/5/6 341/5/6 355/5/6
f 354/4/6 340/4/6 355/4/6
f 355/5/6 341/5/6 356/5/6
f 344/3/6 345/3/6 357/3/6
f 342/3/6 343/3/6 357/3/6
f 343/3/6 344/3/6 357/3/6
f 357/3/6 345/3/6 358/3/6
f 345/5/6 346/5/6 359/5/6
f 358/3/6 345/3/6 359/3/6
f 351/4/6 352/4/6 360/4/6
f 359/5/6 346/5/6 360/5/6
f 346/4/6 351/4/6 360/4/6
f 360/4/6 352/4/6 361/4/6
f 358/3/6 359/3/6 362/3/6
f 360/3/6 361/3/6 362/3/6
f 359/3/6 360/3/6 362/3/6
f 362/3/6 361/3/6 363/3/6
f 363/3/6 361/3/6 364/3/6
f 361/4/6 352/4/6 365/4/6
f 364/3/6 361/3/6 365/3/6
f 365/4/6 352/4/6 366/4/6
f 352/5/6 353/5/6 367/5/6
f 366/4/6 352/4/6 367/4/6
f 353/3/6 354/3/6 368/3/6
f 367/5/6 353/5/6 368/5/6
f 355/4/6 356/4/6 369/4/6
f 368/3/6 354/3/6 369/3/6
f 354/4/6 355/4/6 369/4/6
f 369/4/6 356/4/6 370/4/6
f 370/4/6 356/4/6 371/4/6
f 363/3/6 364/3/6 372/3/6
f 364/4/6 365/4/6 373/4/6
f 372/3/6 364/3/6 373/3/6
f 365/3/6 366/3/6 374/3/6
f 373/4/6 365/4/6 374/4/6
f 366/4/6 367/4/6 375/4/6
f 374/3/6 366/3/6 375/3/6
f 367/4/6 368/4/6 375/4/6
f 368/5/6 369/5/6 376/5/6
f 375/4/6 368/4/6 376/4/6
f 369/3/6 370/3/6 377/3/6
f 376/5/6 369/5/6 377/5/6
f 377/3/6 370/3/6 378/3/6
f 363/3/6 372/3/6 380/3/6
f 372/4/6 373/4/6 381/4/6
f 380/3/6 372/3/6 381/3/6
f 373/3/6 374/3/6 382/3/6
f 381/4/6 373/4/6 382/4/6
f 374/4/6 375/4/6 383/4/6
f 382/3/6 374/3/6 383/3/6
f 375/4/6 376/4/6 383/4/6
f 377/4/6 378/4/6 383/4/6
f 376/4/6 377/4/6 383/4/6
f 383/4/6 378/4/6 384/4/6
f 384/4/6 378/4/6 385/4/6
f 381/3/6 382/3/6 386/3/6
f 382/3/6 383/3/6 386/3/6
f 386/3/6 383/3/6 387/3/6
f 384/3/6 385/3/6 388/3/6
f 385/4/6 378/4/6 389/4/6
f 388/3/6 385/3/6 389/3/6
f 389/4/6 378/4/6 390/4/6
f 378/3/6 379/3/6 391/3/6
f 390/4/6 378/4/6 391/4/6
f 391/3/6 379/3/6 392/3/6
f 389/3/6 390/3/6 393/3/6
f 393/3/6 390/3/6 394/3/6
