# MagicaVoxel @ Ephtracy

# group
o 

# material
mtllib Stick machine.mtl
usemtl palette

# normals
vn -1 0 0
vn 1 0 0
vn 0 0 1
vn 0 0 -1
vn 0 -1 0
vn 0 1 0

# texcoords
vt 0.00195313 0.5
vt 0.00585938 0.5
vt 0.0175781 0.5
vt 0.0292969 0.5
vt 0.876953 0.5
vt 0.884766 0.5
vt 0.888672 0.5

# verts
v -0.8 0 0.6
v -0.8 0 -0.6
v -0.8 0.1 0.7
v -0.8 0.1 0.6
v -0.8 0.1 -0.6
v -0.8 0.1 -0.7
v -0.8 1.6 0.8
v -0.8 1.6 0.7
v -0.8 1.6 -0.7
v -0.8 1.6 -0.8
v -0.8 1.7 0.8
v -0.8 1.7 -0.8
v -0.5 1.7 0.1
v -0.5 1.7 0
v -0.5 1.7 -0.2
v -0.5 1.7 -0.3
v -0.5 1.7 -0.4
v -0.5 1.8 0.1
v -0.5 1.8 0
v -0.5 1.8 -0.2
v -0.5 1.8 -0.3
v -0.5 1.8 -0.4
v -0.4 1.7 -0.1
v -0.4 1.7 -0.2
v -0.4 1.8 -0.1
v -0.4 1.8 -0.2
v -0.3 1.7 0
v -0.3 1.7 -0.1
v -0.3 1.8 0
v -0.3 1.8 -0.1
v -0.1 1.7 0.1
v -0.1 1.7 0
v -0.1 1.8 0.1
v -0.1 1.8 0
v 0 1.7 0.2
v 0 1.7 0.1
v 0 1.8 0.2
v 0 1.8 0.1
v 0.1 1.7 0.3
v 0.1 1.7 0.2
v 0.1 1.8 0.3
v 0.1 1.8 0.2
v 0.3 1.7 0.5
v 0.3 1.7 0.3
v 0.3 1.8 0.5
v 0.3 1.8 0.3
v 0.4 0.1 0.7
v 0.4 0.1 0.6
v 0.4 0.1 -0.6
v 0.4 0.1 -0.7
v 0.4 1 0.7
v 0.4 1 0.6
v 0.4 1.1 0.7
v 0.4 1.1 0.6
v 0.4 1.4 0.7
v 0.4 1.4 0.6
v 0.4 1.5 0.7
v 0.4 1.5 0.6
v 0.4 1.6 0.7
v 0.4 1.6 0.6
v 0.4 1.6 -0.6
v 0.4 1.6 -0.7
v 0.5 1 0.8
v 0.5 1 0.7
v 0.5 1.1 0.8
v 0.5 1.1 0.7
v 0.5 1.4 0.8
v 0.5 1.4 0.7
v 0.5 1.5 0.8
v 0.5 1.5 0.7
v 0.7 1 0.7
v 0.7 1 0.5
v 0.7 1.1 0.7
v 0.7 1.1 0.6
v 0.7 1.4 0.7
v 0.7 1.4 0.6
v 0.7 1.5 0.7
v 0.7 1.5 0.5
v -0.3 1.7 -0.3
v -0.3 1.7 -0.4
v -0.3 1.8 -0.3
v -0.3 1.8 -0.4
v -0.2 1.7 0.1
v -0.2 1.7 0
v -0.2 1.7 -0.2
v -0.2 1.7 -0.3
v -0.2 1.8 0.1
v -0.2 1.8 0
v -0.2 1.8 -0.2
v -0.2 1.8 -0.3
v -0.1 1.7 -0.1
v -0.1 1.7 -0.2
v -0.1 1.8 -0.1
v -0.1 1.8 -0.2
v 0.1 1.7 0
v 0.1 1.7 -0.1
v 0.1 1.8 0
v 0.1 1.8 -0.1
v 0.2 1.7 0.1
v 0.2 1.7 0
v 0.2 1.8 0.1
v 0.2 1.8 0
v 0.3 0.1 0.7
v 0.3 0.1 0.6
v 0.3 0.1 -0.6
v 0.3 0.1 -0.7
v 0.3 1.6 0.7
v 0.3 1.6 0.6
v 0.3 1.6 -0.6
v 0.3 1.6 -0.7
v 0.3 1.7 0.2
v 0.3 1.7 0.1
v 0.3 1.8 0.2
v 0.3 1.8 0.1
v 0.4 1.7 0.3
v 0.4 1.7 0.2
v 0.4 1.8 0.3
v 0.4 1.8 0.2
v 0.5 1.7 0.5
v 0.5 1.7 0.4
v 0.5 1.7 0.3
v 0.5 1.8 0.5
v 0.5 1.8 0.4
v 0.5 1.8 0.3
v 0.6 0 0.6
v 0.6 0 -0.6
v 0.6 0.1 0.7
v 0.6 0.1 0.6
v 0.6 0.1 -0.6
v 0.6 0.1 -0.7
v 0.6 1 0.7
v 0.6 1.1 0.7
v 0.6 1.4 0.7
v 0.6 1.5 0.7
v 0.6 1.6 0.7
v 0.6 1.6 -0.7
v 0.7 1.6 0.8
v 0.7 1.6 -0.8
v 0.7 1.7 0.8
v 0.7 1.7 -0.8
v 0.8 1 0.8
v 0.8 1 0.5
v 0.8 1.1 0.8
v 0.8 1.1 0.6
v 0.8 1.4 0.8
v 0.8 1.4 0.6
v 0.8 1.5 0.8
v 0.8 1.5 0.5
v -0.8 1.6 0.8
v -0.8 1.7 0.8
v 0.5 1 0.8
v 0.5 1.1 0.8
v 0.5 1.4 0.8
v 0.5 1.5 0.8
v 0.7 1.6 0.8
v 0.7 1.7 0.8
v 0.8 1 0.8
v 0.8 1.1 0.8
v 0.8 1.4 0.8
v 0.8 1.5 0.8
v -0.8 0.1 0.7
v -0.8 1.6 0.7
v 0.3 0.1 0.7
v 0.3 1.6 0.7
v 0.4 0.1 0.7
v 0.4 1 0.7
v 0.4 1.1 0.7
v 0.4 1.4 0.7
v 0.4 1.5 0.7
v 0.4 1.6 0.7
v 0.5 1 0.7
v 0.5 1.1 0.7
v 0.5 1.4 0.7
v 0.5 1.5 0.7
v 0.6 0.1 0.7
v 0.6 1 0.7
v 0.6 1.1 0.7
v 0.6 1.4 0.7
v 0.6 1.5 0.7
v 0.6 1.6 0.7
v -0.8 0 0.6
v -0.8 0.1 0.6
v 0.3 0.1 0.6
v 0.3 1.6 0.6
v 0.4 0.1 0.6
v 0.4 1 0.6
v 0.4 1.1 0.6
v 0.4 1.4 0.6
v 0.4 1.5 0.6
v 0.4 1.6 0.6
v 0.6 0 0.6
v 0.6 0.1 0.6
v 0.7 1.1 0.6
v 0.7 1.4 0.6
v 0.8 1.1 0.6
v 0.8 1.4 0.6
v 0.3 1.7 0.5
v 0.3 1.8 0.5
v 0.5 1.7 0.5
v 0.5 1.8 0.5
v 0.1 1.7 0.3
v 0.1 1.8 0.3
v 0.2 1.7 0.3
v 0.2 1.8 0.3
v 0.3 1.7 0.3
v 0.3 1.8 0.3
v 0 1.7 0.2
v 0 1.8 0.2
v 0.1 1.7 0.2
v 0.1 1.8 0.2
v -0.5 1.7 0.1
v -0.5 1.8 0.1
v -0.3 1.7 0.1
v -0.3 1.8 0.1
v -0.2 1.7 0.1
v -0.2 1.8 0.1
v -0.1 1.7 0.1
v -0.1 1.8 0.1
v 0 1.7 0.1
v 0 1.8 0.1
v -0.2 1.7 0
v -0.2 1.8 0
v -0.1 1.7 0
v -0.1 1.8 0
v -0.4 1.7 -0.1
v -0.4 1.8 -0.1
v -0.3 1.7 -0.1
v -0.3 1.8 -0.1
v -0.5 1.7 -0.2
v -0.5 1.8 -0.2
v -0.4 1.7 -0.2
v -0.4 1.8 -0.2
v 0.6 1 0.7
v 0.6 1.1 0.7
v 0.6 1.4 0.7
v 0.6 1.5 0.7
v 0.7 1 0.7
v 0.7 1.1 0.7
v 0.7 1.4 0.7
v 0.7 1.5 0.7
v 0.7 1 0.5
v 0.7 1.5 0.5
v 0.8 1 0.5
v 0.8 1.5 0.5
v 0.4 1.7 0.3
v 0.4 1.8 0.3
v 0.5 1.7 0.3
v 0.5 1.8 0.3
v 0.3 1.7 0.2
v 0.3 1.8 0.2
v 0.4 1.7 0.2
v 0.4 1.8 0.2
v 0.2 1.7 0.1
v 0.2 1.8 0.1
v 0.3 1.7 0.1
v 0.3 1.8 0.1
v -0.5 1.7 0
v -0.5 1.8 0
v -0.3 1.7 0
v -0.3 1.8 0
v 0.1 1.7 0
v 0.1 1.8 0
v 0.2 1.7 0
v 0.2 1.8 0
v -0.1 1.7 -0.1
v -0.1 1.8 -0.1
v 0.1 1.7 -0.1
v 0.1 1.8 -0.1
v -0.2 1.7 -0.2
v -0.2 1.8 -0.2
v -0.1 1.7 -0.2
v -0.1 1.8 -0.2
v -0.3 1.7 -0.3
v -0.3 1.8 -0.3
v -0.2 1.7 -0.3
v -0.2 1.8 -0.3
v -0.5 1.7 -0.4
v -0.5 1.8 -0.4
v -0.3 1.7 -0.4
v -0.3 1.8 -0.4
v -0.8 0 -0.6
v -0.8 0.1 -0.6
v 0.3 0.1 -0.6
v 0.3 1.6 -0.6
v 0.4 0.1 -0.6
v 0.4 1.6 -0.6
v 0.6 0 -0.6
v 0.6 0.1 -0.6
v -0.8 0.1 -0.7
v -0.8 1.6 -0.7
v 0.3 0.1 -0.7
v 0.3 1.6 -0.7
v 0.4 0.1 -0.7
v 0.4 1.6 -0.7
v 0.6 0.1 -0.7
v 0.6 1.6 -0.7
v -0.8 1.6 -0.8
v -0.8 1.7 -0.8
v 0.7 1.6 -0.8
v 0.7 1.7 -0.8
v -0.8 0 0.6
v 0.6 0 0.6
v -0.8 0 -0.6
v 0.6 0 -0.6
v -0.8 0.1 0.7
v 0.3 0.1 0.7
v 0.4 0.1 0.7
v 0.6 0.1 0.7
v -0.8 0.1 0.6
v 0.3 0.1 0.6
v 0.4 0.1 0.6
v 0.6 0.1 0.6
v -0.8 0.1 -0.6
v 0.3 0.1 -0.6
v 0.4 0.1 -0.6
v 0.6 0.1 -0.6
v -0.8 0.1 -0.7
v 0.3 0.1 -0.7
v 0.4 0.1 -0.7
v 0.6 0.1 -0.7
v 0.5 1 0.8
v 0.8 1 0.8
v 0.5 1 0.7
v 0.6 1 0.7
v 0.7 1 0.7
v 0.7 1 0.5
v 0.8 1 0.5
v 0.5 1.4 0.8
v 0.8 1.4 0.8
v 0.5 1.4 0.7
v 0.6 1.4 0.7
v 0.7 1.4 0.7
v 0.7 1.4 0.6
v 0.8 1.4 0.6
v -0.8 1.6 0.8
v 0.7 1.6 0.8
v -0.8 1.6 0.7
v 0.3 1.6 0.7
v 0.4 1.6 0.7
v 0.6 1.6 0.7
v 0.3 1.6 0.6
v 0.4 1.6 0.6
v 0.3 1.6 -0.6
v 0.4 1.6 -0.6
v -0.8 1.6 -0.7
v 0.3 1.6 -0.7
v 0.4 1.6 -0.7
v 0.6 1.6 -0.7
v -0.8 1.6 -0.8
v 0.7 1.6 -0.8
v 0.5 1.1 0.8
v 0.8 1.1 0.8
v 0.5 1.1 0.7
v 0.6 1.1 0.7
v 0.7 1.1 0.7
v 0.7 1.1 0.6
v 0.8 1.1 0.6
v 0.5 1.5 0.8
v 0.8 1.5 0.8
v 0.5 1.5 0.7
v 0.6 1.5 0.7
v 0.7 1.5 0.7
v 0.7 1.5 0.5
v 0.8 1.5 0.5
v -0.8 1.7 0.8
v 0.7 1.7 0.8
v 0.3 1.7 0.5
v 0.5 1.7 0.5
v 0.5 1.7 0.4
v 0.1 1.7 0.3
v 0.2 1.7 0.3
v 0.3 1.7 0.3
v 0.4 1.7 0.3
v 0.5 1.7 0.3
v 0 1.7 0.2
v 0.1 1.7 0.2
v 0.3 1.7 0.2
v 0.4 1.7 0.2
v -0.5 1.7 0.1
v -0.3 1.7 0.1
v -0.2 1.7 0.1
v -0.1 1.7 0.1
v 0 1.7 0.1
v 0.2 1.7 0.1
v 0.3 1.7 0.1
v -0.5 1.7 0
v -0.3 1.7 0
v -0.2 1.7 0
v -0.1 1.7 0
v 0.1 1.7 0
v 0.2 1.7 0
v -0.4 1.7 -0.1
v -0.3 1.7 -0.1
v -0.1 1.7 -0.1
v 0.1 1.7 -0.1
v -0.5 1.7 -0.2
v -0.4 1.7 -0.2
v -0.2 1.7 -0.2
v -0.1 1.7 -0.2
v -0.5 1.7 -0.3
v -0.3 1.7 -0.3
v -0.2 1.7 -0.3
v -0.5 1.7 -0.4
v -0.3 1.7 -0.4
v -0.8 1.7 -0.8
v 0.7 1.7 -0.8
v 0.3 1.8 0.5
v 0.5 1.8 0.5
v 0.4 1.8 0.4
v 0.5 1.8 0.4
v 0.1 1.8 0.3
v 0.2 1.8 0.3
v 0.3 1.8 0.3
v 0.4 1.8 0.3
v 0.5 1.8 0.3
v 0 1.8 0.2
v 0.1 1.8 0.2
v 0.2 1.8 0.2
v 0.3 1.8 0.2
v 0.4 1.8 0.2
v -0.5 1.8 0.1
v -0.3 1.8 0.1
v -0.2 1.8 0.1
v -0.1 1.8 0.1
v 0 1.8 0.1
v 0.1 1.8 0.1
v 0.2 1.8 0.1
v 0.3 1.8 0.1
v -0.5 1.8 0
v -0.3 1.8 0
v -0.2 1.8 0
v -0.1 1.8 0
v 0 1.8 0
v 0.1 1.8 0
v 0.2 1.8 0
v -0.4 1.8 -0.1
v -0.3 1.8 -0.1
v -0.2 1.8 -0.1
v -0.1 1.8 -0.1
v 0.1 1.8 -0.1
v -0.5 1.8 -0.2
v -0.4 1.8 -0.2
v -0.3 1.8 -0.2
v -0.2 1.8 -0.2
v -0.1 1.8 -0.2
v -0.5 1.8 -0.3
v -0.4 1.8 -0.3
v -0.3 1.8 -0.3
v -0.2 1.8 -0.3
v -0.5 1.8 -0.4
v -0.3 1.8 -0.4

# faces
f 4/3/1 2/3/1 1/3/1
f 5/3/1 2/3/1 4/3/1
f 8/3/1 4/3/1 3/3/1
f 8/3/1 6/3/1 5/3/1
f 8/3/1 5/3/1 4/3/1
f 9/3/1 6/3/1 8/3/1
f 11/2/1 8/2/1 7/2/1
f 11/2/1 10/2/1 9/2/1
f 11/2/1 9/2/1 8/2/1
f 12/2/1 10/2/1 11/2/1
f 18/7/1 14/7/1 13/7/1
f 19/7/1 14/7/1 18/7/1
f 20/7/1 16/7/1 15/7/1
f 21/5/1 17/5/1 16/5/1
f 21/7/1 16/7/1 20/7/1
f 22/5/1 17/5/1 21/5/1
f 25/7/1 24/7/1 23/7/1
f 26/7/1 24/7/1 25/7/1
f 29/6/1 28/6/1 27/6/1
f 30/6/1 28/6/1 29/6/1
f 33/7/1 32/7/1 31/7/1
f 34/7/1 32/7/1 33/7/1
f 37/7/1 36/7/1 35/7/1
f 38/7/1 36/7/1 37/7/1
f 41/7/1 40/7/1 39/7/1
f 42/7/1 40/7/1 41/7/1
f 45/7/1 44/7/1 43/7/1
f 46/7/1 44/7/1 45/7/1
f 51/3/1 48/3/1 47/3/1
f 52/3/1 48/3/1 51/3/1
f 53/4/1 52/4/1 51/4/1
f 54/4/1 52/4/1 53/4/1
f 55/3/1 54/3/1 53/3/1
f 56/3/1 54/3/1 55/3/1
f 57/4/1 56/4/1 55/4/1
f 58/4/1 56/4/1 57/4/1
f 59/3/1 58/3/1 57/3/1
f 60/3/1 58/3/1 59/3/1
f 61/3/1 50/3/1 49/3/1
f 62/3/1 50/3/1 61/3/1
f 65/4/1 64/4/1 63/4/1
f 66/4/1 64/4/1 65/4/1
f 69/4/1 68/4/1 67/4/1
f 70/4/1 68/4/1 69/4/1
f 73/4/1 72/4/1 71/4/1
f 74/4/1 72/4/1 73/4/1
f 76/4/1 72/4/1 74/4/1
f 77/4/1 76/4/1 75/4/1
f 78/4/1 72/4/1 76/4/1
f 78/4/1 76/4/1 77/4/1
f 79/5/2 80/5/2 81/5/2
f 81/5/2 80/5/2 82/5/2
f 83/6/2 84/6/2 87/6/2
f 87/6/2 84/6/2 88/6/2
f 85/5/2 86/5/2 89/5/2
f 89/5/2 86/5/2 90/5/2
f 91/5/2 92/5/2 93/5/2
f 93/5/2 92/5/2 94/5/2
f 95/5/2 96/5/2 97/5/2
f 97/5/2 96/5/2 98/5/2
f 99/5/2 100/5/2 101/5/2
f 101/5/2 100/5/2 102/5/2
f 103/3/2 104/3/2 107/3/2
f 107/3/2 104/3/2 108/3/2
f 105/3/2 106/3/2 109/3/2
f 109/3/2 106/3/2 110/3/2
f 111/5/2 112/5/2 113/5/2
f 113/5/2 112/5/2 114/5/2
f 115/5/2 116/5/2 117/5/2
f 117/5/2 116/5/2 118/5/2
f 119/7/2 120/7/2 122/7/2
f 120/5/2 121/5/2 123/5/2
f 122/7/2 120/7/2 123/7/2
f 123/5/2 121/5/2 124/5/2
f 125/3/2 126/3/2 128/3/2
f 128/3/2 126/3/2 129/3/2
f 127/3/2 128/3/2 131/3/2
f 129/3/2 130/3/2 131/3/2
f 128/3/2 129/3/2 131/3/2
f 131/3/2 130/3/2 132/3/2
f 132/3/2 130/3/2 133/3/2
f 133/3/2 130/3/2 134/3/2
f 134/3/2 130/3/2 135/3/2
f 135/3/2 130/3/2 136/3/2
f 137/2/2 138/2/2 139/2/2
f 139/2/2 138/2/2 140/2/2
f 141/4/2 142/4/2 143/4/2
f 143/4/2 142/4/2 144/4/2
f 144/4/2 142/4/2 146/4/2
f 145/4/2 146/4/2 147/4/2
f 146/4/2 142/4/2 148/4/2
f 147/4/2 146/4/2 148/4/2
f 155/2/3 150/2/3 149/2/3
f 156/2/3 150/2/3 155/2/3
f 157/4/3 152/4/3 151/4/3
f 158/4/3 152/4/3 157/4/3
f 159/4/3 154/4/3 153/4/3
f 160/4/3 154/4/3 159/4/3
f 163/3/3 162/3/3 161/3/3
f 164/3/3 162/3/3 163/3/3
f 171/3/3 166/3/3 165/3/3
f 171/4/3 167/4/3 166/4/3
f 172/3/3 168/3/3 167/3/3
f 172/4/3 167/4/3 171/4/3
f 173/4/3 169/4/3 168/4/3
f 173/3/3 168/3/3 172/3/3
f 174/3/3 170/3/3 169/3/3
f 174/4/3 169/4/3 173/4/3
f 175/3/3 171/3/3 165/3/3
f 176/3/3 171/3/3 175/3/3
f 177/3/3 173/3/3 172/3/3
f 178/3/3 173/3/3 177/3/3
f 179/3/3 170/3/3 174/3/3
f 180/3/3 170/3/3 179/3/3
f 183/3/3 182/3/3 181/3/3
f 185/3/3 183/3/3 181/3/3
f 185/2/3 184/2/3 183/2/3
f 186/2/3 184/2/3 185/2/3
f 187/2/3 184/2/3 186/2/3
f 188/2/3 184/2/3 187/2/3
f 189/2/3 184/2/3 188/2/3
f 190/2/3 184/2/3 189/2/3
f 191/3/3 185/3/3 181/3/3
f 192/3/3 185/3/3 191/3/3
f 195/4/3 194/4/3 193/4/3
f 196/4/3 194/4/3 195/4/3
f 199/7/3 198/7/3 197/7/3
f 200/7/3 198/7/3 199/7/3
f 203/7/3 202/7/3 201/7/3
f 204/7/3 202/7/3 203/7/3
f 205/6/3 204/6/3 203/6/3
f 206/6/3 204/6/3 205/6/3
f 209/7/3 208/7/3 207/7/3
f 210/7/3 208/7/3 209/7/3
f 213/7/3 212/7/3 211/7/3
f 214/7/3 212/7/3 213/7/3
f 215/6/3 214/6/3 213/6/3
f 216/6/3 214/6/3 215/6/3
f 219/7/3 218/7/3 217/7/3
f 220/7/3 218/7/3 219/7/3
f 223/6/3 222/6/3 221/6/3
f 224/6/3 222/6/3 223/6/3
f 227/7/3 226/7/3 225/7/3
f 228/7/3 226/7/3 227/7/3
f 231/7/3 230/7/3 229/7/3
f 232/7/3 230/7/3 231/7/3
f 233/4/4 234/4/4 237/4/4
f 237/4/4 234/4/4 238/4/4
f 235/4/4 236/4/4 239/4/4
f 239/4/4 236/4/4 240/4/4
f 241/4/4 242/4/4 243/4/4
f 243/4/4 242/4/4 244/4/4
f 245/5/4 246/5/4 247/5/4
f 247/5/4 246/5/4 248/5/4
f 249/5/4 250/5/4 251/5/4
f 251/5/4 250/5/4 252/5/4
f 253/5/4 254/5/4 255/5/4
f 255/5/4 254/5/4 256/5/4
f 257/7/4 258/7/4 259/7/4
f 259/7/4 258/7/4 260/7/4
f 261/5/4 262/5/4 263/5/4
f 263/5/4 262/5/4 264/5/4
f 265/5/4 266/5/4 267/5/4
f 267/5/4 266/5/4 268/5/4
f 269/5/4 270/5/4 271/5/4
f 271/5/4 270/5/4 272/5/4
f 273/5/4 274/5/4 275/5/4
f 275/5/4 274/5/4 276/5/4
f 277/5/4 278/5/4 279/5/4
f 279/5/4 278/5/4 280/5/4
f 281/3/4 282/3/4 283/3/4
f 281/3/4 283/3/4 285/3/4
f 283/1/4 284/1/4 285/1/4
f 285/1/4 284/1/4 286/1/4
f 281/3/4 285/3/4 287/3/4
f 287/3/4 285/3/4 288/3/4
f 289/3/4 290/3/4 291/3/4
f 291/3/4 290/3/4 292/3/4
f 293/3/4 294/3/4 295/3/4
f 295/3/4 294/3/4 296/3/4
f 297/2/4 298/2/4 299/2/4
f 299/2/4 298/2/4 300/2/4
f 303/3/5 302/3/5 301/3/5
f 304/3/5 302/3/5 303/3/5
f 309/3/5 306/3/5 305/3/5
f 310/3/5 306/3/5 309/3/5
f 311/3/5 308/3/5 307/3/5
f 312/3/5 308/3/5 311/3/5
f 317/3/5 314/3/5 313/3/5
f 318/3/5 314/3/5 317/3/5
f 319/3/5 316/3/5 315/3/5
f 320/3/5 316/3/5 319/3/5
f 323/4/5 322/4/5 321/4/5
f 324/4/5 322/4/5 323/4/5
f 325/4/5 322/4/5 324/4/5
f 326/4/5 322/4/5 325/4/5
f 327/4/5 322/4/5 326/4/5
f 330/4/5 329/4/5 328/4/5
f 331/4/5 329/4/5 330/4/5
f 332/4/5 329/4/5 331/4/5
f 333/4/5 329/4/5 332/4/5
f 334/4/5 329/4/5 333/4/5
f 337/2/5 336/2/5 335/2/5
f 338/2/5 336/2/5 337/2/5
f 339/2/5 336/2/5 338/2/5
f 340/2/5 336/2/5 339/2/5
f 341/2/5 339/2/5 338/2/5
f 342/2/5 339/2/5 341/2/5
f 346/2/5 344/2/5 343/2/5
f 347/2/5 344/2/5 346/2/5
f 348/2/5 336/2/5 340/2/5
f 349/2/5 347/2/5 346/2/5
f 349/2/5 348/2/5 347/2/5
f 349/2/5 346/2/5 345/2/5
f 350/2/5 336/2/5 348/2/5
f 350/2/5 348/2/5 349/2/5
f 351/4/6 352/4/6 353/4/6
f 353/4/6 352/4/6 354/4/6
f 354/4/6 352/4/6 355/4/6
f 355/4/6 352/4/6 356/4/6
f 356/4/6 352/4/6 357/4/6
f 358/4/6 359/4/6 360/4/6
f 360/4/6 359/4/6 361/4/6
f 361/4/6 359/4/6 362/4/6
f 362/4/6 359/4/6 363/4/6
f 363/4/6 359/4/6 364/4/6
f 365/2/6 366/2/6 367/2/6
f 367/2/6 366/2/6 368/2/6
f 368/2/6 366/2/6 369/2/6
f 365/2/6 367/2/6 370/2/6
f 370/2/6 367/2/6 371/2/6
f 371/2/6 367/2/6 372/2/6
f 369/2/6 366/2/6 374/2/6
f 365/2/6 370/2/6 375/2/6
f 375/2/6 370/2/6 376/2/6
f 373/2/6 374/2/6 378/2/6
f 365/2/6 375/2/6 379/2/6
f 379/2/6 375/2/6 380/2/6
f 380/2/6 375/2/6 381/2/6
f 381/2/6 375/2/6 382/2/6
f 382/2/6 375/2/6 383/2/6
f 377/2/6 378/2/6 385/2/6
f 365/2/6 379/2/6 386/2/6
f 381/2/6 382/2/6 388/2/6
f 388/2/6 382/2/6 389/2/6
f 384/2/6 385/2/6 391/2/6
f 386/2/6 387/2/6 392/2/6
f 392/2/6 387/2/6 393/2/6
f 390/2/6 391/2/6 395/2/6
f 365/2/6 386/2/6 396/2/6
f 386/2/6 392/2/6 396/2/6
f 396/2/6 392/2/6 397/2/6
f 394/2/6 395/2/6 399/2/6
f 365/2/6 396/2/6 400/2/6
f 398/2/6 399/2/6 402/2/6
f 365/2/6 400/2/6 403/2/6
f 401/2/6 402/2/6 404/2/6
f 365/2/6 403/2/6 405/2/6
f 403/2/6 404/2/6 405/2/6
f 404/2/6 402/2/6 406/2/6
f 405/2/6 404/2/6 406/2/6
f 374/2/6 366/2/6 406/2/6
f 378/2/6 374/2/6 406/2/6
f 402/2/6 399/2/6 406/2/6
f 385/2/6 378/2/6 406/2/6
f 391/2/6 385/2/6 406/2/6
f 399/2/6 395/2/6 406/2/6
f 395/2/6 391/2/6 406/2/6
f 407/7/6 408/7/6 409/7/6
f 409/7/6 408/7/6 410/7/6
f 407/7/6 409/7/6 413/7/6
f 409/5/6 410/5/6 414/5/6
f 413/7/6 409/7/6 414/7/6
f 414/5/6 410/5/6 415/5/6
f 411/7/6 412/7/6 417/7/6
f 412/6/6 413/6/6 418/6/6
f 417/7/6 412/7/6 418/7/6
f 413/5/6 414/5/6 419/5/6
f 418/6/6 413/6/6 419/6/6
f 419/5/6 414/5/6 420/5/6
f 416/7/6 417/7/6 425/7/6
f 417/6/6 418/6/6 426/6/6
f 425/7/6 417/7/6 426/7/6
f 418/5/6 419/5/6 427/5/6
f 426/6/6 418/6/6 427/6/6
f 427/5/6 419/5/6 428/5/6
f 421/7/6 422/7/6 429/7/6
f 422/6/6 423/6/6 430/6/6
f 429/7/6 422/7/6 430/7/6
f 430/6/6 423/6/6 431/6/6
f 424/7/6 425/7/6 432/7/6
f 425/6/6 426/6/6 433/6/6
f 432/7/6 425/7/6 433/7/6
f 426/5/6 427/5/6 434/5/6
f 433/6/6 426/6/6 434/6/6
f 434/5/6 427/5/6 435/5/6
f 430/6/6 431/6/6 437/6/6
f 431/6/6 432/6/6 437/6/6
f 437/6/6 432/6/6 438/6/6
f 433/5/6 434/5/6 439/5/6
f 438/6/6 432/6/6 439/6/6
f 432/5/6 433/5/6 439/5/6
f 439/5/6 434/5/6 440/5/6
f 436/7/6 437/7/6 442/7/6
f 437/6/6 438/6/6 443/6/6
f 442/7/6 437/7/6 443/7/6
f 438/5/6 439/5/6 444/5/6
f 443/6/6 438/6/6 444/6/6
f 444/5/6 439/5/6 445/5/6
f 441/7/6 442/7/6 446/7/6
f 442/6/6 443/6/6 447/6/6
f 446/7/6 442/7/6 447/7/6
f 443/5/6 444/5/6 448/5/6
f 447/6/6 443/6/6 448/6/6
f 448/5/6 444/5/6 449/5/6
f 446/5/6 447/5/6 450/5/6
f 447/5/6 448/5/6 450/5/6
f 450/5/6 448/5/6 451/5/6
