# MagicaVoxel @ Ephtracy

# group
o 

# material
mtllib Wood Machine.mtl
usemtl palette

# normals
vn -1 0 0
vn 1 0 0
vn 0 0 1
vn 0 0 -1
vn 0 -1 0
vn 0 1 0

# texcoords
vt 0.00976563 0.5
vt 0.0253906 0.5
vt 0.0644531 0.5
vt 0.189453 0.5
vt 0.314453 0.5
vt 0.318359 0.5
vt 0.326172 0.5
vt 0.501953 0.5
vt 0.509766 0.5
vt 0.517578 0.5
vt 0.880859 0.5
vt 0.884766 0.5
vt 0.888672 0.5

# verts
v -0.8 0 0.5
v -0.8 0 -0.8
v -0.8 0.1 0.6
v -0.8 0.1 0.5
v -0.8 0.2 0.7
v -0.8 0.2 0.6
v -0.8 1.2 0.7
v -0.8 1.2 0.6
v -0.8 1.3 0.6
v -0.8 1.3 0.5
v -0.8 1.4 0.5
v -0.8 1.4 -0.5
v -0.8 1.5 -0.5
v -0.8 1.5 -0.6
v -0.8 1.8 -0.6
v -0.8 1.8 -0.8
v -0.7 0 0.6
v -0.7 0 0.5
v -0.7 0.1 0.7
v -0.7 0.1 0.6
v -0.7 0.1 0.5
v -0.7 0.2 0.7
v -0.7 0.2 0.6
v -0.7 1.2 0.7
v -0.7 1.2 0.6
v -0.7 1.3 0.7
v -0.7 1.3 0.6
v -0.7 1.3 0.5
v -0.7 1.4 0.6
v -0.7 1.4 0.5
v -0.6 0 0.7
v -0.6 0 0.6
v -0.6 0.1 0.7
v -0.6 0.1 0.6
v -0.6 1.3 0.7
v -0.6 1.3 0.6
v -0.6 1.4 0.7
v -0.6 1.4 0.6
v -0.6 1.4 0.1
v -0.6 1.4 -0.1
v -0.6 1.5 0.1
v -0.6 1.5 -0.1
v -0.5 1.4 0.2
v -0.5 1.4 0.1
v -0.5 1.4 -0.1
v -0.5 1.4 -0.2
v -0.5 1.4 -0.3
v -0.5 1.5 0.2
v -0.5 1.5 0.1
v -0.5 1.5 -0.1
v -0.5 1.5 -0.2
v -0.5 1.5 -0.3
v -0.4 0.4 0.8
v -0.4 0.4 0.7
v -0.4 1 0.8
v -0.4 1 0.7
v -0.4 1.4 0.3
v -0.4 1.4 0.2
v -0.4 1.4 -0.3
v -0.4 1.4 -0.4
v -0.4 1.5 0.3
v -0.4 1.5 0.2
v -0.4 1.5 -0.3
v -0.4 1.5 -0.4
v -0.3 0.3 0.8
v -0.3 0.3 0.7
v -0.3 0.4 0.8
v -0.3 0.4 0.7
v -0.3 1 0.8
v -0.3 1 0.7
v -0.3 1.1 0.8
v -0.3 1.1 0.7
v -0.2 0.6 0.7
v -0.2 0.6 0.6
v -0.2 0.8 0.7
v -0.2 0.8 0.6
v -0.2 1.4 0.6
v -0.2 1.4 0.2
v -0.2 1.4 -0.4
v -0.2 1.4 -0.5
v -0.2 1.5 0.6
v -0.2 1.5 0.2
v -0.2 1.5 -0.4
v -0.2 1.5 -0.5
v -0.1 0.5 0.7
v -0.1 0.5 0.6
v -0.1 0.6 0.7
v -0.1 0.6 0.6
v -0.1 0.8 0.7
v -0.1 0.8 0.6
v -0.1 0.9 0.7
v -0.1 0.9 0.6
v 0.1 1.4 -0.4
v 0.1 1.4 -0.5
v 0.1 1.5 -0.4
v 0.1 1.5 -0.5
v 0.2 0.4 0.8
v 0.2 0.4 0.6
v 0.2 0.5 0.8
v 0.2 0.5 0.6
v 0.2 0.9 0.8
v 0.2 0.9 0.6
v 0.2 1 0.8
v 0.2 1 0.6
v 0.3 0.5 0.8
v 0.3 0.5 0.6
v 0.3 0.9 0.8
v 0.3 0.9 0.6
v 0.3 1.4 0.3
v 0.3 1.4 0.2
v 0.3 1.5 0.3
v 0.3 1.5 0.2
v -0.3 0.5 0.8
v -0.3 0.5 0.6
v -0.3 0.9 0.8
v -0.3 0.9 0.6
v -0.3 1.4 0.3
v -0.3 1.4 0.2
v -0.3 1.5 0.3
v -0.3 1.5 0.2
v -0.2 0.4 0.8
v -0.2 0.4 0.6
v -0.2 0.5 0.8
v -0.2 0.5 0.6
v -0.2 0.9 0.8
v -0.2 0.9 0.6
v -0.2 1 0.8
v -0.2 1 0.6
v 0 1.4 -0.4
v 0 1.4 -0.5
v 0 1.5 -0.4
v 0 1.5 -0.5
v 0.1 0.5 0.7
v 0.1 0.5 0.6
v 0.1 0.6 0.7
v 0.1 0.6 0.6
v 0.1 0.8 0.7
v 0.1 0.8 0.6
v 0.1 0.9 0.7
v 0.1 0.9 0.6
v 0.2 0.6 0.7
v 0.2 0.6 0.6
v 0.2 0.8 0.7
v 0.2 0.8 0.6
v 0.2 1.4 0.6
v 0.2 1.4 0.3
v 0.2 1.4 0.2
v 0.2 1.5 0.6
v 0.2 1.5 0.3
v 0.2 1.5 0.2
v 0.3 0.3 0.8
v 0.3 0.3 0.7
v 0.3 0.4 0.8
v 0.3 0.4 0.7
v 0.3 1 0.8
v 0.3 1 0.7
v 0.3 1.1 0.8
v 0.3 1.1 0.7
v 0.3 1.4 -0.4
v 0.3 1.4 -0.5
v 0.3 1.5 -0.4
v 0.3 1.5 -0.5
v 0.4 0.4 0.8
v 0.4 0.4 0.7
v 0.4 1 0.8
v 0.4 1 0.7
v 0.4 1.4 -0.2
v 0.4 1.4 -0.4
v 0.4 1.5 -0.2
v 0.4 1.5 -0.4
v 0.5 1.4 0.3
v 0.5 1.4 0.2
v 0.5 1.4 -0.1
v 0.5 1.4 -0.2
v 0.5 1.5 0.3
v 0.5 1.5 0.2
v 0.5 1.5 -0.1
v 0.5 1.5 -0.2
v 0.6 0 0.7
v 0.6 0 0.6
v 0.6 0.1 0.7
v 0.6 0.1 0.6
v 0.6 1.3 0.7
v 0.6 1.3 0.6
v 0.6 1.4 0.7
v 0.6 1.4 0.6
v 0.6 1.4 0.2
v 0.6 1.4 0.1
v 0.6 1.4 -0.1
v 0.6 1.5 0.2
v 0.6 1.5 0.1
v 0.6 1.5 -0.1
v 0.7 0 0.6
v 0.7 0 0.5
v 0.7 0.1 0.7
v 0.7 0.1 0.6
v 0.7 0.1 0.5
v 0.7 0.2 0.7
v 0.7 0.2 0.6
v 0.7 1.2 0.7
v 0.7 1.2 0.6
v 0.7 1.3 0.7
v 0.7 1.3 0.6
v 0.7 1.3 0.5
v 0.7 1.4 0.6
v 0.7 1.4 0.5
v 0.8 0 0.5
v 0.8 0 -0.8
v 0.8 0.1 0.6
v 0.8 0.1 0.5
v 0.8 0.2 0.7
v 0.8 0.2 0.6
v 0.8 1.2 0.7
v 0.8 1.2 0.6
v 0.8 1.3 0.6
v 0.8 1.3 0.5
v 0.8 1.4 0.5
v 0.8 1.4 -0.5
v 0.8 1.5 -0.5
v 0.8 1.5 -0.6
v 0.8 1.8 -0.6
v 0.8 1.8 -0.8
v -0.4 0.4 0.8
v -0.4 1 0.8
v -0.3 0.3 0.8
v -0.3 0.4 0.8
v -0.3 0.5 0.8
v -0.3 0.9 0.8
v -0.3 1 0.8
v -0.3 1.1 0.8
v -0.2 0.4 0.8
v -0.2 0.5 0.8
v -0.2 0.9 0.8
v -0.2 1 0.8
v 0.2 0.4 0.8
v 0.2 0.5 0.8
v 0.2 0.9 0.8
v 0.2 1 0.8
v 0.3 0.3 0.8
v 0.3 0.4 0.8
v 0.3 0.5 0.8
v 0.3 0.9 0.8
v 0.3 1 0.8
v 0.3 1.1 0.8
v 0.4 0.4 0.8
v 0.4 1 0.8
v -0.8 0.2 0.7
v -0.8 1.2 0.7
v -0.7 0.1 0.7
v -0.7 0.2 0.7
v -0.7 1.2 0.7
v -0.7 1.3 0.7
v -0.6 0 0.7
v -0.6 0.1 0.7
v -0.6 1.3 0.7
v -0.6 1.4 0.7
v -0.4 0.4 0.7
v -0.4 1 0.7
v -0.3 0.3 0.7
v -0.3 0.4 0.7
v -0.3 1 0.7
v -0.3 1.1 0.7
v -0.2 0.6 0.7
v -0.2 0.8 0.7
v -0.1 0.5 0.7
v -0.1 0.6 0.7
v -0.1 0.8 0.7
v -0.1 0.9 0.7
v 0.1 0.5 0.7
v 0.1 0.6 0.7
v 0.1 0.8 0.7
v 0.1 0.9 0.7
v 0.2 0.6 0.7
v 0.2 0.8 0.7
v 0.3 0.3 0.7
v 0.3 0.4 0.7
v 0.3 1 0.7
v 0.3 1.1 0.7
v 0.4 0.4 0.7
v 0.4 1 0.7
v 0.6 0 0.7
v 0.6 0.1 0.7
v 0.6 1.3 0.7
v 0.6 1.4 0.7
v 0.7 0.1 0.7
v 0.7 0.2 0.7
v 0.7 1.2 0.7
v 0.7 1.3 0.7
v 0.8 0.2 0.7
v 0.8 1.2 0.7
v -0.8 0.1 0.6
v -0.8 0.2 0.6
v -0.8 1.2 0.6
v -0.8 1.3 0.6
v -0.7 0 0.6
v -0.7 0.1 0.6
v -0.7 0.2 0.6
v -0.7 1.2 0.6
v -0.7 1.3 0.6
v -0.7 1.4 0.6
v -0.6 0 0.6
v -0.6 0.1 0.6
v -0.6 1.3 0.6
v -0.6 1.4 0.6
v -0.3 0.5 0.6
v -0.3 0.9 0.6
v -0.2 0.4 0.6
v -0.2 0.5 0.6
v -0.2 0.6 0.6
v -0.2 0.8 0.6
v -0.2 0.9 0.6
v -0.2 1 0.6
v -0.2 1.4 0.6
v -0.2 1.5 0.6
v -0.1 0.5 0.6
v -0.1 0.6 0.6
v -0.1 0.8 0.6
v -0.1 0.9 0.6
v -0.1 1.4 0.6
v -0.1 1.5 0.6
v 0.1 0.5 0.6
v 0.1 0.6 0.6
v 0.1 0.8 0.6
v 0.1 0.9 0.6
v 0.1 1.4 0.6
v 0.1 1.5 0.6
v 0.2 0.4 0.6
v 0.2 0.5 0.6
v 0.2 0.6 0.6
v 0.2 0.8 0.6
v 0.2 0.9 0.6
v 0.2 1 0.6
v 0.2 1.4 0.6
v 0.2 1.5 0.6
v 0.3 0.5 0.6
v 0.3 0.9 0.6
v 0.6 0 0.6
v 0.6 0.1 0.6
v 0.6 1.3 0.6
v 0.6 1.4 0.6
v 0.7 0 0.6
v 0.7 0.1 0.6
v 0.7 0.2 0.6
v 0.7 1.2 0.6
v 0.7 1.3 0.6
v 0.7 1.4 0.6
v 0.8 0.1 0.6
v 0.8 0.2 0.6
v 0.8 1.2 0.6
v 0.8 1.3 0.6
v -0.8 0 0.5
v -0.8 0.1 0.5
v -0.8 1.3 0.5
v -0.8 1.4 0.5
v -0.7 0 0.5
v -0.7 0.1 0.5
v -0.7 1.3 0.5
v -0.7 1.4 0.5
v 0.7 0 0.5
v 0.7 0.1 0.5
v 0.7 1.3 0.5
v 0.7 1.4 0.5
v 0.8 0 0.5
v 0.8 0.1 0.5
v 0.8 1.3 0.5
v 0.8 1.4 0.5
v -0.4 1.4 0.3
v -0.4 1.5 0.3
v -0.3 1.4 0.3
v -0.3 1.5 0.3
v 0.3 1.4 0.3
v 0.3 1.5 0.3
v 0.5 1.4 0.3
v 0.5 1.5 0.3
v -0.5 1.4 0.2
v -0.5 1.5 0.2
v -0.4 1.4 0.2
v -0.4 1.5 0.2
v -0.3 1.4 0.2
v -0.3 1.5 0.2
v -0.2 1.4 0.2
v -0.2 1.5 0.2
v 0.2 1.4 0.2
v 0.2 1.5 0.2
v 0.3 1.4 0.2
v 0.3 1.5 0.2
v 0.5 1.4 0.2
v 0.5 1.5 0.2
v 0.6 1.4 0.2
v 0.6 1.5 0.2
v -0.6 1.4 0.1
v -0.6 1.5 0.1
v -0.5 1.4 0.1
v -0.5 1.5 0.1
v -0.8 1.4 -0.5
v -0.8 1.5 -0.5
v -0.2 1.4 -0.5
v -0.2 1.5 -0.5
v 0 1.4 -0.5
v 0 1.5 -0.5
v 0.1 1.4 -0.5
v 0.1 1.5 -0.5
v 0.3 1.4 -0.5
v 0.3 1.5 -0.5
v 0.8 1.4 -0.5
v 0.8 1.5 -0.5
v -0.8 1.5 -0.6
v -0.8 1.8 -0.6
v 0 1.6 -0.6
v 0 1.7 -0.6
v 0.1 1.6 -0.6
v 0.1 1.7 -0.6
v 0.2 1.6 -0.6
v 0.2 1.7 -0.6
v 0.3 1.6 -0.6
v 0.3 1.7 -0.6
v 0.4 1.6 -0.6
v 0.4 1.7 -0.6
v 0.5 1.6 -0.6
v 0.5 1.7 -0.6
v 0.6 1.6 -0.6
v 0.6 1.7 -0.6
v 0.7 1.6 -0.6
v 0.7 1.7 -0.6
v 0.8 1.5 -0.6
v 0.8 1.8 -0.6
v -0.6 1.4 -0.1
v -0.6 1.5 -0.1
v -0.5 1.4 -0.1
v -0.5 1.5 -0.1
v 0.5 1.4 -0.1
v 0.5 1.5 -0.1
v 0.6 1.4 -0.1
v 0.6 1.5 -0.1
v 0.4 1.4 -0.2
v 0.4 1.5 -0.2
v 0.5 1.4 -0.2
v 0.5 1.5 -0.2
v -0.5 1.4 -0.3
v -0.5 1.5 -0.3
v -0.4 1.4 -0.3
v -0.4 1.5 -0.3
v -0.4 1.4 -0.4
v -0.4 1.5 -0.4
v -0.2 1.4 -0.4
v -0.2 1.5 -0.4
v 0 1.4 -0.4
v 0 1.5 -0.4
v 0.1 1.4 -0.4
v 0.1 1.5 -0.4
v 0.3 1.4 -0.4
v 0.3 1.5 -0.4
v 0.4 1.4 -0.4
v 0.4 1.5 -0.4
v -0.8 0 -0.8
v -0.8 1.8 -0.8
v 0.8 0 -0.8
v 0.8 1.8 -0.8
v -0.6 0 0.7
v 0.6 0 0.7
v -0.7 0 0.6
v -0.6 0 0.6
v 0.6 0 0.6
v 0.7 0 0.6
v -0.8 0 0.5
v -0.7 0 0.5
v 0.7 0 0.5
v 0.8 0 0.5
v -0.8 0 -0.8
v 0.8 0 -0.8
v -0.7 0.1 0.7
v -0.6 0.1 0.7
v 0.6 0.1 0.7
v 0.7 0.1 0.7
v -0.8 0.1 0.6
v -0.7 0.1 0.6
v -0.6 0.1 0.6
v 0.6 0.1 0.6
v 0.7 0.1 0.6
v 0.8 0.1 0.6
v -0.8 0.1 0.5
v -0.7 0.1 0.5
v 0.7 0.1 0.5
v 0.8 0.1 0.5
v -0.8 0.2 0.7
v -0.7 0.2 0.7
v 0.7 0.2 0.7
v 0.8 0.2 0.7
v -0.8 0.2 0.6
v -0.7 0.2 0.6
v 0.7 0.2 0.6
v 0.8 0.2 0.6
v -0.3 0.3 0.8
v 0.3 0.3 0.8
v -0.3 0.3 0.7
v 0.3 0.3 0.7
v -0.4 0.4 0.8
v -0.3 0.4 0.8
v 0.3 0.4 0.8
v 0.4 0.4 0.8
v -0.4 0.4 0.7
v -0.3 0.4 0.7
v 0.3 0.4 0.7
v 0.4 0.4 0.7
v -0.1 0.5 0.7
v 0.1 0.5 0.7
v -0.1 0.5 0.6
v 0.1 0.5 0.6
v -0.2 0.6 0.7
v -0.1 0.6 0.7
v 0.1 0.6 0.7
v 0.2 0.6 0.7
v -0.2 0.6 0.6
v -0.1 0.6 0.6
v 0.1 0.6 0.6
v 0.2 0.6 0.6
v -0.3 0.9 0.8
v -0.2 0.9 0.8
v 0.2 0.9 0.8
v 0.3 0.9 0.8
v -0.3 0.9 0.6
v -0.2 0.9 0.6
v 0.2 0.9 0.6
v 0.3 0.9 0.6
v -0.2 1 0.8
v 0.2 1 0.8
v -0.2 1 0.6
v 0.2 1 0.6
v -0.2 0.4 0.8
v 0.2 0.4 0.8
v -0.2 0.4 0.6
v 0.2 0.4 0.6
v -0.3 0.5 0.8
v -0.2 0.5 0.8
v 0.2 0.5 0.8
v 0.3 0.5 0.8
v -0.3 0.5 0.6
v -0.2 0.5 0.6
v 0.2 0.5 0.6
v 0.3 0.5 0.6
v -0.2 0.8 0.7
v -0.1 0.8 0.7
v 0.1 0.8 0.7
v 0.2 0.8 0.7
v -0.2 0.8 0.6
v -0.1 0.8 0.6
v 0.1 0.8 0.6
v 0.2 0.8 0.6
v -0.1 0.9 0.7
v 0.1 0.9 0.7
v -0.1 0.9 0.6
v 0.1 0.9 0.6
v -0.4 1 0.8
v -0.3 1 0.8
v 0.3 1 0.8
v 0.4 1 0.8
v -0.4 1 0.7
v -0.3 1 0.7
v 0.3 1 0.7
v 0.4 1 0.7
v -0.3 1.1 0.8
v 0.3 1.1 0.8
v -0.3 1.1 0.7
v 0.3 1.1 0.7
v -0.8 1.2 0.7
v -0.7 1.2 0.7
v 0.7 1.2 0.7
v 0.8 1.2 0.7
v -0.8 1.2 0.6
v -0.7 1.2 0.6
v 0.7 1.2 0.6
v 0.8 1.2 0.6
v -0.7 1.3 0.7
v -0.6 1.3 0.7
v 0.6 1.3 0.7
v 0.7 1.3 0.7
v -0.8 1.3 0.6
v -0.7 1.3 0.6
v -0.6 1.3 0.6
v 0.6 1.3 0.6
v 0.7 1.3 0.6
v 0.8 1.3 0.6
v -0.8 1.3 0.5
v -0.7 1.3 0.5
v 0.7 1.3 0.5
v 0.8 1.3 0.5
v -0.6 1.4 0.7
v 0.6 1.4 0.7
v -0.7 1.4 0.6
v -0.6 1.4 0.6
v -0.2 1.4 0.6
v -0.1 1.4 0.6
v 0.1 1.4 0.6
v 0.2 1.4 0.6
v 0.6 1.4 0.6
v 0.7 1.4 0.6
v -0.8 1.4 0.5
v -0.7 1.4 0.5
v 0.7 1.4 0.5
v 0.8 1.4 0.5
v -0.4 1.4 0.3
v -0.3 1.4 0.3
v 0.2 1.4 0.3
v 0.3 1.4 0.3
v 0.5 1.4 0.3
v -0.5 1.4 0.2
v -0.4 1.4 0.2
v -0.3 1.4 0.2
v -0.2 1.4 0.2
v 0.2 1.4 0.2
v 0.3 1.4 0.2
v 0.5 1.4 0.2
v 0.6 1.4 0.2
v -0.6 1.4 0.1
v -0.5 1.4 0.1
v 0.6 1.4 0.1
v -0.6 1.4 -0.1
v -0.5 1.4 -0.1
v 0.5 1.4 -0.1
v 0.6 1.4 -0.1
v -0.5 1.4 -0.2
v 0.4 1.4 -0.2
v 0.5 1.4 -0.2
v -0.5 1.4 -0.3
v -0.4 1.4 -0.3
v -0.4 1.4 -0.4
v -0.2 1.4 -0.4
v 0 1.4 -0.4
v 0.1 1.4 -0.4
v 0.3 1.4 -0.4
v 0.4 1.4 -0.4
v -0.8 1.4 -0.5
v -0.2 1.4 -0.5
v 0 1.4 -0.5
v 0.1 1.4 -0.5
v 0.3 1.4 -0.5
v 0.8 1.4 -0.5
v -0.2 1.5 0.6
v -0.1 1.5 0.6
v 0.1 1.5 0.6
v 0.2 1.5 0.6
v -0.4 1.5 0.3
v -0.3 1.5 0.3
v -0.1 1.5 0.3
v 0.1 1.5 0.3
v 0.2 1.5 0.3
v 0.3 1.5 0.3
v 0.5 1.5 0.3
v -0.5 1.5 0.2
v -0.4 1.5 0.2
v -0.3 1.5 0.2
v -0.2 1.5 0.2
v -0.1 1.5 0.2
v 0.1 1.5 0.2
v 0.2 1.5 0.2
v 0.3 1.5 0.2
v 0.5 1.5 0.2
v 0.6 1.5 0.2
v -0.6 1.5 0.1
v -0.5 1.5 0.1
v -0.4 1.5 0.1
v -0.3 1.5 0.1
v -0.2 1.5 0.1
v 0.1 1.5 0.1
v 0.2 1.5 0.1
v 0.5 1.5 0.1
v 0.6 1.5 0.1
v -0.2 1.5 0
v -0.1 1.5 0
v 0 1.5 0
v -0.6 1.5 -0.1
v -0.5 1.5 -0.1
v -0.2 1.5 -0.1
v -0.1 1.5 -0.1
v 0 1.5 -0.1
v 0.1 1.5 -0.1
v 0.2 1.5 -0.1
v 0.3 1.5 -0.1
v 0.4 1.5 -0.1
v 0.5 1.5 -0.1
v 0.6 1.5 -0.1
v -0.5 1.5 -0.2
v -0.4 1.5 -0.2
v -0.2 1.5 -0.2
v -0.1 1.5 -0.2
v 0 1.5 -0.2
v 0.1 1.5 -0.2
v 0.4 1.5 -0.2
v 0.5 1.5 -0.2
v -0.5 1.5 -0.3
v -0.4 1.5 -0.3
v -0.2 1.5 -0.3
v -0.4 1.5 -0.4
v -0.2 1.5 -0.4
v -0.1 1.5 -0.4
v 0 1.5 -0.4
v 0.1 1.5 -0.4
v 0.3 1.5 -0.4
v 0.4 1.5 -0.4
v -0.8 1.5 -0.5
v -0.2 1.5 -0.5
v 0 1.5 -0.5
v 0.1 1.5 -0.5
v 0.3 1.5 -0.5
v 0.8 1.5 -0.5
v -0.8 1.5 -0.6
v 0.8 1.5 -0.6
v -0.8 1.8 -0.6
v 0.8 1.8 -0.6
v -0.8 1.8 -0.8
v 0.8 1.8 -0.8

# faces
f 4/2/1 2/2/1 1/2/1
f 6/2/1 4/2/1 3/2/1
f 7/2/1 6/2/1 5/2/1
f 8/2/1 4/2/1 6/2/1
f 8/2/1 6/2/1 7/2/1
f 9/2/1 4/2/1 8/2/1
f 10/2/1 2/2/1 4/2/1
f 10/2/1 4/2/1 9/2/1
f 11/2/1 2/2/1 10/2/1
f 12/2/1 2/2/1 11/2/1
f 13/2/1 2/2/1 12/2/1
f 14/2/1 2/2/1 13/2/1
f 15/2/1 2/2/1 14/2/1
f 16/2/1 2/2/1 15/2/1
f 20/2/1 18/2/1 17/2/1
f 21/2/1 18/2/1 20/2/1
f 22/2/1 20/2/1 19/2/1
f 23/2/1 20/2/1 22/2/1
f 26/2/1 25/2/1 24/2/1
f 27/2/1 25/2/1 26/2/1
f 29/2/1 28/2/1 27/2/1
f 30/2/1 28/2/1 29/2/1
f 33/2/1 32/2/1 31/2/1
f 34/2/1 32/2/1 33/2/1
f 37/2/1 36/2/1 35/2/1
f 38/2/1 36/2/1 37/2/1
f 41/7/1 40/7/1 39/7/1
f 42/7/1 40/7/1 41/7/1
f 48/5/1 44/5/1 43/5/1
f 49/5/1 44/5/1 48/5/1
f 50/6/1 46/6/1 45/6/1
f 51/7/1 47/7/1 46/7/1
f 51/6/1 46/6/1 50/6/1
f 52/7/1 47/7/1 51/7/1
f 55/1/1 54/1/1 53/1/1
f 56/1/1 54/1/1 55/1/1
f 61/5/1 58/5/1 57/5/1
f 62/5/1 58/5/1 61/5/1
f 63/7/1 60/7/1 59/7/1
f 64/7/1 60/7/1 63/7/1
f 67/1/1 66/1/1 65/1/1
f 68/1/1 66/1/1 67/1/1
f 71/1/1 70/1/1 69/1/1
f 72/1/1 70/1/1 71/1/1
f 75/9/1 74/9/1 73/9/1
f 76/9/1 74/9/1 75/9/1
f 81/13/1 78/13/1 77/13/1
f 82/13/1 78/13/1 81/13/1
f 83/7/1 80/7/1 79/7/1
f 84/7/1 80/7/1 83/7/1
f 87/9/1 86/9/1 85/9/1
f 88/9/1 86/9/1 87/9/1
f 91/9/1 90/9/1 89/9/1
f 92/9/1 90/9/1 91/9/1
f 95/7/1 94/7/1 93/7/1
f 96/7/1 94/7/1 95/7/1
f 99/1/1 98/1/1 97/1/1
f 100/1/1 98/1/1 99/1/1
f 103/1/1 102/1/1 101/1/1
f 104/1/1 102/1/1 103/1/1
f 107/1/1 106/1/1 105/1/1
f 108/1/1 106/1/1 107/1/1
f 111/5/1 110/5/1 109/5/1
f 112/5/1 110/5/1 111/5/1
f 113/1/2 114/1/2 115/1/2
f 115/1/2 114/1/2 116/1/2
f 117/5/2 118/5/2 119/5/2
f 119/5/2 118/5/2 120/5/2
f 121/1/2 122/1/2 123/1/2
f 123/1/2 122/1/2 124/1/2
f 125/1/2 126/1/2 127/1/2
f 127/1/2 126/1/2 128/1/2
f 129/7/2 130/7/2 131/7/2
f 131/7/2 130/7/2 132/7/2
f 133/9/2 134/9/2 135/9/2
f 135/9/2 134/9/2 136/9/2
f 137/9/2 138/9/2 139/9/2
f 139/9/2 138/9/2 140/9/2
f 141/9/2 142/9/2 143/9/2
f 143/9/2 142/9/2 144/9/2
f 145/11/2 146/11/2 148/11/2
f 146/5/2 147/5/2 149/5/2
f 148/11/2 146/11/2 149/11/2
f 149/5/2 147/5/2 150/5/2
f 151/1/2 152/1/2 153/1/2
f 153/1/2 152/1/2 154/1/2
f 155/1/2 156/1/2 157/1/2
f 157/1/2 156/1/2 158/1/2
f 159/7/2 160/7/2 161/7/2
f 161/7/2 160/7/2 162/7/2
f 163/1/2 164/1/2 165/1/2
f 165/1/2 164/1/2 166/1/2
f 167/6/2 168/6/2 169/6/2
f 169/6/2 168/6/2 170/6/2
f 171/5/2 172/5/2 175/5/2
f 175/5/2 172/5/2 176/5/2
f 173/7/2 174/7/2 177/7/2
f 177/7/2 174/7/2 178/7/2
f 179/2/2 180/2/2 181/2/2
f 181/2/2 180/2/2 182/2/2
f 183/2/2 184/2/2 185/2/2
f 185/2/2 184/2/2 186/2/2
f 187/5/2 188/5/2 190/5/2
f 188/7/2 189/7/2 191/7/2
f 190/5/2 188/5/2 191/5/2
f 191/7/2 189/7/2 192/7/2
f 193/2/2 194/2/2 196/2/2
f 196/2/2 194/2/2 197/2/2
f 195/2/2 196/2/2 198/2/2
f 198/2/2 196/2/2 199/2/2
f 200/2/2 201/2/2 202/2/2
f 202/2/2 201/2/2 203/2/2
f 203/2/2 204/2/2 205/2/2
f 205/2/2 204/2/2 206/2/2
f 207/2/2 208/2/2 210/2/2
f 209/2/2 210/2/2 212/2/2
f 211/2/2 212/2/2 213/2/2
f 212/2/2 210/2/2 214/2/2
f 213/2/2 212/2/2 214/2/2
f 214/2/2 210/2/2 215/2/2
f 210/2/2 208/2/2 216/2/2
f 215/2/2 210/2/2 216/2/2
f 216/2/2 208/2/2 217/2/2
f 217/2/2 208/2/2 218/2/2
f 218/2/2 208/2/2 219/2/2
f 219/2/2 208/2/2 220/2/2
f 220/2/2 208/2/2 221/2/2
f 221/2/2 208/2/2 222/2/2
f 226/1/3 224/1/3 223/1/3
f 227/1/3 224/1/3 226/1/3
f 228/1/3 224/1/3 227/1/3
f 229/1/3 224/1/3 228/1/3
f 231/1/3 226/1/3 225/1/3
f 231/1/3 227/1/3 226/1/3
f 232/1/3 227/1/3 231/1/3
f 233/1/3 230/1/3 229/1/3
f 233/1/3 229/1/3 228/1/3
f 234/1/3 230/1/3 233/1/3
f 235/1/3 231/1/3 225/1/3
f 238/1/3 230/1/3 234/1/3
f 239/1/3 236/1/3 235/1/3
f 239/1/3 235/1/3 225/1/3
f 240/1/3 236/1/3 239/1/3
f 241/1/3 236/1/3 240/1/3
f 242/1/3 238/1/3 237/1/3
f 243/1/3 230/1/3 238/1/3
f 243/1/3 238/1/3 242/1/3
f 244/1/3 230/1/3 243/1/3
f 245/1/3 241/1/3 240/1/3
f 245/1/3 242/1/3 241/1/3
f 245/1/3 243/1/3 242/1/3
f 246/1/3 243/1/3 245/1/3
f 250/2/3 248/2/3 247/2/3
f 251/2/3 248/2/3 250/2/3
f 254/2/3 250/2/3 249/2/3
f 254/2/3 252/2/3 251/2/3
f 254/2/3 251/2/3 250/2/3
f 255/2/3 252/2/3 254/2/3
f 257/2/3 254/2/3 253/2/3
f 257/2/3 256/2/3 255/2/3
f 257/2/3 255/2/3 254/2/3
f 258/2/3 256/2/3 257/2/3
f 259/2/3 257/2/3 253/2/3
f 260/2/3 257/2/3 259/2/3
f 261/2/3 256/2/3 258/2/3
f 262/2/3 256/2/3 261/2/3
f 266/9/3 264/9/3 263/9/3
f 267/9/3 264/9/3 266/9/3
f 269/9/3 266/9/3 265/9/3
f 269/9/3 268/9/3 267/9/3
f 269/9/3 267/9/3 266/9/3
f 270/9/3 268/9/3 269/9/3
f 271/9/3 268/9/3 270/9/3
f 272/9/3 268/9/3 271/9/3
f 273/9/3 271/9/3 270/9/3
f 274/9/3 271/9/3 273/9/3
f 275/2/3 259/2/3 253/2/3
f 278/2/3 256/2/3 262/2/3
f 279/2/3 276/2/3 275/2/3
f 280/2/3 278/2/3 277/2/3
f 281/2/3 279/2/3 275/2/3
f 281/2/3 280/2/3 279/2/3
f 281/2/3 275/2/3 253/2/3
f 282/2/3 280/2/3 281/2/3
f 283/2/3 278/2/3 280/2/3
f 283/2/3 280/2/3 282/2/3
f 283/2/3 256/2/3 278/2/3
f 284/2/3 256/2/3 283/2/3
f 285/2/3 283/2/3 282/2/3
f 286/2/3 283/2/3 285/2/3
f 287/2/3 283/2/3 286/2/3
f 288/2/3 283/2/3 287/2/3
f 289/2/3 287/2/3 286/2/3
f 290/2/3 287/2/3 289/2/3
f 296/2/3 292/2/3 291/2/3
f 297/2/3 292/2/3 296/2/3
f 298/2/3 294/2/3 293/2/3
f 299/2/3 294/2/3 298/2/3
f 301/2/3 296/2/3 295/2/3
f 302/2/3 296/2/3 301/2/3
f 303/2/3 300/2/3 299/2/3
f 304/2/3 300/2/3 303/2/3
f 308/8/3 306/8/3 305/8/3
f 309/8/3 306/8/3 308/8/3
f 310/8/3 306/8/3 309/8/3
f 311/8/3 306/8/3 310/8/3
f 315/8/3 308/8/3 307/8/3
f 315/8/3 309/8/3 308/8/3
f 316/8/3 309/8/3 315/8/3
f 317/8/3 312/8/3 311/8/3
f 317/8/3 311/8/3 310/8/3
f 318/8/3 312/8/3 317/8/3
f 319/13/3 314/13/3 313/13/3
f 320/13/3 314/13/3 319/13/3
f 321/8/3 315/8/3 307/8/3
f 324/8/3 312/8/3 318/8/3
f 325/12/3 320/12/3 319/12/3
f 326/12/3 320/12/3 325/12/3
f 327/8/3 322/8/3 321/8/3
f 327/8/3 321/8/3 307/8/3
f 328/8/3 322/8/3 327/8/3
f 329/8/3 322/8/3 328/8/3
f 330/8/3 324/8/3 323/8/3
f 331/8/3 312/8/3 324/8/3
f 331/8/3 324/8/3 330/8/3
f 332/8/3 312/8/3 331/8/3
f 333/11/3 326/11/3 325/11/3
f 334/11/3 326/11/3 333/11/3
f 335/8/3 329/8/3 328/8/3
f 335/8/3 330/8/3 329/8/3
f 335/8/3 331/8/3 330/8/3
f 336/8/3 331/8/3 335/8/3
f 341/2/3 338/2/3 337/2/3
f 342/2/3 338/2/3 341/2/3
f 345/2/3 340/2/3 339/2/3
f 346/2/3 340/2/3 345/2/3
f 347/2/3 343/2/3 342/2/3
f 348/2/3 343/2/3 347/2/3
f 349/2/3 345/2/3 344/2/3
f 350/2/3 345/2/3 349/2/3
f 355/2/3 352/2/3 351/2/3
f 356/2/3 352/2/3 355/2/3
f 357/2/3 354/2/3 353/2/3
f 358/2/3 354/2/3 357/2/3
f 363/2/3 360/2/3 359/2/3
f 364/2/3 360/2/3 363/2/3
f 365/2/3 362/2/3 361/2/3
f 366/2/3 362/2/3 365/2/3
f 369/5/3 368/5/3 367/5/3
f 370/5/3 368/5/3 369/5/3
f 373/5/3 372/5/3 371/5/3
f 374/5/3 372/5/3 373/5/3
f 377/5/3 376/5/3 375/5/3
f 378/5/3 376/5/3 377/5/3
f 381/5/3 380/5/3 379/5/3
f 382/5/3 380/5/3 381/5/3
f 385/5/3 384/5/3 383/5/3
f 386/5/3 384/5/3 385/5/3
f 389/5/3 388/5/3 387/5/3
f 390/5/3 388/5/3 389/5/3
f 393/7/3 392/7/3 391/7/3
f 394/7/3 392/7/3 393/7/3
f 397/2/3 396/2/3 395/2/3
f 398/2/3 396/2/3 397/2/3
f 401/2/3 400/2/3 399/2/3
f 402/2/3 400/2/3 401/2/3
f 405/2/3 404/2/3 403/2/3
f 406/2/3 404/2/3 405/2/3
f 409/2/3 408/2/3 407/2/3
f 410/2/3 408/2/3 409/2/3
f 411/2/3 409/2/3 407/2/3
f 411/5/3 410/5/3 409/5/3
f 412/2/3 408/2/3 410/2/3
f 412/5/3 410/5/3 411/5/3
f 413/2/3 411/2/3 407/2/3
f 413/2/3 412/2/3 411/2/3
f 414/2/3 408/2/3 412/2/3
f 414/2/3 412/2/3 413/2/3
f 415/2/3 413/2/3 407/2/3
f 415/4/3 414/4/3 413/4/3
f 416/2/3 408/2/3 414/2/3
f 416/4/3 414/4/3 415/4/3
f 417/2/3 415/2/3 407/2/3
f 417/2/3 416/2/3 415/2/3
f 418/2/3 408/2/3 416/2/3
f 418/2/3 416/2/3 417/2/3
f 419/2/3 417/2/3 407/2/3
f 419/8/3 418/8/3 417/8/3
f 420/2/3 408/2/3 418/2/3
f 420/8/3 418/8/3 419/8/3
f 421/2/3 419/2/3 407/2/3
f 421/2/3 420/2/3 419/2/3
f 422/2/3 408/2/3 420/2/3
f 422/2/3 420/2/3 421/2/3
f 423/2/3 421/2/3 407/2/3
f 423/3/3 422/3/3 421/3/3
f 424/2/3 408/2/3 422/2/3
f 424/3/3 422/3/3 423/3/3
f 425/2/3 423/2/3 407/2/3
f 425/2/3 424/2/3 423/2/3
f 426/2/3 408/2/3 424/2/3
f 426/2/3 424/2/3 425/2/3
f 427/7/4 428/7/4 429/7/4
f 429/7/4 428/7/4 430/7/4
f 431/7/4 432/7/4 433/7/4
f 433/7/4 432/7/4 434/7/4
f 435/7/4 436/7/4 437/7/4
f 437/7/4 436/7/4 438/7/4
f 439/7/4 440/7/4 441/7/4
f 441/7/4 440/7/4 442/7/4
f 443/7/4 444/7/4 445/7/4
f 445/7/4 444/7/4 446/7/4
f 447/6/4 448/6/4 449/6/4
f 449/6/4 448/6/4 450/6/4
f 451/6/4 452/6/4 453/6/4
f 453/6/4 452/6/4 454/6/4
f 455/2/4 456/2/4 457/2/4
f 457/2/4 456/2/4 458/2/4
f 462/2/5 460/2/5 459/2/5
f 463/2/5 460/2/5 462/2/5
f 466/2/5 462/2/5 461/2/5
f 466/2/5 464/2/5 463/2/5
f 466/2/5 463/2/5 462/2/5
f 467/2/5 464/2/5 466/2/5
f 469/2/5 466/2/5 465/2/5
f 469/2/5 468/2/5 467/2/5
f 469/2/5 467/2/5 466/2/5
f 470/2/5 468/2/5 469/2/5
f 476/2/5 472/2/5 471/2/5
f 477/2/5 472/2/5 476/2/5
f 478/2/5 474/2/5 473/2/5
f 479/2/5 474/2/5 478/2/5
f 481/2/5 476/2/5 475/2/5
f 482/2/5 476/2/5 481/2/5
f 483/2/5 480/2/5 479/2/5
f 484/2/5 480/2/5 483/2/5
f 489/2/5 486/2/5 485/2/5
f 490/2/5 486/2/5 489/2/5
f 491/2/5 488/2/5 487/2/5
f 492/2/5 488/2/5 491/2/5
f 495/1/5 494/1/5 493/1/5
f 496/1/5 494/1/5 495/1/5
f 501/1/5 498/1/5 497/1/5
f 502/1/5 498/1/5 501/1/5
f 503/1/5 500/1/5 499/1/5
f 504/1/5 500/1/5 503/1/5
f 507/9/5 506/9/5 505/9/5
f 508/9/5 506/9/5 507/9/5
f 513/9/5 510/9/5 509/9/5
f 514/9/5 510/9/5 513/9/5
f 515/9/5 512/9/5 511/9/5
f 516/9/5 512/9/5 515/9/5
f 521/1/5 518/1/5 517/1/5
f 522/1/5 518/1/5 521/1/5
f 523/1/5 520/1/5 519/1/5
f 524/1/5 520/1/5 523/1/5
f 527/1/5 526/1/5 525/1/5
f 528/1/5 526/1/5 527/1/5
f 529/1/6 530/1/6 531/1/6
f 531/1/6 530/1/6 532/1/6
f 533/1/6 534/1/6 537/1/6
f 537/1/6 534/1/6 538/1/6
f 535/1/6 536/1/6 539/1/6
f 539/1/6 536/1/6 540/1/6
f 541/9/6 542/9/6 545/9/6
f 545/9/6 542/9/6 546/9/6
f 543/9/6 544/9/6 547/9/6
f 547/9/6 544/9/6 548/9/6
f 549/9/6 550/9/6 551/9/6
f 551/9/6 550/9/6 552/9/6
f 553/1/6 554/1/6 557/1/6
f 557/1/6 554/1/6 558/1/6
f 555/1/6 556/1/6 559/1/6
f 559/1/6 556/1/6 560/1/6
f 561/1/6 562/1/6 563/1/6
f 563/1/6 562/1/6 564/1/6
f 565/2/6 566/2/6 569/2/6
f 569/2/6 566/2/6 570/2/6
f 567/2/6 568/2/6 571/2/6
f 571/2/6 568/2/6 572/2/6
f 573/2/6 574/2/6 578/2/6
f 578/2/6 574/2/6 579/2/6
f 575/2/6 576/2/6 580/2/6
f 580/2/6 576/2/6 581/2/6
f 577/2/6 578/2/6 583/2/6
f 583/2/6 578/2/6 584/2/6
f 581/2/6 582/2/6 585/2/6
f 585/2/6 582/2/6 586/2/6
f 587/2/6 588/2/6 590/2/6
f 590/2/6 588/2/6 591/2/6
f 591/2/6 588/2/6 592/2/6
f 592/2/6 588/2/6 593/2/6
f 593/2/6 588/2/6 594/2/6
f 594/2/6 588/2/6 595/2/6
f 589/2/6 590/2/6 598/2/6
f 590/2/6 591/2/6 598/2/6
f 594/2/6 595/2/6 599/2/6
f 595/2/6 596/2/6 599/2/6
f 597/2/6 598/2/6 601/2/6
f 598/2/6 591/2/6 601/2/6
f 601/2/6 591/2/6 602/2/6
f 599/2/6 600/2/6 603/2/6
f 594/2/6 599/2/6 603/2/6
f 603/2/6 600/2/6 604/2/6
f 604/2/6 600/2/6 605/2/6
f 597/2/6 601/2/6 606/2/6
f 606/2/6 601/2/6 607/2/6
f 602/2/6 591/2/6 608/2/6
f 608/2/6 591/2/6 609/2/6
f 603/2/6 604/2/6 610/2/6
f 610/2/6 604/2/6 611/2/6
f 605/2/6 600/2/6 612/2/6
f 612/2/6 600/2/6 613/2/6
f 597/2/6 606/2/6 614/2/6
f 614/2/6 606/2/6 615/2/6
f 613/2/6 600/2/6 616/2/6
f 597/2/6 614/2/6 617/2/6
f 616/2/6 600/2/6 620/2/6
f 617/2/6 618/2/6 621/2/6
f 619/2/6 620/2/6 623/2/6
f 617/2/6 621/2/6 624/2/6
f 624/2/6 625/2/6 626/2/6
f 622/2/6 623/2/6 631/2/6
f 597/2/6 617/2/6 632/2/6
f 617/2/6 624/2/6 632/2/6
f 624/2/6 626/2/6 632/2/6
f 626/2/6 627/2/6 632/2/6
f 632/2/6 627/2/6 633/2/6
f 628/2/6 629/2/6 634/2/6
f 634/2/6 629/2/6 635/2/6
f 630/2/6 631/2/6 636/2/6
f 620/2/6 600/2/6 637/2/6
f 636/2/6 631/2/6 637/2/6
f 623/2/6 620/2/6 637/2/6
f 631/2/6 623/2/6 637/2/6
f 638/13/6 639/13/6 644/13/6
f 639/12/6 640/12/6 644/12/6
f 640/11/6 641/11/6 645/11/6
f 644/12/6 640/12/6 645/12/6
f 645/11/6 641/11/6 646/11/6
f 642/5/6 643/5/6 650/5/6
f 650/5/6 643/5/6 651/5/6
f 638/13/6 644/13/6 652/13/6
f 644/5/6 645/5/6 653/5/6
f 645/5/6 646/5/6 653/5/6
f 652/13/6 644/13/6 653/13/6
f 653/5/6 646/5/6 654/5/6
f 654/5/6 646/5/6 655/5/6
f 647/5/6 648/5/6 656/5/6
f 656/5/6 648/5/6 657/5/6
f 649/5/6 650/5/6 660/5/6
f 650/6/6 651/6/6 661/6/6
f 660/5/6 650/5/6 661/5/6
f 651/5/6 652/5/6 662/5/6
f 661/6/6 651/6/6 662/6/6
f 652/7/6 653/7/6 663/7/6
f 662/5/6 652/5/6 663/5/6
f 654/5/6 655/5/6 664/5/6
f 653/6/6 654/6/6 664/6/6
f 655/5/6 656/5/6 664/5/6
f 664/5/6 656/5/6 665/5/6
f 657/5/6 658/5/6 666/5/6
f 656/6/6 657/6/6 666/6/6
f 666/5/6 658/5/6 667/5/6
f 663/7/6 653/7/6 668/7/6
f 660/6/6 661/6/6 668/6/6
f 661/6/6 662/6/6 668/6/6
f 662/6/6 663/6/6 668/6/6
f 653/6/6 664/6/6 669/6/6
f 668/7/6 653/7/6 669/7/6
f 664/6/6 665/6/6 669/6/6
f 669/6/6 665/6/6 670/6/6
f 659/7/6 660/7/6 671/7/6
f 660/6/6 668/6/6 672/6/6
f 671/7/6 660/7/6 672/7/6
f 668/6/6 669/6/6 672/6/6
f 672/6/6 669/6/6 673/6/6
f 669/7/6 670/7/6 674/7/6
f 673/6/6 669/6/6 674/6/6
f 670/6/6 665/6/6 675/6/6
f 674/7/6 670/7/6 675/7/6
f 675/6/6 665/6/6 676/6/6
f 665/5/6 656/5/6 677/5/6
f 676/6/6 665/6/6 677/6/6
f 656/6/6 666/6/6 678/6/6
f 677/5/6 656/5/6 678/5/6
f 678/6/6 666/6/6 679/6/6
f 666/7/6 667/7/6 680/7/6
f 679/6/6 666/6/6 680/6/6
f 680/7/6 667/7/6 681/7/6
f 672/6/6 673/6/6 682/6/6
f 682/6/6 673/6/6 683/6/6
f 673/5/6 674/5/6 684/5/6
f 683/6/6 673/6/6 684/6/6
f 675/7/6 676/7/6 685/7/6
f 684/5/6 674/5/6 685/5/6
f 674/7/6 675/7/6 685/7/6
f 685/7/6 676/7/6 686/7/6
f 678/6/6 679/6/6 687/6/6
f 686/7/6 676/7/6 687/7/6
f 676/6/6 677/6/6 687/6/6
f 677/6/6 678/6/6 687/6/6
f 679/7/6 680/7/6 688/7/6
f 687/6/6 679/6/6 688/6/6
f 688/7/6 680/7/6 689/7/6
f 682/7/6 683/7/6 690/7/6
f 683/6/6 684/6/6 691/6/6
f 690/7/6 683/7/6 691/7/6
f 684/6/6 685/6/6 691/6/6
f 691/6/6 685/6/6 692/6/6
f 691/7/6 692/7/6 693/7/6
f 692/6/6 685/6/6 694/6/6
f 693/7/6 692/7/6 694/7/6
f 685/5/6 686/5/6 695/5/6
f 694/6/6 685/6/6 695/6/6
f 687/6/6 688/6/6 696/6/6
f 695/5/6 686/5/6 696/5/6
f 686/6/6 687/6/6 696/6/6
f 696/6/6 688/6/6 697/6/6
f 697/6/6 688/6/6 698/6/6
f 698/6/6 688/6/6 699/6/6
f 694/7/6 695/7/6 701/7/6
f 695/7/6 696/7/6 701/7/6
f 701/7/6 696/7/6 702/7/6
f 697/7/6 698/7/6 703/7/6
f 703/7/6 698/7/6 704/7/6
f 703/2/6 704/2/6 706/2/6
f 704/2/6 705/2/6 706/2/6
f 702/2/6 703/2/6 706/2/6
f 701/2/6 702/2/6 706/2/6
f 700/2/6 701/2/6 706/2/6
f 706/2/6 705/2/6 707/2/6
f 708/2/6 709/2/6 710/2/6
f 710/2/6 709/2/6 711/2/6
