# MagicaVoxel @ Ephtracy

# group
o 

# material
mtllib Stairs.mtl
usemtl palette

# normals
vn -1 0 0
vn 1 0 0
vn 0 0 1
vn 0 0 -1
vn 0 -1 0
vn 0 1 0

# texcoords
vt 0.126953 0.5
vt 0.134766 0.5

# verts
v -0.1 0 0.9
v -0.1 0 0.6
v -0.1 0 -0.6
v -0.1 0 -0.9
v -0.1 6.4 0.9
v -0.1 6.4 0.6
v -0.1 6.4 -0.6
v -0.1 6.4 -0.9
v 0 0.2 0.6
v 0 0.2 -0.6
v 0 0.4 0.6
v 0 0.4 -0.6
v 0 0.8 0.6
v 0 0.8 -0.6
v 0 1 0.6
v 0 1 -0.6
v 0 1.4 0.6
v 0 1.4 -0.6
v 0 1.6 0.6
v 0 1.6 -0.6
v 0 2 0.6
v 0 2 -0.6
v 0 2.2 0.6
v 0 2.2 -0.6
v 0 2.6 0.6
v 0 2.6 -0.6
v 0 2.8 0.6
v 0 2.8 -0.6
v 0 3.2 0.6
v 0 3.2 -0.6
v 0 3.4 0.6
v 0 3.4 -0.6
v 0 3.8 0.6
v 0 3.8 -0.6
v 0 4 0.6
v 0 4 -0.6
v 0 4.4 0.6
v 0 4.4 -0.6
v 0 4.6 0.6
v 0 4.6 -0.6
v 0 5 0.6
v 0 5 -0.6
v 0 5.2 0.6
v 0 5.2 -0.6
v 0 5.6 0.6
v 0 5.6 -0.6
v 0 5.8 0.6
v 0 5.8 -0.6
v 0 6.2 0.6
v 0 6.2 -0.6
v 0 6.4 0.6
v 0 6.4 -0.6
v 0.1 0 0.9
v 0.1 0 0.6
v 0.1 0 -0.6
v 0.1 0 -0.9
v 0.1 0.2 0.6
v 0.1 0.2 -0.6
v 0.1 0.4 0.6
v 0.1 0.4 -0.6
v 0.1 0.8 0.6
v 0.1 0.8 -0.6
v 0.1 1 0.6
v 0.1 1 -0.6
v 0.1 1.4 0.6
v 0.1 1.4 -0.6
v 0.1 1.6 0.6
v 0.1 1.6 -0.6
v 0.1 2 0.6
v 0.1 2 -0.6
v 0.1 2.2 0.6
v 0.1 2.2 -0.6
v 0.1 2.6 0.6
v 0.1 2.6 -0.6
v 0.1 2.8 0.6
v 0.1 2.8 -0.6
v 0.1 3.2 0.6
v 0.1 3.2 -0.6
v 0.1 3.4 0.6
v 0.1 3.4 -0.6
v 0.1 3.8 0.6
v 0.1 3.8 -0.6
v 0.1 4 0.6
v 0.1 4 -0.6
v 0.1 4.4 0.6
v 0.1 4.4 -0.6
v 0.1 4.6 0.6
v 0.1 4.6 -0.6
v 0.1 5 0.6
v 0.1 5 -0.6
v 0.1 5.2 0.6
v 0.1 5.2 -0.6
v 0.1 5.6 0.6
v 0.1 5.6 -0.6
v 0.1 5.8 0.6
v 0.1 5.8 -0.6
v 0.1 6.2 0.6
v 0.1 6.2 -0.6
v 0.1 6.4 0.9
v 0.1 6.4 0.6
v 0.1 6.4 -0.6
v 0.1 6.4 -0.9
v -0.1 0 0.9
v -0.1 6.4 0.9
v 0.1 0 0.9
v 0.1 6.4 0.9
v -0.1 0 -0.6
v -0.1 6.4 -0.6
v 0 0.2 -0.6
v 0 0.4 -0.6
v 0 0.8 -0.6
v 0 1 -0.6
v 0 1.4 -0.6
v 0 1.6 -0.6
v 0 2 -0.6
v 0 2.2 -0.6
v 0 2.6 -0.6
v 0 2.8 -0.6
v 0 3.2 -0.6
v 0 3.4 -0.6
v 0 3.8 -0.6
v 0 4 -0.6
v 0 4.4 -0.6
v 0 4.6 -0.6
v 0 5 -0.6
v 0 5.2 -0.6
v 0 5.6 -0.6
v 0 5.8 -0.6
v 0 6.2 -0.6
v 0 6.4 -0.6
v 0.1 0 -0.6
v 0.1 0.2 -0.6
v 0.1 0.4 -0.6
v 0.1 0.8 -0.6
v 0.1 1 -0.6
v 0.1 1.4 -0.6
v 0.1 1.6 -0.6
v 0.1 2 -0.6
v 0.1 2.2 -0.6
v 0.1 2.6 -0.6
v 0.1 2.8 -0.6
v 0.1 3.2 -0.6
v 0.1 3.4 -0.6
v 0.1 3.8 -0.6
v 0.1 4 -0.6
v 0.1 4.4 -0.6
v 0.1 4.6 -0.6
v 0.1 5 -0.6
v 0.1 5.2 -0.6
v 0.1 5.6 -0.6
v 0.1 5.8 -0.6
v 0.1 6.2 -0.6
v -0.1 0 0.6
v -0.1 6.4 0.6
v 0 0.2 0.6
v 0 0.4 0.6
v 0 0.8 0.6
v 0 1 0.6
v 0 1.4 0.6
v 0 1.6 0.6
v 0 2 0.6
v 0 2.2 0.6
v 0 2.6 0.6
v 0 2.8 0.6
v 0 3.2 0.6
v 0 3.4 0.6
v 0 3.8 0.6
v 0 4 0.6
v 0 4.4 0.6
v 0 4.6 0.6
v 0 5 0.6
v 0 5.2 0.6
v 0 5.6 0.6
v 0 5.8 0.6
v 0 6.2 0.6
v 0 6.4 0.6
v 0.1 0 0.6
v 0.1 0.2 0.6
v 0.1 0.4 0.6
v 0.1 0.8 0.6
v 0.1 1 0.6
v 0.1 1.4 0.6
v 0.1 1.6 0.6
v 0.1 2 0.6
v 0.1 2.2 0.6
v 0.1 2.6 0.6
v 0.1 2.8 0.6
v 0.1 3.2 0.6
v 0.1 3.4 0.6
v 0.1 3.8 0.6
v 0.1 4 0.6
v 0.1 4.4 0.6
v 0.1 4.6 0.6
v 0.1 5 0.6
v 0.1 5.2 0.6
v 0.1 5.6 0.6
v 0.1 5.8 0.6
v 0.1 6.2 0.6
v -0.1 0 -0.9
v -0.1 6.4 -0.9
v 0.1 0 -0.9
v 0.1 6.4 -0.9
v -0.1 0 0.9
v 0.1 0 0.9
v -0.1 0 0.6
v 0.1 0 0.6
v -0.1 0 -0.6
v 0.1 0 -0.6
v -0.1 0 -0.9
v 0.1 0 -0.9
v 0 0.2 0.6
v 0.1 0.2 0.6
v 0 0.2 -0.6
v 0.1 0.2 -0.6
v 0 0.8 0.6
v 0.1 0.8 0.6
v 0 0.8 -0.6
v 0.1 0.8 -0.6
v 0 1.4 0.6
v 0.1 1.4 0.6
v 0 1.4 -0.6
v 0.1 1.4 -0.6
v 0 2 0.6
v 0.1 2 0.6
v 0 2 -0.6
v 0.1 2 -0.6
v 0 2.6 0.6
v 0.1 2.6 0.6
v 0 2.6 -0.6
v 0.1 2.6 -0.6
v 0 3.2 0.6
v 0.1 3.2 0.6
v 0 3.2 -0.6
v 0.1 3.2 -0.6
v 0 3.8 0.6
v 0.1 3.8 0.6
v 0 3.8 -0.6
v 0.1 3.8 -0.6
v 0 4.4 0.6
v 0.1 4.4 0.6
v 0 4.4 -0.6
v 0.1 4.4 -0.6
v 0 5 0.6
v 0.1 5 0.6
v 0 5 -0.6
v 0.1 5 -0.6
v 0 5.6 0.6
v 0.1 5.6 0.6
v 0 5.6 -0.6
v 0.1 5.6 -0.6
v 0 6.2 0.6
v 0.1 6.2 0.6
v 0 6.2 -0.6
v 0.1 6.2 -0.6
v 0 0.4 0.6
v 0.1 0.4 0.6
v 0 0.4 -0.6
v 0.1 0.4 -0.6
v 0 1 0.6
v 0.1 1 0.6
v 0 1 -0.6
v 0.1 1 -0.6
v 0 1.6 0.6
v 0.1 1.6 0.6
v 0 1.6 -0.6
v 0.1 1.6 -0.6
v 0 2.2 0.6
v 0.1 2.2 0.6
v 0 2.2 -0.6
v 0.1 2.2 -0.6
v 0 2.8 0.6
v 0.1 2.8 0.6
v 0 2.8 -0.6
v 0.1 2.8 -0.6
v 0 3.4 0.6
v 0.1 3.4 0.6
v 0 3.4 -0.6
v 0.1 3.4 -0.6
v 0 4 0.6
v 0.1 4 0.6
v 0 4 -0.6
v 0.1 4 -0.6
v 0 4.6 0.6
v 0.1 4.6 0.6
v 0 4.6 -0.6
v 0.1 4.6 -0.6
v 0 5.2 0.6
v 0.1 5.2 0.6
v 0 5.2 -0.6
v 0.1 5.2 -0.6
v 0 5.8 0.6
v 0.1 5.8 0.6
v 0 5.8 -0.6
v 0.1 5.8 -0.6
v -0.1 6.4 0.9
v 0.1 6.4 0.9
v -0.1 6.4 0.6
v 0 6.4 0.6
v 0.1 6.4 0.6
v -0.1 6.4 -0.6
v 0 6.4 -0.6
v 0.1 6.4 -0.6
v -0.1 6.4 -0.9
v 0.1 6.4 -0.9

# faces
f 5/1/1 2/1/1 1/1/1
f 6/1/1 2/1/1 5/1/1
f 7/1/1 4/1/1 3/1/1
f 8/1/1 4/1/1 7/1/1
f 11/2/1 10/2/1 9/2/1
f 12/2/1 10/2/1 11/2/1
f 15/2/1 14/2/1 13/2/1
f 16/2/1 14/2/1 15/2/1
f 19/2/1 18/2/1 17/2/1
f 20/2/1 18/2/1 19/2/1
f 23/2/1 22/2/1 21/2/1
f 24/2/1 22/2/1 23/2/1
f 27/2/1 26/2/1 25/2/1
f 28/2/1 26/2/1 27/2/1
f 31/2/1 30/2/1 29/2/1
f 32/2/1 30/2/1 31/2/1
f 35/2/1 34/2/1 33/2/1
f 36/2/1 34/2/1 35/2/1
f 39/2/1 38/2/1 37/2/1
f 40/2/1 38/2/1 39/2/1
f 43/2/1 42/2/1 41/2/1
f 44/2/1 42/2/1 43/2/1
f 47/2/1 46/2/1 45/2/1
f 48/2/1 46/2/1 47/2/1
f 51/2/1 50/2/1 49/2/1
f 52/2/1 50/2/1 51/2/1
f 53/1/2 54/1/2 57/1/2
f 55/1/2 56/1/2 58/1/2
f 53/1/2 57/1/2 59/1/2
f 57/2/2 58/2/2 59/2/2
f 58/1/2 56/1/2 60/1/2
f 59/2/2 58/2/2 60/2/2
f 53/1/2 59/1/2 61/1/2
f 60/1/2 56/1/2 62/1/2
f 53/1/2 61/1/2 63/1/2
f 61/2/2 62/2/2 63/2/2
f 62/1/2 56/1/2 64/1/2
f 63/2/2 62/2/2 64/2/2
f 53/1/2 63/1/2 65/1/2
f 64/1/2 56/1/2 66/1/2
f 53/1/2 65/1/2 67/1/2
f 65/2/2 66/2/2 67/2/2
f 66/1/2 56/1/2 68/1/2
f 67/2/2 66/2/2 68/2/2
f 53/1/2 67/1/2 69/1/2
f 68/1/2 56/1/2 70/1/2
f 53/1/2 69/1/2 71/1/2
f 69/2/2 70/2/2 71/2/2
f 70/1/2 56/1/2 72/1/2
f 71/2/2 70/2/2 72/2/2
f 53/1/2 71/1/2 73/1/2
f 72/1/2 56/1/2 74/1/2
f 53/1/2 73/1/2 75/1/2
f 73/2/2 74/2/2 75/2/2
f 74/1/2 56/1/2 76/1/2
f 75/2/2 74/2/2 76/2/2
f 53/1/2 75/1/2 77/1/2
f 76/1/2 56/1/2 78/1/2
f 53/1/2 77/1/2 79/1/2
f 77/2/2 78/2/2 79/2/2
f 78/1/2 56/1/2 80/1/2
f 79/2/2 78/2/2 80/2/2
f 53/1/2 79/1/2 81/1/2
f 80/1/2 56/1/2 82/1/2
f 53/1/2 81/1/2 83/1/2
f 81/2/2 82/2/2 83/2/2
f 82/1/2 56/1/2 84/1/2
f 83/2/2 82/2/2 84/2/2
f 53/1/2 83/1/2 85/1/2
f 84/1/2 56/1/2 86/1/2
f 53/1/2 85/1/2 87/1/2
f 85/2/2 86/2/2 87/2/2
f 86/1/2 56/1/2 88/1/2
f 87/2/2 86/2/2 88/2/2
f 53/1/2 87/1/2 89/1/2
f 88/1/2 56/1/2 90/1/2
f 53/1/2 89/1/2 91/1/2
f 89/2/2 90/2/2 91/2/2
f 90/1/2 56/1/2 92/1/2
f 91/2/2 90/2/2 92/2/2
f 53/1/2 91/1/2 93/1/2
f 92/1/2 56/1/2 94/1/2
f 53/1/2 93/1/2 95/1/2
f 93/2/2 94/2/2 95/2/2
f 94/1/2 56/1/2 96/1/2
f 95/2/2 94/2/2 96/2/2
f 53/1/2 95/1/2 97/1/2
f 96/1/2 56/1/2 98/1/2
f 53/1/2 97/1/2 99/1/2
f 97/2/2 98/2/2 100/2/2
f 99/1/2 97/1/2 100/1/2
f 98/1/2 56/1/2 101/1/2
f 100/2/2 98/2/2 101/2/2
f 101/1/2 56/1/2 102/1/2
f 105/1/3 104/1/3 103/1/3
f 106/1/3 104/1/3 105/1/3
f 109/1/3 108/1/3 107/1/3
f 110/1/3 108/1/3 109/1/3
f 111/1/3 108/1/3 110/1/3
f 112/1/3 108/1/3 111/1/3
f 113/1/3 108/1/3 112/1/3
f 114/1/3 108/1/3 113/1/3
f 115/1/3 108/1/3 114/1/3
f 116/1/3 108/1/3 115/1/3
f 117/1/3 108/1/3 116/1/3
f 118/1/3 108/1/3 117/1/3
f 119/1/3 108/1/3 118/1/3
f 120/1/3 108/1/3 119/1/3
f 121/1/3 108/1/3 120/1/3
f 122/1/3 108/1/3 121/1/3
f 123/1/3 108/1/3 122/1/3
f 124/1/3 108/1/3 123/1/3
f 125/1/3 108/1/3 124/1/3
f 126/1/3 108/1/3 125/1/3
f 127/1/3 108/1/3 126/1/3
f 128/1/3 108/1/3 127/1/3
f 129/1/3 108/1/3 128/1/3
f 130/1/3 108/1/3 129/1/3
f 131/1/3 109/1/3 107/1/3
f 132/1/3 109/1/3 131/1/3
f 133/1/3 111/1/3 110/1/3
f 134/1/3 111/1/3 133/1/3
f 135/1/3 113/1/3 112/1/3
f 136/1/3 113/1/3 135/1/3
f 137/1/3 115/1/3 114/1/3
f 138/1/3 115/1/3 137/1/3
f 139/1/3 117/1/3 116/1/3
f 140/1/3 117/1/3 139/1/3
f 141/1/3 119/1/3 118/1/3
f 142/1/3 119/1/3 141/1/3
f 143/1/3 121/1/3 120/1/3
f 144/1/3 121/1/3 143/1/3
f 145/1/3 123/1/3 122/1/3
f 146/1/3 123/1/3 145/1/3
f 147/1/3 125/1/3 124/1/3
f 148/1/3 125/1/3 147/1/3
f 149/1/3 127/1/3 126/1/3
f 150/1/3 127/1/3 149/1/3
f 151/1/3 129/1/3 128/1/3
f 152/1/3 129/1/3 151/1/3
f 153/1/4 154/1/4 155/1/4
f 155/1/4 154/1/4 156/1/4
f 156/1/4 154/1/4 157/1/4
f 157/1/4 154/1/4 158/1/4
f 158/1/4 154/1/4 159/1/4
f 159/1/4 154/1/4 160/1/4
f 160/1/4 154/1/4 161/1/4
f 161/1/4 154/1/4 162/1/4
f 162/1/4 154/1/4 163/1/4
f 163/1/4 154/1/4 164/1/4
f 164/1/4 154/1/4 165/1/4
f 165/1/4 154/1/4 166/1/4
f 166/1/4 154/1/4 167/1/4
f 167/1/4 154/1/4 168/1/4
f 168/1/4 154/1/4 169/1/4
f 169/1/4 154/1/4 170/1/4
f 170/1/4 154/1/4 171/1/4
f 171/1/4 154/1/4 172/1/4
f 172/1/4 154/1/4 173/1/4
f 173/1/4 154/1/4 174/1/4
f 174/1/4 154/1/4 175/1/4
f 175/1/4 154/1/4 176/1/4
f 153/1/4 155/1/4 177/1/4
f 177/1/4 155/1/4 178/1/4
f 156/1/4 157/1/4 179/1/4
f 179/1/4 157/1/4 180/1/4
f 158/1/4 159/1/4 181/1/4
f 181/1/4 159/1/4 182/1/4
f 160/1/4 161/1/4 183/1/4
f 183/1/4 161/1/4 184/1/4
f 162/1/4 163/1/4 185/1/4
f 185/1/4 163/1/4 186/1/4
f 164/1/4 165/1/4 187/1/4
f 187/1/4 165/1/4 188/1/4
f 166/1/4 167/1/4 189/1/4
f 189/1/4 167/1/4 190/1/4
f 168/1/4 169/1/4 191/1/4
f 191/1/4 169/1/4 192/1/4
f 170/1/4 171/1/4 193/1/4
f 193/1/4 171/1/4 194/1/4
f 172/1/4 173/1/4 195/1/4
f 195/1/4 173/1/4 196/1/4
f 174/1/4 175/1/4 197/1/4
f 197/1/4 175/1/4 198/1/4
f 199/1/4 200/1/4 201/1/4
f 201/1/4 200/1/4 202/1/4
f 205/1/5 204/1/5 203/1/5
f 206/1/5 204/1/5 205/1/5
f 209/1/5 208/1/5 207/1/5
f 210/1/5 208/1/5 209/1/5
f 213/2/5 212/2/5 211/2/5
f 214/2/5 212/2/5 213/2/5
f 217/2/5 216/2/5 215/2/5
f 218/2/5 216/2/5 217/2/5
f 221/2/5 220/2/5 219/2/5
f 222/2/5 220/2/5 221/2/5
f 225/2/5 224/2/5 223/2/5
f 226/2/5 224/2/5 225/2/5
f 229/2/5 228/2/5 227/2/5
f 230/2/5 228/2/5 229/2/5
f 233/2/5 232/2/5 231/2/5
f 234/2/5 232/2/5 233/2/5
f 237/2/5 236/2/5 235/2/5
f 238/2/5 236/2/5 237/2/5
f 241/2/5 240/2/5 239/2/5
f 242/2/5 240/2/5 241/2/5
f 245/2/5 244/2/5 243/2/5
f 246/2/5 244/2/5 245/2/5
f 249/2/5 248/2/5 247/2/5
f 250/2/5 248/2/5 249/2/5
f 253/2/5 252/2/5 251/2/5
f 254/2/5 252/2/5 253/2/5
f 255/2/6 256/2/6 257/2/6
f 257/2/6 256/2/6 258/2/6
f 259/2/6 260/2/6 261/2/6
f 261/2/6 260/2/6 262/2/6
f 263/2/6 264/2/6 265/2/6
f 265/2/6 264/2/6 266/2/6
f 267/2/6 268/2/6 269/2/6
f 269/2/6 268/2/6 270/2/6
f 271/2/6 272/2/6 273/2/6
f 273/2/6 272/2/6 274/2/6
f 275/2/6 276/2/6 277/2/6
f 277/2/6 276/2/6 278/2/6
f 279/2/6 280/2/6 281/2/6
f 281/2/6 280/2/6 282/2/6
f 283/2/6 284/2/6 285/2/6
f 285/2/6 284/2/6 286/2/6
f 287/2/6 288/2/6 289/2/6
f 289/2/6 288/2/6 290/2/6
f 291/2/6 292/2/6 293/2/6
f 293/2/6 292/2/6 294/2/6
f 295/1/6 296/1/6 297/1/6
f 297/1/6 296/1/6 298/1/6
f 298/1/6 296/1/6 299/1/6
f 298/2/6 299/2/6 301/2/6
f 301/2/6 299/2/6 302/2/6
f 300/1/6 301/1/6 303/1/6
f 301/1/6 302/1/6 303/1/6
f 303/1/6 302/1/6 304/1/6
